<mxfile host="app.diagrams.net" agent="Mozilla/5.0 (X11; Ubuntu; Linux x86_64; rv:136.0) Gecko/20100101 Firefox/136.0" version="26.2.8">
  <diagram name="Page-1" id="MCOzclqYqTgAgSkLieVp">
    <mxGraphModel dx="2465" dy="1455" grid="1" gridSize="10" guides="1" tooltips="1" connect="1" arrows="1" fold="1" page="1" pageScale="1" pageWidth="850" pageHeight="1100" math="1" shadow="0">
      <root>
        <mxCell id="0" />
        <mxCell id="1" parent="0" />
        <mxCell id="2qZhVFvIX3RN9ZFZE2jm-1" value="" style="shape=image;verticalLabelPosition=bottom;labelBackgroundColor=default;verticalAlign=top;aspect=fixed;imageAspect=0;image=data:image/jpeg,/9j/4QAiRXhpZgAASUkqAAgAAAABABIBAwABAAAAAQAAAAAAAAD/2wCEAAYGBgYHBgcICAcKCwoLCg8ODAwODxYQERAREBYiFRkVFRkVIh4kHhweJB42KiYmKjY+NDI0PkxERExfWl98fKcBBgYGBgcGBwgIBwoLCgsKDw4MDA4PFhAREBEQFiIVGRUVGRUiHiQeHB4kHjYqJiYqNj40MjQ+TERETF9aX3x8p//CABEIBGEHBAMBIgACEQEDEQH/xAA2AAEAAgMBAQEBAAAAAAAAAAAABwgEBQYDAgEJAQEAAgMBAQAAAAAAAAAAAAAAAwQBAgUGB//aAAwDAQACEAMQAAAAtSAAAAAAAAAAAAQyTMhDbksPP0BGpJSvkoHZnNHSoulENfFJMwBrjYoQkk6YAAAAAAAAAAAAAAAAAAAAAAAAAAAAAAAAAAAAAAAAAAAAAAAAAAAAAAAAAAAh0mJCAm9wfeAAAA4s7RWyyYAAAAAAAAAAAAAAAAAAAAAAAAAAAAAAAAAABhfy9/oZRkl+Pv6F6Mp3eD+V/wDR8r3DHO/0mKoQV/Tyk5ZyJfHjCBv6SfztmwnKodg41LtgVZsd/OI01sdFzxdsqKWg2f8AObbF+Nl/P25h2WloTnn9Bfml1jTs/f8Amn3Re3Yfy7/oOQ/xsM7o/ov68j1wAAAAAAAAAAAAAAAAAAAAABrfKjPqX4PM9HIdafSuvoTF88VuyQGBpjqDnzoGm9jZgAAAAAAAAAAAAAAAAAAA8v5c/wBFv54lhPWaxjyNn/zUP6T6mlMXH9Q9ZCVcj+hKLY7LDaGpu7Jklmtkal4MH+f8xltNNTrlS/2V/M3+gB0vrRfXl5N3/Mqey2uNCdWD+h+Z/OvJP6DedDeDP6fMCnBb3PoVyx/SjA1NFD+hWppDHp/TzRQFx5Av9Lv5q2uLJAAAAAAAAAAAAAAAAAAAAAgSCu85wuvwWFUo4y33GysVUvz/ADRt6TjQfl9cW1rvfL+apcKof9CoLIplWp16iajSFa4z4CbzqYKkOBz+lX83b80MP6XVknelZ32klSBTN7qS9wUytfsY1OHvhVCyZ/Nz+iH85/6iH8+bV0c/oSdwAAAAAAAAAAAAAAAAAAAAABEMvfz0JHiXp44P6cUOsdCx99JY/FKOS5Ft5im0/wBUJ1IfzZrwzf1WsHBZJ0d3bpsXwAAAAAAAAAAAAAAAAAAABCNPbFcQfOVab1Nx/MX+gVLj+hdPbpfz7Jp4ya+SMqreXIxaCm39Av5iF1ah3p/nWX6wJUgsrh/RGgt3il01VSvMUgvJ/Pf+ohXKPs/qTVeHGzkbyrE5cYW1/mH/AEHpQW5pRbqDjuYYvjBx3dH/AOhdAz+iNbrb0XOx7f8AeGORvNUG3p+gAAAAAAAAAAAAAAAAAAAAqnFl/wAUMmexg+foKwQh/Q4fzwku4HGnQ0bvyPnB2AoVcvqggWehVS1YfNCL8jla3zDU872LJfikt9hyvmn89t3e4cXAlrxEPSd0KW3SCkPV2zAAAAAAAAAAAAAAAAAAAAAAEcQva8Km2yEQ1lvwKL2664UgniZxRu0Mhig+9u2I9gq24jSLrOAAAAAAAAAAAAAAAAAAAACrsRX/ABQDs7mCIotteFFr0jmtDIYoBc/sBraMX5HJVJvGGq2oovzn9CxAkmdeKR3cCok0ykKUWh7YVr6WbxEkUWyGopbekfz3sBYgRxAVxApXdQcLw05j+et9toAAAAAAAAAAAAAAAAAAAAAAAAAAAAAAAAHDdyI0kT3AAAAAAAAAAAAAAAAAAAAAAAAAAAwTOVpxiz7DzAAhOUjdAAAOX25sVdJjOoAAAAAAAAAAAAAAAAAAAAAAAAAAAAAAAAAAAAAAAAAAAAAAAAAAAAAAAAAAAAAAAAAAAAAAAAAAAAAAAAAAAAAAAAAAAAAAAAAAAAAAAqHbyIjgveEt8Wa57Z1JJksjUjuiC75/z+m03H1HHGn9B4V56Mzr594DZlQ7B13/AKAEAWO/nlOhs/L9jsunXbZVtJvljgI6LlgAAAAAAAAAAAAAAAAAAAAAAAAAAAAAAAAAAAAAAAAAAAAAAAAAAAAAAAAAAAAAAAAAAAAPjzzn3GMAAAAAAAAAAAAAAAAAAAAAAAAAAAAAKKXrh821MJvmAi7kbdVxPCR+flgppn2H6kifk8yWSOtBaSuB7TfHE4n84L4w1JBVLoZ67Ijqt8sS0cRxk9/BwWik/cnZAAAAAAAAAAAAAAAAAAAAAAAAAAAAAAAAAAAAAAAAAAAAAAAAAAAAAAAAAAAAAAAGNnOS18Z3ppZ1HrzRv+Kk/wDcNByMmsuf5OTGGh5eRmGg5GTWXP8AJSay53mJJ+TDY3PYdw5LWZSAxsmjCGMAAAAAAAAAAAAAAAAAAAAAAAAAAAAAAAAAAAAAAAAAAAAAAAAAAAAAAAAAAAAAAAAAAAAAAAAAAAAAAAAAAAAAAAAAAAAAAAAADgLEnf8AEb7UWZOnimXv3TAUYAAAAAAAAAAOQ8u0XZ+R6LB+stwi+RtcZQpwgAAAAAAAAAAAAAAAAAAAAAAAAAAAAAAAAAAAAAAAAAAAAAAAAAAAAAAAAAAAAAAAAAAAAAAAAAAAAAAAAAAAADzPT81+Ltr8fGob6bdqBt/3TjtfvQZum+yePtrsAMXOcrluc77oWOY6HZ/sEYVYgAAAAAADGyQAAAAADX++S32ieWMHT9CfpnH9hShCHQAAAAAAAAAAAAAAAAAAAAAAAAAAAAAAAAAAAAAAAAAAAAAAAAAAAAAAAAAA12mxW6pwuPrUkJHuTs7lze1sXM8QWAAAAAAAAAAAAAAAAAAAB8nhrH5JoauO5dJD8Y2w99ZVRUziVfSJsrGZl/Yj7/Tbe7HXItt68sPEuh6Dm+zuT67YlKANcAAAIImGhpsfa9lYixm2gOtR/RFQefyNJ3qPPZs53gWtB/RFQewBPCpnJl31frAgAAAAGp57t+evz7771frVjzxFoAAAAAAAAAAAAAAAAAAAAAAAAAAAAAAAAAAAAAAAAAAAAAAAAAAAAAAaaKrvLmXh4PxvX+TkLl9LkcfzhtNn46HRZ+0bXMfzydZ6nb8/fx7mHYdLxSramPsK2evE7tl0ISl4r0e9G/XAAAAAAAAAAAAAAAHiY+DpM+SPL4XuqVWo+f1rsexS45uNPnYM7DOYwcnseF1jtlKtDb28m9rMLfavWx3DCzaIAAAADga03PpEXio9qZWOkjGZtEfWFruqK59vnc6S9GssYB8c99ygU3m6P9qSjYXhu5AAAAAAMaNpSXJiLe92ztRRgAAAAAAAAAAAAAAAAAAAAAAAAAAPKtRNeTixuTwivsDA7OJZaAAAAABpD7+IY1hMPacRriSAAAAAAAAAAAAADjcV+miPhtdX+fffj9pfL47Lzfp0+Fsv1en2Ptqtl8/tfZicrf8AcL9/PpFULmAHx9oddT+/j5BQkOX6u9ZL6ywzleqse/DM4AAAAAAAAAAAADCzfLOOM2OBnSxZf8/P6B0yvx8LdOlnS3OJMdd9jrt5wkupohfJ0rXdpPv+SioL1UwvRW73xq9prOdL0mzxMuKUMZAAAAAAAAAAAAAAAAAAAA/NVtviTbR7/iu1n3CpEAAAAAAAAAAAAObNnk1M5EvSAafbG4V9dSnYJ5+nJuuK7UQDnRjMZmaHLjItXA0919N9J1R7jkAdzjxUSxKgVrk2tN3RyvVQacB1G75Usl7BG2BXyTCx4Go29RCWsiUKuFhdR1mCdBVG11NixldZ4g0uDXCx9ZyzAAAAAAAAAAAAD8hTXm7SJvxU+WhrQZXpvtrnxiZ+D6K9jD6FXfv4Y+/n8aZDcAAPCrrg/h8loZXR63ZbdX973gW/TsJ+xTKk3vPobXgAAAAAAAAAAAAMTB3PznGk5DsfmWOiWlv7wvShp4t0k1qKt0KirdCoufbDt9M8TI795s/1mZXpDuGNgAAAFWbS/wAyj+kMZxhoixkgxvCRbVTiezWy9/Mu2BYRAvHlqnAwsWnQPEBddFcaFn4nhH7J6kmC+QLRvz9AAAAAAEKTX+X5/wBc30lWIItQAAAAAAAAAAEXyhHZC0TSThFygNPuG2K+rBOrT8/Q5F1iZfOFYpZ3myOWiWweuPSOJq5chKaN/wCJH/Azfvjw6/gO/KpSlK0SnnHeBJZNNb7JRsSTE2/6w5WFZRkI5rC6+LSZKo2u5U5CMp2wTM1vbRWTFWyyfMkXSX6dQK1z/EpN4AAAAAAAAAABF2tLTxsVPkoa02Z5dJtb/f036jEy1zXUNt5eth1w9REAAAA1uy1PkK4eIq7zY4uVL2gzK7HjixYT9j2QrH0EM2wAAAAAAAAAAAAPDVbz4210rP8AHbGMydfnHuxxkMfPPBk+mM4ey9vTXIa7AAAAAc1TyxkWEa6C4NNSxEWzHwBylmYjm8q1bSl19SmHBcpdIhuSqyf0PKSW/pZ2J6cjZqtRfCjV9v56nOf0SqtJ5OoAAAAAAAI+7r3jfp2pIePtzaoYAAAAAAAAAAAAAAAAAAAEP82WEAAABHP3IYAieWAA1n5tAABr/DbgACKZS9AAAAAAAAAAAPJjm68bjS1PlAR8R+/m5zLm+5J2QzkAY9jGAPrFMAAABqczD8BUZ+BmeZ16ESdoMgPqYId2GelOrx9rH0EGQAAAAAAAAAAAAB+H7xXWc3vHiCTR2fJ9LpvmPn6jkAAAAAAAwPnYhoN+HH9gMPMDk+sDm977jR7wNL5b8fGl3oc/0Aw8DdgBCnU8Ya2w9T7Wn2AAAABqtq3zjZMQyncnyxQrgAAAAAAAAAAAAAAAAAAV81dgh8bgAAAAAAAAAAAAAAAAAAAAAAAAEVSVWPTyuIKfzYD36bAz5OsG1kA+MDrae2Ie/rBbwAAABrvLY4PzWl8DhxZefpWZ99780zL1rm9ttazmPrm8syLWWxc3tM8S+mAAAAAAAAAAAEESazvxlLdV0q8vybVme7EViPnLxeJb0fxz+FH1pJ9PPLk5UbQZJ9YuzUudI3858qLf+hytlkubZ/RFsAAAAAAAAAAAAAAABU/vONsYUvvVWmywAAAAAB54+ZD9+eYBQgAAAAAAAAAAAAAGIZaO+FJ+VpFllafwsboYc3x1OoytucZgSpnkJeM++pXr1sJ5kDZUz4hGe06nVn3vOI0ROPpW7xLLq0iyytXTE3uM689AAAAAAAAAAAAAAAARZDe60X0v5NkPL1+d8d7eO35W+2MHqdjNal6KLbeGAsY+vk9LEGwAAAAAD8+ftBrj4uycePUtj9cCLA+Nr+X99U9PPxtZK8UbXXo2dfn7c+wgAAAAAAAAAAcJRe1lUu1UZGP6X4MySo1z86f0F0O49vK9mpbuNRy/rMv9p8ffS+VVXhPq+U9Tw/HF9vHbK4tOrCU57QDhXAAAAAAAABw88Ha4kOct3OTZpXabqHR3Y5dwAAACOuemYeXqAAAAAAD8/Ro95F8oXpwowAAAAAAAADRG9QLzxZvjIZ7M0eosFtys2bYwRZ3W5AAAAAAAAAAAAH5zPTiHONsqKz/lmRCEo4cXE9qyizSIJVMoAAAAAAAAAADneiinoc2Gx9V+S/vv4e/z2N03PdR5C41uy1vqbXkPdQAAAAAAAAAAAAAY2FlYvzKk2GvzuOsLv47kS59eDboAAAAAAAAAAQNVS1dVO5TC5FnfWNkyRXKkqptmPO9St+sw3F+uXA0OHE/W+U13/Hh6fi4/4RSrBV9sFW3tEOBeAAAAAAAA5yLOx471Xk3N9JzfZp4e60q3btL+6ra/NPVhpsAAAAAAAAAAABotlqP29P0IowAAAAAHJxKWG8K1+5IMdSjIhWffT6Od6IAAAAAAAAAAAAAAAAAAAAAOEimyIrF1E68ubfY1z1xZ1BcyGwAAAAAAAAr9YGrnqPKage9+fPfw/eBrt97qdt8x6THyE8+p/M/B+kVfwdDUAAAAAAAAAAADXeW4yvlMGh3GxU7XRzFAs9T+7CT0YAAAAAAAAAEDVUtXVTuUwuRfudgeu2uzuJTOTKN78Hkvsk9VV7uKfU/I2D6+HS5Ia7LBV9sFW3tEOBeAAAAAAANXDViv0vO8p03qPLevN9JzfTgw/r51Vi7bDL4fuPm/qg0yAAAAAAAAAAAA5Dr+DvT94KMAA4M7xXHDLGRTy0rEOflmxCEtbUAAAAAAAAAAAAAAAAAAAAAAAAAAAAcvDlixWPqZz5c3GwrnrizqC5kNgAAAAD4qXaaq3tfDB7DxgG43ejyvL3do+fr55beXq3xispf1xcXaYvW0wh7WAAAAAAAAMYfOJjeVgztvq955u0HOtgfs+wDOcnptkJfXAAAAAAAAAAQRVL+gVQ+vVjl2K9DxzsRzGTvsnfTbe2Nkee+gcDidfjeg8BxrsWu3HOxHHWEji19OXuBxrYAAAAA1ecbSPeI5LqcvJxtjMdmtxEo7hyetwPOTCuV4przdzh9bFWrS1aWF3XD9xx5w1yAAAAAAAAAAA4zs+MvT9m8falAGFeenl8YeYAAAAAAAAAAAAAAAAAAAAAAAAAAAAAAAAAAHKw5Y0Vh6ycuSN9n1vwCz6DpkM1FWWSUDUVctJVv3Pgg9Z5ADce3j7UrORn42T84thxZAHh7rGNQ2r1kOqbPX9aP4HW1AAAAAYmXq/NQfI+fVN5sdVtZOyG0wCboRnDf0e1E3sQAAAAAAAAAAAAOK7Xh+4vzhQgAAAAAAAHNSUdvpeC/Or8ukndw38adDp4k8M+z6/Xd72/ZU7uJlnN6T8+Iqt1O30vC836Hi2D29XJnodT0q1d3h+beq1aSra9Hd1w/ccecNcgAAAAAAAAANDvtFYk99tpN3jAQaAAAAAAAAAAAAAAAAAAAAAAAAAAAAAAAAAAAAAAAclDlkNAQBH3ed8TKDFqfbmqHs/E4o9l4kDbZGJl07Ow9/D3+VXQpbAAAMLNXddQ270cWobfA6OuOO/GAAA1W11/k6/iPC1cnpOS6He/mDfoAJ4gqwEnqPoS+sAAAAAAAAAAAAA4vtOI7e9OFGAAAAAAADziKUoo6vy4On85A5rquDjSr9pskrag9PZJW0WO0fI9d2vLOb6Tm+lXw8nGXbVofWEpf+a+r5WrV3eHmxVq0tWl6O7rh+4484a5AAAAAAAAAara6mbfG3/PdDvkK0YAAAAAAAAAAAAAAAAAAAAAAAAAAAAAAAAAAAAAADz9B+foAK1WVhD0fmY0H0L5yBnbDU7arPsPfW7D5vd+hw5AAAAAGJl4nX0wx9JqgAAPH2V9dS9PP5NQZuF+x7dY/P2TuBltZwiqVZfahJ3wAAAAAAAAAAAAOK7Xh+4vThRgAAAAAAA+IimDnrvjo6ffx2/jY/cWOZ7CNcuv8AZZPbHuuT6ONNPn18sOv7KEJr7nn/AE5vpOb63Mw8TYSq6VGfe0UL+Z7/AEEz01+dc3wrRGPUsdLYutvVU/Zyzlw4o+wtTsKr2SeF2wx50AAAAAABpN3z9iT33On3GMBBoAAAAAAAAAAAAAAAAAAAAAAAAAAAAAAAAAAAAAAAAAA4Dv8ADtVKovXy+t/HwY/d5otrDJk/Xyqz7D31GV46bNHkpwAAAGH7YHqYfke3gAAAAxcPYa/5xTDgQ9T6YuVL3B9N5Q7PDzLP0oM2gAAAAAAAAAAAAOJ7biO3vzhQgAAAAAAAAxdP0STn6fcGs/DQ/ZmHb0Ua6/mPLpRtn92DikSecW7o9R2aeDXbErzhrnnIasQlxQ6PP6Lwh0dOGzPz95f3wMbpPjDuHIsCMfGwAAAAAAHH9hxN6fsPYpQBgAAAAAAAAAAAAAAAAAAAAAAAAAAAAAAAAAAAAAAAAAABAXBWMrn9K+YB2+EysVjO+fH3Ssgz77DW7LwdgPNygAMXyx/ZQfv4ethDIAAADz1u21Xh6v4PI19tt+X6eTqfvTczL0noOnE/vwAAAAAAAAAAAAAOdy3len3gowAAAAAAAPz94GbkbPSc+7PyHqtzHmJp0ePjjO759X4aapX2lCxWbCsvDt3lfkp1+6axW7XmsPm+rUlWQ6t9JS61gtFWbjuL05+jHjsu3pi/knRdtjp8uGJc531zLFT1CZ+ZnV4X7GPnwAAAAAADhu54y9P2YowAAAAAAAAAAAAAAAAAAAAAAAAAAAAAAAAAAAAAAAAAAAAK42O5fs8Str9/Ppny4DN2Oh3Veb0EMvrstbsvDTh5iYBg52u9DF4j39cAAAAABg53xyo9YPl9FtdUSSRNXLdTb+rhv2AAAAAAAAAAAAAAEfyByd6frBRgAAAAAAAx4hliJ+t8sDpfOwNJstZzcX1ft3ENPQdu4gdNlavadXkOb6Tm72MP8/V6zxkgWB3Hz/1EZyHk1XrS/lckhdaJd/62fJl5/L2qvbBWAAAAAAAA59+7O9PmCjAAAAAAAAAAAAAAAAAAAAAAAAAAAAAAAAAAAAAAAAAAAAABCcY2yrb7757z49P5V7+DGd8wc6pY9Nnqdp4qx9DyU4/Mms+vL6BWDvxgAAAAAAY+DtsfyNfBkDl7H+N7+WLP0oAAAAAAAAAAAAAABz3Q+Uu/NdVpN3JsFaIAAAAABFUq4NrzcTtvqO58VfmRnadCHJmrng1/tl5FbbC8voZr0Q552K5243scaO+b63k/U8LC33vNVXr7cqt4zvq5JC7MK8LZ8mUK+wAAAAAAAAA/CNpK5/oL04UYAAAAAAAAAAAAAAAAAAAAAAAAAAAAAAAAADnogLAKy/pO/AaqQCJPKyHsVp/bKitX5ZYVrWUFa1lBGcmAAAA0u6SR1TwbJ12+lfMMUdfjNtqf3Xbe5etyeRZ2o+VXWDnYHfjxx9BrAAAAAAAAMr4m/mdTK3h8++khpIAAAAAAAAAAAAAAABF0i/vtfn9RQgAAAAAAAeXqa/n6NtLXO0yfWi+2nmv3UgsjJNF5SqSWWa7Y0Jfzx9/xj9KryFcUhdmFeFs+TKFfYAAAAAAAAABEct4N+fPFCAAAAAAAAAAAAAAAAAAAAAAAAAAAAAAAAR2SJpq8boaiwm5IEmDdgAAAAAAAAAAABzPTJYaq6+0cBfQ/nHMju8D92up/dNu0fP18V6zAz9f6CLwHv64AAAAAADM2M08ftYPSHhfoIRTAAAAAAAAAAAAAAAAAIYmden8/TS7qrEEeoAAAAAAAADS7plVmPb0RN0YYGsHCEj9TkZ/I9Bzfb437XGwOBjq8BeFs/D98K+wAAAAAAAAAA1u2YxlX7yLs4UK4AAAAAAAAAAAAAAAAAAAAAAAAAAAAA447GM4jk0jeQ5gH5+gAAAAAAAAAAAAAAA8/RnEPxTbbR+p8nWF33B+z8T75WsQw9D86HNxJsHz9Z3BkAAAA/ewgn5GRe63XlPY+Xqeb9QGMgAAAAAAAAAAAAAAAAAARhJn3HvUtSE+frl1QAAAAAAAAAAI743t+I9d49zfSc31a+GL1myezws35l60I9gAAAAAAAAAEaZ3bdOy9zm1gwAAAAAAAAAAAAAAAAAAAAAAAAAAAAY3EQmbnby9vj4+wAAAAAAAAAAAAAAAAAAAaTdpI4Zj+0356HzlRlleT73n4Xy+40nS5eu9vDylgzHnmx74zodzTucKljped04S7WVv3jdzTbk4foAjkAAAAAAAAAAAAAAAAAAAAAaHfJNsXKj7b3JuqHPrgAAAAAAAAAa+H5w1XT5kPc3J3Mem4XGd5u5Lo9f0HlOyAAAAAAAAAAIUvTyF1JWjCLQAAAAAAAAAAAAAAAAAAAAAAAAAAAYhl195icDgJ4AAAAAAAAAAAAAAAAAAAAAAAAAAAAAAAAAAAAAAAAAAAAAAAAAAAAAABrtj+b553o+I7azL+inCAAAAAAAAAAAAAAAAAAAAAA+f3Vb7aPsud6KxuFSIAAAAAAAAAAAAAAAAAAAAAAAAAAAc2ZVZ/W0hg7cAAAAAAAAAAAAAAAAAAAAAAAAAAAAAAAAAAAAAAAAAAAAAAAAAAAAAAAAEMzMvT+XrzGPrjrxThAAAAAAAAAAAAAAAAAAAAMeOLk3h324b5ChAAAAAAAAAAAAAAAAAAAAAAAAAAAANIY1evO1I9AAHkerSbsAAAAAAAAAAAAAAAAAAAHPHQgAAAAAAAAAAAAAAAAAHOHRgAAAH4frn+gAAAAAAAAAAGq2rfPJdbxXTXJs9hZtKENcAAAAAAAAAAAAAAAAANFl8ven6f6zfSvGEOgAAAAAAAAAAAAAAAAAAAAAAAAAAAGHVn3sqZ2QAAHnSezcTExdwgEn5UaQSeACKyVFOu1LIAEREuqg4Bc0A4w7NTTdFsaY3Or0TL0AAGop0SnO1ErtHTKZfhc5zdSy7CkVyTaKheBcStU+7gr/YCkl2wAQbahnJX2VZdOtFCyK1FlVQp0JJVFwi46H4wLXsaspaMAjSbMloJ6W1tKMX4cR3drcIh6rnadogffy5llGPLYTuhKbYMVb7GFruVtTh62lylUrWgBpKoFyvmnVxyl1jupqwXBAAAAAAAAAAAxMtnMYSJl8n0bHWOK6WtHsBWiAAAAAAAAAAAAAAML23z56TiJd6Fji+0KcIQaAAAAAAAAAAAAAAAAAAAAAAAAAAAAK8yByZ3nbAAABG0cTzTYvBBU0QYcNKce6kt8U7LiRHLlTDpYlkuNy8pUAt/Bc4QebP0+ZfBU0tlx+/5Qrt1PP8AFl8AAFbpfNPH0y0zOzmuqVzyFvKNP0stDNhq8nQSDH0qFUZB5Lpyd5C1HKlZrtU5uMAI8kPkbUOg7PS9FLpshQsqJXtqAdVtuMmwrXbSpdtSuG11VhiFemp9/SM2BQsvpHUixhc25jsuX1/Wknyuli6zVdbMwT0GXhqtX89Db2wu74TSRYxLEV2sTBikt2qRW05MeJW+wkCHR2YonewKuWDPGBZHgg4n+gNAb/GHUeSvEsKAAAAAAAAAAAABHciLMmm13VcDYk75jRbHiWxSgAAAAAAAAAAOT8Ls2+aHpM5jySMprgKcIAAAAAAAAAAABDkBl31IZJLKgAAAEfkgKqWrAAAAAAAAAGJl1nMC0+n3AAAAAj6QRG0khh5gaKDbHgDHyAx6x2kAACqdrABje32AAKp2sB4e4A83oAAPj49ggKfRg5wAAAAAY2SAAADy9QBj5BkGAHj7GUSdr0yzt+fpV10kVTgGNkj4+wqnawGPkB8fYrzYX9AAAAAAAAAAAAAAADDzG2dfGcuLs2s53sNLhv2i40k9oOQyk5z/AC+EkNJzWuJAaLkdsyW0HJEmOd5Y7bQ9F8ml1vfjDy/1ThDXAAAAAAAAAAAAAAFOfjiZRJSofc6oR/Qf31dICycjR9VM/ppBEqfzUP6AcNysQn9Aa+afnzCubWnZm0xeVi4vfC/Lw2Xs1fKQATNN1XbRAAAAAHD8FxVqT9AAAAAAAAAAAAAAAAAAAAAAAAAAAAAAAAAAAAAAAAAAAAAAAAAAAAAAAAAAAAAAAAAAAAAAAA8/Rl5eGYzn5fTGAwAAAAAAAAAAAAAAAAAAGjP5ySnDH9Rj+WV/KqziaKEJ8jIzednziiXKZW2psf0+qD2FXCfIyt/QcunGco0oJXjK5dLy2cez5wJpq46+0xYnOAAAABE0s1VJalAAAAAAAAAAAAAAAAAAAAAAAAAAAAAAAAAAAAAAAAAAAAAAAAAAAAAAAAAAAAAAAAAAAAAAAAAAAAAAAAAAAAAAAAAAAAAAAGi3ogKfQjnRTGMWvtjBWmed6Kpab0k85ySZNHjXax48q82LEE4dghgRLsKknP8A9JYylcAAAAAjDyjG0QAAAAAAAAAAAAAAAAAAAAAAAAAAAAAAAAAAAAAAAAAAAAAAAAAAAAAAAAAAAAAAAAAAAAAAAAAAAAAAAAAAAAAAAAAAAAAAAANKbpxX6doxMsAAEOExoskI2KBJQOrAAAAAAA57oa4mdYDXbEAAAAAAAAHNHSsLNAADUcOSeaw2aMZLPsAAAAAA1OzbMbJwNXkbMx8Vb0WnavaAAAAAAAAAAAggncAABxnZgAAABq61FqXx9gAAAAAAAAAAAAAAAAAAAAAAAAAAAAAAAAAAAAAAAAAAAAAAAACnNxqAGk2FlOkKR/0p/nBfE7N/PD+h4UmlQ2dXOf8AQvDXXqKzk227opdE7x/PvUH9G0H/AITi/n5qz+i4AAAFYpwjwnAAAAAAAAACsFn6wG+kyNIaLc7eBZKPuQqVzqQPM1UJcLiUunumpa6bagTQfHQ184svNHW/q8TrMNQ7FHZAcf1kN3dux7etU1z5wo/1Gf0N5XxPuGqevS91H0gyZjXaR5YXhxdVH0g0ILETNAMsnXAct1NejbTLV7fFjQOA7+lRO3d8bCRcMDn+gp+SVKcJ9mSBVe3fkZwANdE3D9cQ1dOjUvnQSDFEQFuOQ5PAJW7ui0/nt2ECx4XzhObOVIqn+qFrwAAAAAAAAAAAAAAAAAAAAAAAAAAAAAAAAAAAAAAAAAAAAAAAAB/Mj+jf80CV+W/oxBRzHa1YnEia/dKLYn8/L1fzw/qGURsXTu/p0/8AMD+g9JT+i38/P6G/yzLD5UnaYhPvpVribi6cEzwAAAAV3nau9mgAAAAAAAABWCz8ZHlW+Ue0OU6uSa2HD3fiqVSk12YWmkUlu1CxNMQy94FV+mwejJCgeyfCEpA4XM53PN9Ec8RF1pOblLnpH2Qjs9h9WtumiqdY8q64nV83IGqvcudHTzkx3ihKXIZOG7vi7Fmx47l9EWDotemBjX67Z96SPHf1D5aWld1IYJnAjTp6ulxoulGOzkYh6GYyTADyI6kmjl5Cqs07mAyPpN6iWTha49xKhx3X7XblTpiz5cK4bbUdsTPH3X0uJEs/oN+AAAAAAAAAAAAAAAAAAAAAAAAAAAAAAAAAAAAAAAAAAAAAAAAARnRP+nA/mtn/ANGhEmFNA/mDKl6h/PG/ezH8zf6W+ogyG7rhTq4o/nDuP6DDjqR/0NHBd6AAAD8hTZnA2XhDpySAAAAAAAAAAAAAAAAAAAAAAAAAPn6Hz9AByHR5gAA5rP2wAA0nnvwAAAw8wcj1wAAAAAAfL6AAAAAAAAAAAAAAAAAAAAAAAAAAAAAAAAAAAAAAAAAAAAAAAAAAAAAAAAAAAAAAAAHxRa9mvKjWq336AAAAAAAAAAAAAAAAAAAAAAAAAAAAAAAAAAAAAAAAAAAAAAAAAAAAAAAAAAAAAAAAAAAAAAAAAAAAAAAAAAAAAAAAAAAAAAAAAAAAAAAGPh767RoPCTTpnJfG2Owcb+sdi5D2xnqXO5Ou25YWXFv9DGQAAAAAAAAAAAAAAAAAAAAAAAAAAAAAAAAAAAAAAAAAAAAAAAAAAAAAAAAAAAAAAAAAAAAAAAAAAAAAAAAAAAAAAAAAAAAAAAAAAAAADG5uWPqdRyfxcr7nW+CxCG+oAAAAD6+RsdjzqLfttpFPxHvLLmuloWwj3AAAAAAAAAAAAAAAAAAAAAAAAAAAAAAAAAAAAAAAAAAAAAAAAAAAAAAAAAAAAAAAAAAAAAAAAAAAAAAAAAAAAAAAAAAAAAAAAAAc94c7eq/XyXqoAAAAAAAAADCzWccpv9Rj3ak1ZcMy5wevlCnZAAAAAAAAAAAAAAAAAAAAAAAAAAAAAAAAAAAAAAAAAAAAAAAAAAAAAAAAAAAAAAAAAAAAAAAAAAAAAAAAAAAAAAAAAAAAAAAAYOdz8mnKjsc4AAAAAAAAAAAeZpMP6+ehSdfyGyi3mMeY7wAAAAAAAAAAAAAAAAAAAAAAAAAAAAAAAAAAAAAAAAAAAAAAAAAAAAAAAAAAAAAAAAAAAAAAAAAAAAAAAAAAAAAAAAAAAAAAADkOvje3W+Wq2vTpBrsAAAAAAAAAPDOPXR/GLarhNCy8PELAjyXowAAAAAAAAAAAAAAAAAAAAAAAAAAAAAAAAAAAAAAAAAAAAAAAAAAAAAAAAAAAAAAAAAAAAAAAAAAAAAAAAAAAAAAAAAAAAAAAEbSTG16pFndR+9VwJYcR0vK6GyefpBMAAAAAPk+mJib6bbH0mPNHstd+JoR+ba/vxhaeaPJydRt5orFjw3rAAAAAAAAAAAAAAAAAAAAAAAAAAAAAAAAAAAAAAAAAAAAAAAAAAAAAAAAAAAAAAAAAAAAAAAAAAAAAAAAAAAAAAAAAAAAAAAAEbSTG16pEw9j5p+/jDP2nOI5O19+Eya8vbfXI+8UvUud9NNt786f7Z2PnhM6+/j8/G2vqxfLfXPanH2132Pz3nJpttd5Jow31bfUbeLexY8L60AAAAAAAAAAAAAAAAAAAAAAAAAAAAAAAAAAAAAAAAAAAAAAAAAAAAAAAAAAAAAAAAAAAAAAAAAAAAAAAAAAAAAAAAAAAAAAABG0kx3eqRDgZ+J7Py2Bt+U87fP7JotnWvZQjmAAAAAAAPTz1y+/jLpX/AB8s/AhmbfUbzoc2ww8L6wAAAAAAAAAAAAAAAAAAAAAAAAAAAAAAAAAAAAAAAAAAAAAAAAAAAAAAAAAAAAAAAAAAAAAAAAAAAAAAAAAAAAAAAAAAAAAAAByHXxHepRx+6Df+08v+a3Zsbcvg9t5WKXK52bhbw5eVz+Oz2jGyafTDGwAADbalWllCL/v45F4PQcwB2HCeesdsR4L2gAAAAAAAAAAAAAAAAAAAAAAAAAAAAAAAAAAAAAAAAAAAAAAAAAAAAAAAAAAAAAAAAAAAAAAAAAAAAAAAAAAAAAAAAAAAAAAACJJbjToUa5bHHxvoXz7sfXjNvU6O8ePtXugyAAAAAAAAfOv202Or1OJa5/10fNd8js0Pmn0cAAAAAAAAAAAAAAAAAAAAAAAAAAAAAAAAAAAAAAAAAAAAAAAAAAAAAAAAAAAAAAAAAAAAAAAAAAAAAAAAAAAAAAAAAAAAAAABG0kxteqQ/wAz1vz7byPFt3pr3K+c3Cbab3N5VDa7T64r3in65zPrpJ0LRfeu+6ab8Z3TSeecb9zfjtH1XhyfxvF0eBq0tf08yau/c7ew2cTrNRt+Z2bFjwfsAAAAAAAAAAAAAAAAAAAAAAAAAAAAAAAAAAAAAAAAAAAAAAAAAAAAAAAAAAAAAAAAAAAAAAAAAAAAAAAAAAAAAAAAAAAAAAAAEbSTG16pEw9j5p5+hjT63qk1XiXZYM9Xm25xpYNeyfHeL4GdQB+s/j299dsJtcrSbQevT5MNjQbXLQWwjnbfUbeLexY8L60AAAAAAAAAAAAAAAAAAAAAAAAAAAAAAAAAAAAAAAAAAAAAAAAAAAAAAAAAAAAAAAAAAAAAAAAAAAAAAAAAAAAAAAAAAAAAAABG0kxzeqRHh5mB7Py3ls+O9LVDrmo2VW96jWUAD8+fsx5vQfP0MgAAPbx6jm2tDi9rxUMjb6jddOpYgeF9aAAAAAAAAAAAAAAAAAAAAAAAAAAAAAAAAAAAAAAAAAAAAAAAAAAAAAAAAAAAAAAAAAAAAAAAAAAAAAAAAAAAAAAAAAAAAAAAA5LrYmu041/dLuvaeX+NTuWccjj9ti2KWgzvrB2j2+Vyfmz2zGyafTDGwAAD38FexuNP9/HK6wd3ggOy4X501tYPB+yAAAAAAAAAAAAAAAAAAAAAAAAAAAAAAAAAAAAAAAAAAAAAAAAAAAAAAAAAAAAAAAAAAAAAAAAAAAAAAAAAAAAAAAAAAAAAAAARFLsZ9ChXPb67x+heA7T64/dU+ltnx9wWwZ/Pj0MAyAAAAAAMPOuZr9Tr7VD03/Od1mGzw+afRwAAAAAAAAAAAAAAAAAAAAAAAAAAAAAAAAAAAAAAAAAAAAAAAAAAAAAAAAAAAAAAAAAAAAAAAAAAAAAAAAAAAAAAAAAAAAAAAEbSTG16pDnM9h5+38hxra6u9yvrYawdHm8egs9s47KjsdO5/wBdJN21H3rvtGs/Gdo1Xm13LQ+O+nSfPKY+8XUYGlS18jHJqxk7+ObD7HUbfmdqxY8F7EAAAAAAAAAAAAAAAAAAAAAAAAAAAAAAAAAAAAAAAAAAAAAAAAAAAAAAAAAAAAAAAAAAAAAAAAAAAAAAAAAAAAAAAAAAAAAAABG0kxteqRMPY+aY+QY0Ot7BYp8S6zCmq6Bs8aWDFffxvGDAAB++2M+DPy9JtL+9LmxWOc2uxV7f5+kVlt9Rt4t7FjwvrQAAAAAAAAAAAAAAAAAAAAAAAAAAAAAAAAAAAAAAAAAAAAAAAAAAAAAAAAAAAAAAAAAAAAAAAAAAAAAAAAAAAAAAAAAAAAAAAEbSTG96pEuNk632flvvP4rNs0uoa7YVb36Mbgfnz9mPD5yWdcVlMsf79WM/n6Y2AAGbQ6GH+bLWwzNvqNz0OZYkeF9aAAAAAAAAAAAAAAAAAAAAAAAAAAAAAAAAAAAAAAAAAAAAAAAAAAAAAAAAAAAAAAAAAAAAAAAAAAAAAAAAAAAAAAAAAAAAAAAA5rpUmlXXe8F7Xy3jpt+s1eMdjg2aOszsTCzr0eRxf7jftWNk1OkGMgAANnrPutLIUdbPWca+HouWGDu+SsDy+hsx5X0AAAAAAAAAAAAAAAAAAAAAAAAAAAAAAAAAAAAAAAAAAAAAAAAAAAAAAAAAAAAAAAAAAAAAAAAAAAAAAAAAAAAAAAAAAAAAAAAAHzFMsLMFXvywMXek4fHv386VID48MpnX8/TGwAAAAAA2uudVvpAkHi9TVbg892Q12AAAAAAAAAAAAAAAAAAAAAAAAAAAAAAAAAAAAAAAAAAAAAAAAAAAAAAAAAAAAAAAAAAAAAAAAAAAAAAAAAAAAAAAAAAAAAAAAAAA1fESWswQHztnvHp0Kxp/0l2tDaTtdYg4J2OPLpyzpvrOOXdbla54hI20hliVOe+qzwF10wKNvlOp+nMvhHuAAAAAAAAAAAAAAAAAAAAAAAAAAAAAAAAAAAAAAAAAAAAAAAAAAAAAAAAAAAAAAAAAAAAAAAAAAAAAAAAAAAAAAAAAAAAAAAAAAAAAAAAAAAAAAAAAAAAAAAAAAAAAAAAAAAAAAAAAAAAAAAAAAAAAAAAAAAAAAAAAAAAAAAAAAAAAAAAAAAAAAAAAAAAAAAAAAAAAAAAAAAAAAAAAAAAAAAAAAAAAAAAAAAAAAAAAAAAAAAAAAAAAAAAAAAAAAAAAAAAAAAAAAAAAAAAAAAAAAAAAAAAAAAAAAAAAAAAAAAAAAAAAAAAAAAAAAAAAAAAAAAAAAAAAAAAAAAAAAAAAAAAAAAAAAAAAAAAAAAAAAAAAAAAAAAAAAAAAAAAAAAAAAAAAAAAAAAAAAAAAAAAAAAAAAAAAAAAAAAAAAAAAAAAAAAAAAAAAAAAAAAAAAAAAAAAAAAAAAAAAAAAAAAAAAAAAAAAAAAAAAAAAAAAAAAAAAAAAAAAAAAAAAAAAAAAAAAAAAAAAAAAAAAAAAAAAAAAAAAAAAAAAAAAAAAAAAAAAAAAAAAAAAAAAAAAAAAAAAAAAAAAAAAAAAAAAAAAAAAAAAAAAAAAAAAAAAAAAAAB//8QAPhAAAQQBAQYDBgUDBAIBBQEABAECAwUGAAcQERITFCAxQBUWITAyUCIzNEFwFzVgIyU2QlFSJiQ3Q0WAsP/aAAgBAQABCAH+eps8oYZpInf1Bx/QubY6Q5G6a9r2o5u6yy2jrnrHIm0em5uC1eQVNr8BdWtsJVC9yTW5hTWRbBYNFlRCCzESw53RTTRxM3llQhjTETf1Bx/VTbh2wqkC/wCbk5zRDETQP/qDj+v6g4/qnyOuuHzNF+Rf3MVNXuKfjmcFWVnGGV/gxMyQDzTL+J79f03tdXGK29SzqzYVkMwJ0QUuszyyVZZa0Gmx6yuHuQaXZvZNi4xqhlaaqaxu49r1UJK7SiOAdePoeeUeeKeKosorOuHLjzcjo44XrFR+4yGtZ4Nolz+GKriWN6Ma9dmpHEexH3y2VdC/klWWJI+orTBHORrdPexjVc9trWPfyN05yNRXOQ0NyoiTEDjt5phzBCePQ8tbQ7GNRAIYNn8jfahM07HskajmfbSDAxeXuILAAl6sg8VpbA1Q/XLqrcK2G7gX7c97Y2Oe6aV000kro9m5bmMcv9NCtYtjbqNhSPeWIxytekkas50ZZ1r5OmzSmhtVUVr2vajmvexjVc9DglXgl4BXWASim49jFPWkOngkIHiVEkjmhlRVjisAJpelFqaxr4Hcs0M8E7eaHUhI8TuWSOWKVOaN1pWsf03IqKnFHyRxt5nsLFkcjWTmhjcOvFLFKxHxzEDjt5phyxCUVYN01jXwO5Zop4Zm80WnlCxu5XskjkbzM9qVvP09x58Ag873NlIe9G6GlF5I4YvtOWEdvjtk7VGP3NzXRbrOGOeuMikY5zHNc2+sHV9MYUgg0ppsA7QARwA4RYNbRYmMu4nt2aPco9kzW0cjnthodJXEOrnnps+uO3Nkr5NpJHLXgwa2eD9S8fLvsDYQAiCpZpS7Wxc9cypo66hpo49nhHTvJIl1mWWkKRLXg12P3Fox0gshVtUAn05eGD9fIwdX93BTAOIknLvMjO5NWGIXleMpEuE5ESOfCBPlpHb47Yu1WlIIcMSp1RldjznkjEkCzsngYURZ4314LGtMrSO3KrMct7SB0wdCE8CnBGk+25TZyXV45sGDk9DIxU3PexjVc/3go+fk01yORFTNsh7caCKvwq76wc3tDK66psYYITMbqq+trkYGQUMKznIgu6ch6RxamtqoeV0UxViAIjVJFNDMYrxvtGRkdvRWUmhOj3Y/W988Z1754zpFRyIqXRHc29hNrlyG8CFGCKEJEndCRgFuQaCQNPlo3b5FYt1hM3VxsLW0W25IIK1mCU/fWvcybSCOa0Dg1s0H4QWRGs+I6uQvZoImznA9lgYVRWANtKQbkuZlnTSQBBYjfmjoRFARY1BqrHQWzbargKTOyOtkU7dV090XWNqqs+sPrpUjM2e25CFvrZNohHTpYokozCQzVeJa016KndWGPZAVTEPfHZVWUlsfYGhGkgkxkDjkNmFhn1k+ZkmzSDAB4ZkBcCTthntaOwdy09iyzrRTG5YR3GRWTtDrfWtYPXV5oBgE3RK2eW5E7CQJs7qrR9gTYuDDINJjGHwrG7OrNKnN+07RCOnSxRJgg/WyKB27JzWhUR8i1IimWYQ6bQnubQNRMIja/JAuKqieaKi+WbHNMyAjk2diLFTzTrmJHXyM9dYjVwkYi6CYmAmssJInZVeMuPZcjdmg/wDp2RG/aJccXQ1keHk1Adkpdhl2R0NnSyQDYuT22QVsmrcxQqs0lB4ZCioYkEFhEGiHh2mJH/ta62bj81oZPrPj3EXjoNY9k60cUzY59opM0EsS0zXOuK1G7RSOSmgi1goTCr+Nz9HPZIaU9lBB29JWx6y8jr5HYO1gw/RxwZft2aXPs2pcyPZ7T9cuWxlhX2bkLNSSMijfI+ytLTKLVg0NpgE4NbIUzZ2aYkxIMuVVCVVn0tYvhqOZWWr9oJHVv+nqA6Ogw8Od4ANtllpI6XJcSko4YSGYHbzn1ksM95M4rIDntOwe6JhnOJw0ucfIA0j+0bQCOlj7maqqsq1MaKP/AE8vtQbPbpJouqbP2wZM+o2OllYxBRoRBoR4toz2LcjtTZrBwFsZ9bRhuS2GnTZ8UxtCX1LU+a2tZyNY7UNqauEfWZkdfIztYEP0sdidrISO4vLKTWHV0QVEK5M6OcLQStbitcyxvBIZNZ6kaZFLy7OEf7GK43hHc3NjLrEwWB0ILW7SnsQOvZrZ1Bz3U0utpZHGetH1s2DY8k4p2dTNjxspq4cI0rIgmuNlbCGTK5jHSPaxuYlezcadFFXksENgIf8A1LK1e3Drg7unYLxZjULnkzLORNMtMDGBWCDM2lvj7mtYmzWDiRYz62iz8lPBEmz8fq5A1/2vaWRxnrR9YEZXBFHTlkZfjsDFcuT5PLdzMa3Z/QvYq2s+Y17zqEpsdRYvrLIYxlpYY1kNQ+Jau5Pp5SO1ra8q0OjGhCEhCEgGiPI7k4qfVAP29LXRa2h0vMyO0i1gI/Sx5j91kdFXgkFSkTE2J75XJs3teGp9nlpDBLLqKR0UrJG5PxKxg50YBPanCE6bkdEo6T6yq9S5supHs2H5a86fWXxujyOxR2HQUZtIOi3ZOLU0bVnobbG7QvkC2lEcSa4fWzQf8dkQtmR21abPoeFZyIYUa1GtRqGz9yYTPrH5RPZFbFD9tye1dcXMr4wLzKK8Vgwx0pMxc0pN6a+XCJCW7OWRrckuWwsga2Drl1txXWjZHBZqR1sjN1XD9tXhwav3uOyU5G7R1WICsgbs4ZGlQU9No5sbQBA9bP4lFp7I5+LROLySv5rojtqiwm1gg/WyKB32naWR+GtHTASARbEqcr3gotR3lNLIyOPLyOhjlg7WND9xf1se7MiOvkZ66wQfo47A7W0kbmrwSNB27xaexBZgNP3dkpkmrEjubAyfVQ1oGOh8yq+WRV0NCkA0EKbRonupx5Ewo+AK9idOdZBADOIJtDpbSzIKWmC9h44jZGtfLI1qQxNhhjibtII5rMODWzQfhBZEaz0jq5FK3Wzsfp0ksq7SiOUECDWzcfmsjJ9ZcR2+O2LtY4P3F7Wx62jRPdTjPTCX1qXDmHT1tAPE6Wb3rwzqObq2kiDx018VYP3NkFBuz8jq5A9mtnQ/JTTy62lEcSa6DWzh4sc9k+VFRURU+05hj19aXCzDe5OT6iwTJHu4Opdnwoz2zWCIiIiJrIMBWaZ5NY/EsjY7lUnFL0UKQufZ7aiQFShSnJMoJSQMwjJVe1HNajURELGiLGmHlnwbI2TSNjow3g1AIz9ZqBfWbRxQcRxCwEs+7sdKiORUWTCMkSR6Mp4SGU4UBdts7KSd764DZ1ZySp3mRRDQ3JcA+Ej9DHBNZVijbpGTQyYnkg8nDQODX5cidajow6YTowZfjt9Z3L5hsLqC6urljLyUYwqkMHEosPvILgGYrVxgttAVKoWGY9dA26EE/bMqksEqJYgcJxkuCweYdrOaKxLtoiBKOtmIxRlcfLQZNSG9QZavMMgnj7ukpx6gCMWLKcZt225ZEOITXzhS3WtNj106+DnKyajS6rlgQUfMKOWVoweK5FdmdxY2gSi42UGBhFDZC3Dpy8uiLnoSYBcCpTwijpy/tGZ0F5aWkcgvuTk+vcnJ9Y9iF4PdAzlZnX2NjVxjBYhi1uBcsJN0fiOUFHFEaphHBVQIz8prZ7KkJHg9ycn1Q1MdTWQCtN63Zk9FmEZKr2o66gIlpjRxKzC79liG8jRwQ5wkws9lgl0LK7t4cRyKZ6NTGsJirZGlGX8JZFMdCLUYbfRWgMhGsqxvILK7JIgw+qJq6dISbrFckNtjiWY4BLX0oQ0ub0d1anCqHhFIbVCmd5mdfY2NUwYLEcWuAbqMkw8Ic8SYWeywS7Fld28eK5NOqM1jeDNBmjLPywQ42lnGDxrErsW7DIL1eYrkh1ucSzGq+WupAxpsyxgi3bAQImH5IruXQMckYQscn3F7GSMcx7MbomOa5vzMxZb+y0lrqrKravM67i9pBkkKtGpaOwvDODBh4hh4YIv5dNxqiNeshEOHY3E7mbFFFCxscX/8LEkjiwPnnO2kCRvVoge0mJ0jWlDkQkwRzQ78gzOOmPQXVaWpoAxS+I+6q697GFiFjmDsnHzLKbGqMhFEpTJzqoMqf+Tto58qliApheP0hNU0qbI8GaTJDJVYrVm1dUgpV3m9bWSugjh2lp1E6wJwx4sZI+XTqTkh6pEkQQUbX2G0YOKRWB1u0USedsRnnq6zitrZXwRQ7S/9ROs25DlqJbKDI7112awhcJyPuUGqWXmZhj2Uwsiytjh6kthtGChkVgYG0cWWVGGNkY9jXtC2hREnMgcZtJhbKrRcdyUW8ik5P5IyjFmXbY5Y5sbyeqesrKjObYKZrDMqueyx9xI2Ny0UJb57XJ7fFrCv5Qtm0r+wsGLX/wC45LAq7RrWRFHrY8ZsMTrxUeZlBdKWbHNWGXM4ODAyNwagHsiJyS8iw8WxHi7HGMenqgCRC7iOMjIi4YBq4AVeYeD/AHLJWLraNayMQaujwjGglr2nl5/WhhWAzxqI6RmCvmfitRHbW8cEuX0FKNQzzQ7N43LamSfySLmF6LYxob74Y50upq5LS5vJpRM3BkHxqriTDWYzOJNFY2p2DASsjZFICNi5hgeCD9bIoHa2gwyMvud1RBhJFYNLI60wtTu1g2gh9Omr+jgN3XBjFilX+fdsS2KrqyjJKqEk6mnh9vBEFGWI60pho+Dj9bIxV1tEhkbdQyLjGQ07aIRk2S2jr66Ttb8dKfCGha2aj8SbEjW0Qjp0sMSbNR+AtiR/BSua1OLmyxuXgn327wyttZnEI3Zn+L8VLitVUO6kRQsBY8o85WzWB0iqNV7PqwSVspNtXJZV04WsexOCkJmnZc0YNwOkRK7M/wAfwpMSq6h3VYUKOWPIPOTs1hdIqj0+CVgErZp9GbNxJZ3PGjxxkeOrTpj+Ij0hUpDLemBtxugU7ZmnP+GjxOsp16jMgom3YsQ78ex+GjHmiZkWNsvEGR9FTRUwPax/wC5zWpxcyxBknbCyxM7ISQjVbelHGMj1ZtNcI/s6wO9YWyQuzCcaI6FtZjzgS2kLZAocK6Ba7HYwSmzpZg98I6DVZj8gJbZtWcJcwjmC1g9/EW3urQucQRZYaq+kNJ7d5BMA0fUmhKGnT/S/kx80MatR5czoBppWhWd4WXC7RojDBZYHA48CHKyVqoi+fzOCceOjQRzYelNX0QwBTpo7iWyjgjUGmtDDJJYiHzRRq1H/AMjmZBXCqrdLwlh/CLjEnVbMX6a1qI7JrOamriQGTNmNugwiWQTQEQER88P8hWeQDAvdE2vJeUJFM+OirWESTKiIicE9SXXBmJwnBBhBHSGIjJEFPlgmhmjniZLH/FyrwTjpxi8fw94/XeP13j9d4/SGO/drkc1FT5FpbQV0bVfS2JR0cr5nBCOJ7h3riRRyo+SZeEUK8gWSOWftzf4rc5G+azL+z3vVrk8cTnNYmkmd+7Xtd4Z54oInSyh5A4yxSGGcaAhGJN6KKaGZFWL58go8kscr7Y2YIRZYqu5GsU4N/wA3kLFi+t93Wt07Iq5PL3lA17ygaZkIDtNt692mFDSfR9pkfy+B7eC+FqcV4eCOTj8F3Wd0LXpwc10JYyLoUQcWJI4flZVmLapyiCR++VwnXjEyTI6QxIiwDYDw4Cod+b3djBd9AUoA8zFmiMwzGz6dSpSvQjgiDSSyQk3wgxyCyNc1zUc3/MZZoYW80hGRhR8UjmyM6T4MlMKm/M3NhkdpoyfukUaakX9k3RFExfRFemM+uC+FfwSSOaKVOMf2Ry8EVdKvFeO4o0QRnORJmVOxeDXZpUuTXvhV698KvXvhV698KvTczqW6ZmlQ5eChWYBycRtzHczdQFjEOlbEtEC495bvlnlNDCKJXHgHXl81pDGMjY1jNpcMXSrptYKQseMzSSU9lb+1InD31bk4SMMsMCuC7AImEm7/ANxywlibRDJBwQIYsIkkix0guemsrj2pE4e+rMnCRhdhgVwXYAkRE5JllgSetZUm4rk4Yjz34LkBVjFOIX8ywrBT4+WUYeEIVkTRyoCY0kh/y4s8URP9UzJCH8WjyzSyu5pNzeLvJgy/9mxsb5bnLwTxslfEvMwTIiouCTCWQhaf6f2GUhkfw111kTde3UdWNxQosguZ0s/yIppYZGyRY5kHtFqwT6PilmHWNlNXig8fm5S17ses0bs5liZczsdrO7eI+zjHh7d1PgczH7OBkfaFzrtGn5KaCLWzuJsNOaS7FmONykN7tpBHNaBwa/t+z3WzcfnszJ9bRiOSoGh1hvOHi1ya3HgbUyw/26Wkz6WN8cmHYxY1BhM5XzZoo5onxyA0hYNkroPvRV/SiPVk4VzVHu5RdxVw2Oygrx/mm2AQMfUKBsgbCNZBJLlo9q0Er1s5EI8avlPyGWTiwZznOVVcqb2xKvm1Eb5Nfx8Ei/t43fSu5FVF4oBkE8PBk4xUBMfPF66R3Kxy648dRfSu6/OcbaEP3A0VibH1IjASgpenP4BxpyZWxQk45aDxLK7QRUgZcJDGPa9jXtk+hdw7+aNOPy3sZIxzH3GH29YWswDy80NZ264xg8kE0ZlnnMZc1KkA2z6tKDDOeRtBFsTJq+MavELCweSJMDpzx7eacrLa63NyAuSLMhSvd6AMTZ/WlBhGvI2gi2JhAEY2M1nSxkcQmWmyPG7LriEE5pkPKOuP1DqmvbBJ8+9dajTRGQAld2LFP93e9kbHPfJaWOU2EgVfX0FTXRowfLsdFcDLYiYjePt6zmmt7GOsriS34gBJGA48j5lkfBXBTlzYsJLbTS3ljPK2uz+FsORVaWdVPCmK262tRFJJ6uyuYBOLGklzlSc8u9savXgjYkZ57kXgukci7pHft8wKSUdEewK0jn4Mf60j8l26L6V3P48zuOgVicGOsWYui7IdF8GGui65aKqoiKqkrGpM6x6q+PswHjJ9C7hPyvtioioqKaXGGM+Z9dYQnjpLH62YsQfh1opopmI+L5N1ZHgRRvFqM4Q9COaxyS8q2snN95O7VjKlmVkjWsVfave1jHOcDldjclkRVUOUTjWTK+4PIIGEllgIzucclBprrIpakIMqSnyE6zmi3bQ7h8I8NdFilU2tphmLq9ejKWzcuzPn6tpraHK5w1aE2ONsUbI2aOyBzD/Z1fFkBo9iMFabzjhQBnkEwZBcmwqUFVZeBaWDA4bi0hqq+YyXHr+C7FfMzW0awc6UOuZXnUgQIwrHENsdoML4dYuvaZVfgJ6q1veHNCKqqq+COJX6a1GpwST6vDzO+Uvmu6FnO/eBaqnCOdF4+skbzMc3SoqLwWL6V3ZEA4K0nTcHb2ITFZASUQVKsk/gimlhkbJETeWhMSxS6rg3mmwDsa1GtRqSfQu6BnJGiL9sc1r2q11fSQAlTTR+st3nsriVArcDPO6pFtwLxPI2Qx77BpDwp2j9jluuxy3TOPK3jv2dRMdZ2Mq5z/xozWCQsjxwd6bQ/wC5VC6c1HIrVgOxWhLnir85NKLbXPnhVVhjVcsx9LcHmioDJ8mmFGP3ZYnc5kkD92fWLRqbtkwOreFT9aTMuLsixxq7va9hjWRWj5agmgyO6jOdvyIiS7yoWpT/AE4IdYBEpVpbWLjAxjRpByK2rBrIOiJosdtrtAdBKVj2NCjTkSbPAFmsSz10N+HaQWieoVUROK29ys6rCP4IYef4qiIicE1J9XzpF4JvGT8Kr4K6yWBUjkRUVEVPVyQsk8+h0047rmohtBem46vLAmWIj5AwxBUqRQY/Qsq41e/SRdRNRjsYvH5lznlgDaliwgmQmhwFRZdkZFJGH0MZtSraraWRvNzWpDPkCf8AKy3IJ6QUZ8GLW5dvWuKJ9AyWxrLpWS+ry27mp6vqwU9FeXQMZ0+QV0tddRwS77Ah4wU87Pe2w1722GmLzNau+UiCFOMuz0iCI2y6mckD+75kWsIJH93QYtbQCR5LCrWPIi3ux+yeDs4jD9nlPbtHLilmBgjDuOe1UfV7kI5c0NOBklUzHCQLOsq7uvshYZotZ5WkDnjXEEl++w7Aep9sz0hEsFwDVG5PapaWCIiIiJnzekTRm7sytT6yrZIHVwkEU4vtfH68aTMDyq+/uWU1c8t2OX8V2G+Zuqsft9oRaTZhbwg1JMKUU0tZhqTDXFp7Hqnly43kDLwOSbdDAgm0OVX5kfJOyKkCpKqGproRY9Uze5zy5nT1F1b9ZVHg8EMXOuuHD4b5E/f5zl4rvG+hfDWWCwqkUnrFTinDSpwXhumghnYrJZMVpJF4690aTXujSa90aTXujSa90aTXujSaZidG1eOhhBRWckG5jeVvD5nlohZT7AqSPZ5dcHyVcu0cjntRYdY8kVfjILpjs8tCyehUD5zfAFJHZ31sVDSxmVncmE2fcpHd5A3FTrAjC8isLh5zS8mzSwDtpRQai2WfHobErHMov7i4ZBrJc1jq5XCiSZfmELGkSYvkrLuCRH5XltnW2zhRDs5uZXMYBtGnepNYO6osA6HEAZiKO/yq8NckPz+CceOnWobTmhr6rJ6RbmsWBlZBn1ZH2Y9niOSTHwEO+TYVFdZJGhnufjeisaozCHzkC41RiTtnH9z8b1X1FdWtkaJLiNE+dZ2+79P2LgtR43SRBSBtZiWOse17bClrLJ0bjIMWoB5o5otPYyRjmPfhNP3HXGuIK2hyKqlnlyoSxnHr6nWW1i2NGTGzGrBthShzISMOVA+CdMOovp0MKMJC2EcsMU2B0BOJiDRT3UomrKkrbPk7oOhqg2ypGDjFMCQk8BIw5UD4J8TFGikuZBdWVOBZtjQqupq6tR3baOLiCDIJkwavliAnPn9Pe2nIiiw+CNivdw0iIicE8HBNOYip8+FnKxPFUn+Q8nrHs5tKip5/Ljj4fFfmXJHbVJ82sAH62QNfrIAZsfyHqj31ilxcyERbQCFEqq6vjxy6PqRn9tkNhbXjhnSVb5QMOjklwIfq5DG/WSRdWgtG6wqyZXe2CH+ziCas22kItujgwATcQE9lY2baPxENLTIWKTkyRe79n1NnSP8Abkypd8bHKyo0EEHDHjgHzkjrZGSmpDpLAkNDK4IMIOKAT0F1S986KWGJr2xsa/7pkGNCXjIerRY1X0rXLDuiriqi2fMHvNHcUJNAgQY4IsQw/gLhdONNC0AGAAOEWDwWwJlybGE9rWsa1rfTWtggQ/FHOVzlcu9EVV4JGxGN4elHaiv4+Py8q0zuYuDvWK1F81h/8dJ+uk/XUbrqM11Ga6jNJG5U466T9JD/AOWta3y+bnM/RxwpNbNB/wAdkQuY03tSperMdg7i8rY9bQ6sgoMYuHHc4hra2MMgTKcmurTp12VtnXG7FI8Yv2UhU8zjYusGTFqLrOd0o7qpYDg8obasKazPDCaWBHNWTgsqji8buldNkWXzXkLARcQonUtfMQVizXG5QG92nNbaZYrVz+kYNNAePgdx3tZ2knobm2LryRuEcjJGNez7TZWpJd1HSgXTrCssKkQH7nI9sbHPceY8wl8q+AeP/svje/h8PlyO/bfC/kd8fGKQ4eZsjY5GyMa9vr1818DPob6EkQUpiMIGDEEarRtRVVXBKk0Wpcfo5ZFkfAOOPH04NLQ0rpOouo6anie2SOWKKaN0co9XWjSdQfRdbXm8O6Eqq0JeIzmte1zXQVdYNJ1INRVNVDKksU445Eaxzj1lcK/qD7z7kyxtfZFSfOZjVnWqvzDAhzYelNDDHBG2OP7TQMaNlORuJksRC8yYU+vmInCHlI+5ZGdwRorPBGzncifIdJ/4+W/6l8DJns0hTf37iPSSxr4aUrgqwO9b5aV//iWNWrx3sYr1013BETSKi/aMotVq6YiduAAdCocW/aVPxlrIEbx5U4/MyRSxpxDIx5mzwRyt+0EAhFK1SJgQZ3Rum+5TzMghkleRM+eaSV3gHZwbx8SuRNOcq/Nc3m0rVTxslezyaQxfNZY004lf+sRskb2v0KQwkeOVvqrW9BrIuMhmY287l6WHmlGwm9xpURU4LJGrF0xivXTWo1OCaykmYSpWSITLbkdU5qfJQbJOVfsu0klzpq4RouP5OONDDFOOdYZfAGT81zGvTg7uIOskP2WSeGL8yS8po/rflmOs835xjTfJ20DH08l2i0aaXaRUfsu0ms/b+pNdr+pFVpNo9N+7dolEvm3PsdXzZm2NP1HlGPSeUdvVS/ltex6cW/Z8mL5Y4xmovgjbzPRPE56J5KvH0HBNcrdLGmlaqb+V2uCp4MaL+MgzvUZDl6ByPFCKtLEtVWdm7A5eBRsWnt/fcdeQR8WQhX0fwZO1zXNRzWN/fWdy8Aw4tz/p0OcaKvGCizR6yMHsvseWj9TMKHmsTYgASCpMDqpXvJuSvnWoBcVwMYH62YiCBvNMRlmOj8ecjaLTR/le+9wT+i7/AGhlfl+x8+J/O9xraf8AVR7N6z/8sez/AB9n1MwvGmaZjGPs8m0lK36W11e36UFFTy6EGljjXz6EGlDEXzdV1jvqdQ0b/N+K48/zkwjGn6k2eUL/AKXbOBUXjB7nZFB+l7DaIL+X7azwX89NoE8C8Dh9oFBLw6g2RURPDpNe17Uc37BZk9ybNJuTeM3zdukd8eHqVY3SNRN3DjpzeC7wZlgLgkRF4px9Pkli6vqJ5WbmfvuxIjo3g6brGFZAiWt3UcKtroldrOSOeyghTT/Lfhlk4usWGT0jnNb8XdyNx4fNyKjdaxDPhmo7i3kiS4jjZGxrGfOVeCcdB2IhqypB6gzIqQPj1ydolWxeUb3hzQ/9F7Dzg79XDs6Ec7nMHwvHINQV1eN+R6hURU4KRS1BPHrEYHjs30u2fyju5q/stoQH5XvjkAP9yEz+hn4JKJaVpv6b1dqR24E703J57428rGpuf9S+tl8k3jN4v46rJuqHH6fPlX2cIm9vnuGncOTDM2N7ZI2Pbq9AYJN1G1QbTiUYrWtY1Gt1eFd3bGTJp/nv2fqvcnp6Q205VWOF73vXi4j812hLEoVU5AT4jIuZnrK6qLDtyZW+kMtK4FOJRm0KniXlG9t5vZ/ovc2+sPjah4Hj4/BXi14IicBvsZdHTmce4L2eU8vxH9gZpW/oPe/Iq74WoWc4+VwR0M8E7EfD6fKJ+EcEO9PPdGnM9qb3/UvrZV+PDeO7hJw1Ry/GaP0+f/28TwIvFN2Jm91TwtXVmW4s2WXQ8z4Jo5WQytmhjkbcm9lWFT+LZ/8AqjvR2ZCwwcG7iPzXbq8twpTJPW2FhCBCkso8zJ4IpW/PkljiYr5Dczx4TimnZvanKrKn2TnNp+sD2e1MS8xQdTWA/pftZ2M0R3FZpsBkGestT7Qzqn/UgZ/TzqjCRixS4+oP6TIZepYuTwjJ+Pjvezj61/1LuaxzvKKDlXitVJyGx+nz/wDt4ngYv7bsLP7eyUd1lJ0gCnpux+TnqoNZyf8Apwm6ev7eDZ/+qO9Hcr/rRpvI/NdvBcrghlX1dqEpoMsDasSUMKKCX5ht7Tg8e5K2hgo7pg95n1r+THgRJTkktQsSx8PgrGta1ERv3E+lqrBF7onAGxSdar7/ADqm/UgZ/TkLyEjFilR9Qf0J8nUNJf4EXQvk5fA9nH4p6voc/BVbDGm+B3JNG70+f/28TwovFNRSvilZIws5huOPJZux6dkNPNLJYmvONnJfpV4+DZ/+qO9HZlDzztSLcR+a7c1FcqIkEfSgij9aLcREnzCJ8ickYZnPObnVANxRnvbkll8Kr3by6z+NkFgFEPwWYUEINvKN94PpaqwRe6JwBsUnWqu/zqn/AFIGf0xC8pIxYpUfUH+a5eDXLpy8znL4YFVreOkXingcxF10k10k10tKiovpFVE11P8AwxnBPj4Y3c0bHemz/wDt4nhavBd1NZ9MI0CTcfZ9OmaDHp6/t4dn/wCqO9CUYOKzmlPtyC+LUY5WuRUa5HJxTRH5rt0pjoHtWKluorGLgvrGU72XLzk8JuT0QXFJZ9oCTPWKs5doFr5j7PYpH9WxCxujB4dH7+fS1Vgi90TgCRSdaq9oZzTfqgM/piODSRixSo+oP8ox3KIQ7xR/QmkVUXSKip45f29G6T/xoZvFyr4w14iwL6bPkX2cKviY79tIqoqKkEqSxo7T3oxiuWR6yPVyuXh4tn6L3J6+gsL2OLjGPLNLM9Xyar6OWfg+fsBOikSSUzuP+m+gMfIq6kxriK9GzwSwSvilgnlglZLFS3UVjFwX1dtcNrVh4+AzD7axMIcYFg+Pi8FdAOOOzkh/wU+kqbHj3ROAJDJ1qr2jnFL+rAz+mI4NIHKGKj6g/jsP0Bfij+hN0f1eOROKeikd+28b6F8YH6OD01rWw2QUo0heKXY0itT3fu9e793r3fu9e793r3fu9ewrn9xqm5ifouquJF5W+w7nS0F2uvd+717v3evd+717v3eoMYvJno1KCljqA+l84owcVnNKfbkF8WpoYWcmTkiApoBuD3+G6pYrGLik8Eo8r4pYJ5YJWSxUt1FYxcF9Vc1K2TIWpG1WRsav+HH0VRY8e6IwBYJOtU+084pv1dfn1MSqNIgJHJjSSDM66U+jmSLFLj2rURPfuP8A0Jfij+hN0afDj8jgmuVNK1ulTgvD5yrxVd4q/ByeMH4BwesjuEktXgekmJhh+tbWDUdiM/4a4pw46PvY4uLB5ZpJnq+TVfRyz8HzwQRQRoyLcqoicVltBWLw0uQCtfyuGPFK/K1dUsVjFxSeCUeV8UsE8sErJYqW6isYuC+psjuxFdPoEpCxIiP8SsKKosePdT4C8eRZqn2rm9P+txi8gDyN/T3Tt54JW+KL6E3R/T8uRq8ePoYn8r0XxjJyjwp6wenWG1lOX0R5vS/02KqqvFd0rpnwLE1UVFVFGFnJk5IgKaAbg9+9zmsarnGHSEOVE0R+a7TXOaqObT2qkp0ZdXVLFYxcUnglHlfFLBPLBKyWKluorGLgvqLIPvQ5B9VwihBxDr/iVpZD1gMxc62mWZIvLX0+FVle9s8++dvJPK3ww/Tuj+n5728F+U9ODvBA/mZ4WpxVE0icERPWBXCFWJIfonORrXOV73Pe5y+ApwsMzHkQ5RTwRoyL3wrde+Fbr3wrde+FbqW8gsIVZBuI/NduhldDKyRsb0exr01dUsVjFxSeCUeV8UsE8sErJYqW6isYuC+nOK7QWWfVad34jZ/8Texj2q16IiJwTwXEXTsiU8MK+e6P6fny/t8p6cU8EDuEnhCZ1C4W+tCp1FsijPRFfppvFecOjF4qf8iTeR+a7fX5jUMRopA5I5LOeDV1SxWMXFJ4JR5XxSwTywSslipbqKxi4L6Y4XuxJoNVYPYCNg/xnJ4eUqKXwxLwem5ruXSKi/Ol/b5bk4LvT4L4aWPmKV3rYLhJrSUH0Tmo5qtWSNY3uYvgK7WSdjZx8doiWc8XunU6906nXunU6MocfCi6k4RIvdSRwbiPzXbppWwxPkc9yvc5ywzzwPR8IGcXA3BJgM6qCOCT2VeDdj9QeeCUeV8UsE8sErJYhMnGeI18z8pdx/BDlEarwmGKHKZzw+isTUBDkI1Xl96JER/jORwdQDnTwJ8N6Kqaa9F+bL+3y5U8l8DPob4KSLlHe/1sVOsdu8/0ZwfXTnY5rmqqO3SxEtHWVirxX4wETQPR8Vfdwz8GTatsnHF5ohiSiCpVlnaqtVFQaMuQRk8miPzXaZG+RyNYNjorxnNOO2fCv4uDOxS7C4ucqKi8F1CRPA9HwzXx5LWISCvcN6i7xSphZmyxBFxmDsmZ6GzBU4R0Gq8XtA4YP8ZIiSaCWJZGOje5jvBEvFvgbJ/5+U56JpV4/Lk+nwQLxjTeiKqoiDxJFBGz1plx2tiOIvo5YIpU/GtWNqMAaP47j6SEji+GceYeRWSvkYxOLprk+SDt00KGSXKkcFTjQwnLKRqSuEkXiq0QLn8ywCDDpwi3m1FYcnAk/Z8K/i4M/FLsLiruVePDUESRQxsTwYwQrZ5YPRW9slayF2o3c8bHf41kIvRN6ieCJeDvDGvBfkvk/ZPmO+lfAM7zbvqoOqU1fXWVN3pY5Hqb69BSNw8bnuevF2oRXP8Ai6kOAjiaOnyirMET8+3uqgziieHHWqtkz0VvT+0lh/xu6D7oF/DwtXiiL4GfUnyHP4+XoWO5XIukXinHdVD9EZHL620OcAIs6AFd2HDP6JVRE4rPaMb8IlsytR2sqfXLagwwdaS2yMo3mji0KGSXKkUEOIowfi6ceYeRWS6r7mcbgyT2mGsKSpLcTKv+nJeHslVNCZBFIqNIRUVEVNFWYIn55eYwt4oKXfWhXFHboX8zE8ONBqyOQl3oWXCvuHAJ/jdyF2hjuHghd8eHgZ9SeORfjw9BInx4+AeT/ooA3cENb688Rpgko61wSAitgT0NiUr3rE3fNDHNGrHkwOgmdG6pxskzlknECGDiSODRA0BMfJKfSzjcXxsYr3ImmtRqcE0R+a7cPdFAjyNYXfWhXFHee6GCad3JELitjN8ZbucEeTtgRjJYJefQ0zSIerHurKKYhzZJ2ta1qNb6ESnYPYzmf45bg94I5qKioqovgY7mTjvZ9SeN/wBS+gcnFPDUCuHEar/Xi3EstvMFJ6CV/JE93iI5YpoiNe8B+veA/XvAfr3gP17wH6ZKsz3yruI/NdvaNNJM6OITFLGbgsomK1sPBZIoYYWcseWZZ1ecEDWP4+RcEcEFBFEFYNC+qrnrxWEEOFeMforQ3sgpZ0qy5DAo53/45kNb05O6j8EbuVd7fqTxKvDTl4rx9C9vH476Gv683Xf9gdUQOskO9CSnMPKniNX8LE8Qv0uTeR+a7fXxNiDgRN2WZZ1eoADrH8fIuCOCBhjhDxjwelsa6KwgSKQeFo8EULf8cliZLG6N9kA8IhWL4In/APVdyLxTj4FVE053N6NzOPxQIKQshsTYII4ImRR/YLUggYGaaCmOU4COV3oCoFgmVvhntZ2HdUepyAM3ljm5Ga5Ga5Ga5GasRerAvJuI/NdurQ3FlMZvyvLOr1AAdY/j5FwRwQMMcIeMcf01fbEl25MLf8JJt6sTik5GdY7Dx5X7RYXu5RPejLyP03W2jz+XsvaFN9fuxmL/AK/c7InfX7lXmvcq817lXmvcq81j1IdVqSpPyDwYjYFjeSNKNM6KXwRv5k3Rr+3gk8/SQwyTSNjYADGJFyp9hkY2Rj2OBrxgY1ZB6Agdk7OV04U8S7mRSSLwYXSlzCOSMgacaV0U2qnJiBeWIgUscuJJYN5tZ1FWSGSKWNeDyPzXaEqTCVTQYUIkXJHrK8s6vOCBrH8fIuCOCBhjhDxjj+mVOKaCrBAXSrB/gpttWgJ/9UZtDq415BPbGdWX6T3QyM7+5C7PaOLh1h8boRuHTZHHG3lZ6OzrIzouGp4JYJHRyb0Xhpj0cmk8/BJ9Xo443yvRjK2uYHHxX7HkZJ4nbTQjzsIgimZ6FWMXzRETy0bXinRdOe1x4oHmkZoM0kOVJIKnJBjeWObeqIvmkUSLxTdleWdXqAgax/HyLgjggYY4Q8Y4/p7WwLdbDBh/4GZYggs5yjM/HWTo1na53c/GYLZ9VRfiLEra8JOAvqbKshOj+JIswsqxy70VU0yRHeCT6vRQwSzyIyOvrow2fZZ4ISI+nK1I2I1jfTW2LwEc0ohA040qxTaqcmIE5YiBSxy4kkg8GWZZ1eoADrH8fIuCOCBhjhDxjwenVUTz7UfrpP8A4Fa5TTVfM2Vb3LL1VbVhYDC6Tr2odeCDHyC+tMCHMi5JbCrICd+LwNVFRFTdJ9XoQq+ct34BAoRI+WP7NexlCWYp0LXczWr6c6vFOi6c9rjxQPNIzQZpIcqSQD38swjXrKTPKv453OSZVQow+cKUXRI0o0iskx/HyLgjggYY4Q8Y4/qMlcTPOIFFBF0YY4/8Aucsqarma/qZjkn0VOE04HB8qIiJwT7A9jHtVrrHHVTjII9j2OVrtzJns8kKk/dJlcnw+e1quVEQGjc7g8ljGRtRrPtHtATvEE9TbYvCRzSiwV0zTOkRuI/NdumBHN6ccwYY4Y8cA/qCy4BIerPFLHNG2SP79bX1bUx8xTrDKMocrAqXDaqs5ZHfZTK4UxvCU3Hy4OLolRUXgu7jw02b/wBkVF8vlonHyEpSp+DniADCp/p/armnInLgKDbzcreb1Fy7/WiTeR+a7eE9XhjuX1F3VmnkjI2KNkUbI2ffJpooI3Sy2GYG2E6g0FThELJO7tmta1qNb9oKrgyvzSsZkTio84RY/wCbuRVTybMv7pI1fkQikT/lj4/I7gs4wAo35f22xu3A2EMMiKioip6e6Z+KJ+8j8128aPpDwx+oubrsFijjic58bHO++XmSV9NH/rRVd/lcrCLGurAa0dIBPtioi+c9RXz/AFS4vAv5UmNHN+h9JZs83AHN80HLTSRmaYOY7yjqrCTyZQFr9UePQp+ZDVgw/SiInl9vsK4c+FI5YYo4ImRM9OUOhELmLJG+N6sdoj8126kr3TTJO/1D6gN57TF++XeYPWf2fS0WGshk721/yzIQyiBWyQUxk5YMck3pyQ4SE/FLUEtX8ElPYvlXgJjyIqOJa1rGo1vp2JY2d1zL97nnhHhfNMbb2uUlOAqaPHwKaDkg/wAuKJjEHkmfW2UFhB1GfcFVGoqqBdDHEzQx/e7CwErhnkFNZbZmUjnggCgDMHG/y9URUVFCo4AzpSI/t6qiJxU4RpgskC1tbBXwdNn3q1tQ6sR5BINfYZcah9hDDFBEyKL/ADKzHswbHvhmK5WNV322/W0nmjCHAFcIJFC771a2olUHISRV1Z2UHJaWjGMjY1jP80tyihQ3Sj1NvDYxrw+1SyxwxukkCvZzrPpQ/e7GwGrhJSiK8A7LbBLGwa1rGta3wveyNjnvBsQj2SPF+0RW1dKZKG37LHb1spvZx/JVeCcdAWtdYsVwnpRwRRnyuh9tAIc4R32g+xGBi55h54DRWyNFEHEi6cH3ogiEaGSaaNhWZ2yySRRRwxMij8L3NY1znGm2mX2/aDUFHDSBOHj9NnRxE99GIPVBdjXCjL4c1yG0qShGBhSPlDGkf8nKcNlnlIswsIyWWxjeEX6qqvpzTlHf8jM8iLcV7Hr8Ww/2RI0uf5KpxRU1eYubjrm2NdjN425rWzL6W0oxT/x6jbGKM1uhyYCY0kh+ywmDTySxxF0IxZ6EysYxjUaz73amFZXbJVgghDACxDD+LK5XxY7ZObs1hYgthNuzXJi6roiiNq9oL4kn1iN5cFySCWW/LMhWlCjWKCDPrAZDWYhlRxhjq6w35qeYBTtmFCPzK7r4WhVmT3tVbIFab8gtfZNVOWgC5vexvKgrrfK6q0jFsdBYmd7zSWhvgPMjBCIKkGtMxvy5nBZQTayPEgtBZ4xqaCeRb7KshNljrG5BlOPnRx2ZRSOqCCh6fIcrO7gUWe2y+gMi70QuIoOEpk2RZDkFk8WoKPzHGpYZDK82E8KAqLQKIJnysi8BeUHQFERN97bDVNYSniLNJvyjKrBlilVVFj55Vjqc/F79LoBZHZBkdsDlUkMdm7PYon2E2HZBLcBSoRZXttVZYkM00rIIZJX4dbXVtbkPn35DbzAtiigaHlD40lSisrCaVw5lqmQ99L2gHtDul7SrTIu+h7u7tfZw7VbDBkxcSENo7oiYhwZmTGlCRDLA2bIrAeN49JcmIZ2ZmsYRC8zfLLrIrf2RVTFIAmcXcKlw1dxlVbaMDsd9idFXgkFyj2GZZHLNIGLkuQUdm0S21ZQsmrzIn7NpXIefF6eeCKeJ8UgNDMDYpJDLPDDy9T7E+eGN8bH2whBYbooKmlgr05vvuX3U8srKOuoKSCmAYOzx5f8A8bstbNl/285N2Y4uRb9AgVlrn1bEjZcYy6O6e4eXflOTw0rImJDY7QCImyx4ws65tEpG/aH/AGFusET/AONjaucOBtju7l33tU22rJxFEEzmga6EatzwpprRLfxZh/xux1s3/tZutpX66v1af8Om1s0RO2sl1tLT/Rq10F/wyPWzX9VY62l/pa3VP/w2HWIzX8Upa1NyJnVwM0cnFQiwKMUYrUfx2grw8E2T10M0sTveyr0AfAfB1od5Tjm5sQ4EuXaCUNMO/BqS0qvaPe3v/P26uv7PZ62afn2etpFfzQhnttb7qYLBJrAK/tqXuHb7+nksGxyQtLygNiNdT3zT5Fhk1jf95fuy/wDOE1ARlCQRJGFV2/tiMsjL/wAkTVNw9lB6n+GVJuw38OWyIusgqEt6yUTQg2dUMawD1Wdk96wO133FmNVgSlThZFmFq18tdlclzJYxLas+hujPgIRrZv8A3Qz1NrUxWMbUdSgmhxSsIUoZJ+gvrpyYBo+eZf8AUiXkCxyZSO5O++5NfR01e6RMOoXixOsjPkHiMNCJFfjVq/G7ckQ8ckcmNJIMwKyYCaMoBNpadL44NWmkW8trJofI7+zyLtBdbRKopxMFgwbaFJPFHDHjbZ25wxs+rTJb6fJJga9jVaxrV2h/2FusF/42LvynJriC9cFXiMnjFgZPkbbj2a51VX7QTBIVhsCpDsvu4nw+DOMisK0oQcKg9oLUivPuQFsKswRKW/PxiYkabJz7CykFNKaI02gYK6usbbETSYZzz7bMDx4oSBWh49OM3Zp+qstbS/0tbrGo2y4yBG4WWyw21n6xWbXNpNCPTgMLjDgaXeZHX1ED1fgtcQdcTWs3gkoqmWR8j/d2m0KIOJH04N+T1tjU3yXQpW0UicfpB4z7ccAsttef8/bq6/s9lrZp+fZ6vq/2jUGjahkKLjErmCDRiiwDx6gu8kXIWIur+W3HcyYRMw/00448KTPZOOdp3eUlnJJqoyCc8xIH5LWylwRywi5S4cdkMtMVdGkrNNl/5ImhrwqtDghkpoCbC27yTV5CTjuUofHV3NfaQtkFyVLn2aslUBtCMFh6NhK47Lr6KWPWaZLZg2kQoNU0xtcKhmaVpNhSPYPjuZtqAOxIyss442Aspn0N1mGUhwAzhC7PqiQUGY2b1Vpj0JsjpmV48o4cUUsd1XPnkg9WUcII3mnDMgNgSaEjHHFnyzTwQxwRMij++zzxDwyTS048uUXstqV8q8xquuWJ1sYopKQQgd+u2H5ubdZuIbXFqPgmPFAPKLM3MhiYqqzUz3Mikc3DcesIrUg+x8NFQ2RGTy2J+58MMi8Xta1qcG+CwobK2y9ZZ9z4onqiu3OYx6cHNYxicG+BzWuTg5kccacGaKwaI64KNLGGgFhZDB8tsMLHczfkdNnPz7+lEq8fEscbl4rrLIpZIReSqj/2sRsiIiJwTVhXB2IzhyqXDkp7fu4dPhhkXi9rWtTg3UNDZ2GYSGF7lhiV/OunJxaqaptn4Qr2yneXrTMcriV5m/hhh/CJlCOlSIn01pbw1rWc9PaS2DJnPOoxDimTyjijix9OD1mY5AVTDiKN/UO+1/UO+1S7QYyJ2QWHycntpamolJhx7MbuzuBRJPSZacRa2MFADXgj14cIsH8CyDwSOY95cUkw00TAQcgFLhY4wpgg0s7wr+vMkbEz5xho4cXVnAvBDiXQxXDbN0DEBp6+xGkllKlHgm5Or6/aQRzWQUGsEogLKM6UwrCMenhcxksaxSyRrjksk1FWvktLysqmI4t+0mtR34KfKqi2d04dE7QKkcmeBxeW1IYQxM0O0eqfIjZRiRyoGTwbSSOWvBg1s7H6l1NKs00UET5ZS9oVLC9WwjbRaiR6NmGJHKgZNAVn9WKTOPIAZEcHAVFcW4tQEpRAOd1x5kAsPy8iuGVFXMRrCad8Az7Ir+CXsY9qtfHV18U7Z47INxocg6VtNYBmMe+zkMjEe4SssbmUtkRVmd2Ajp9VuRNOKbBqwOYCMs7q/IRziWwMsTkBFdOtbkSHGMH1ZkFDiOkGrDbyctqFWgxJIixj1VGSGV3EpQsBUXTmgCEH/J+xZqR1sjN1ht/RVdS6Iq1z+qhHegIYhNgZEPDZGwY9RI5BR7HILZGabs4quhyuKgIq7KWLQh7ZqqA5z3uke57qvBJbAeMqzyWgfSGti1s2NkXvg12kEc1oHBrZoPwgsiNZlV5JazsiFpNnrXw9S1y6iGpjoYx9ms8zoLKFczG6GRnawqXqY2DraBbdzZMCZs8puVktpL8sjjlOVNgRERERE/hDkYi8dPYx6cr2DjsdzMVEcnBURE8vtFmR3NkbPqDALqcWIhioqLwXFKipEroChNpZDuNaOlMDfTrLLVezdoGpcVymaR0ktgj6zCpI30g7SbivhdraVO1xlfAmzWBVnsZ9ZmR18jO1gcKQY5HIt3tBn6r4ayKfPLJqPitRTxTXxHbOR+SoIm1tJG5bAEjWIW0YGJ2BDwRSbe1jhQUaEUeIeH5WZXPsyoekeI0/suoiR/8AHtmR21abPqGJ000cTWMbGxrG5lXdhekcNnVl1QiAX7SAJXxBGtxDJYaWQiMiy2hVkY7+yx7JMptbGIdu0Ijp0TY9BSkQEMJhXaRXdtzIcYZbWD55MXp/ZNTFC+xI7mwMn1JDIJgyxx10w8B4spBGd49FAr47Q2c6wJKnxAfoY7Xt1tHG56oWfSGzoC8NNntN0oJLOX5cX/yfL1k/j+zBbYAziOD2f14pY5Cav8aEvOh1qXDhqg5pUM0MM8T4pTdnFfLI5ww+zUNrkUivrAa2BIRNpZH4q0dNntfCW+1WafZsG6VVhpcTqqhySxyM543s1/Tau1yM5OTR2zmvmlc8WrwCrDlbKQTs9BIImmePCwUWGFueFCR0M0MtRWy2diOIyCGOCGOGL5WXW3symmczDqn2bSw838j5xX2x11zQYFWkBVhCkfIzNtnLUOHBHxTISJEamMYxFSROe/5dn/8AIMxgBT+X7Y9ldWlFuwAB7QiLGb+QTLEAHk7r3kode8dDqEiAhnPD4rDOqIOVY0pcurrglR4Cixg4HzkS7RaRj1aynuBbcVSR/n56TLOtdUQCDRiCwDx+isbitrEjUwYmEqCOeHwmnhAxdUr3zxrcWaIFEspK5ljSaa5r2tc35pZwobWuIhmjniZLHos0YNiPnHIhJhbLC5zWtVzrfPCZiFFpgVmcEKs3pvfmB9r2EPiZkFPIf2DfknLMgRSw1GeExEILctc17Wub/ke0gjmsgoNVOO2ltHJIIfiV6AO+eaqtS6syMgdj0exr08GfWcodQ2GLHKJ92eo6Y7i49G4hzM/s5CLbs0xvC/a4Kly1NbFWV44cfz6n/eM2ON9JtL/IrNA5VUVFLVwkU+QVlw13a290DURRylgmQHCREwzZPVQ2qVr9Zo6QvKIxHps+oERN20CWWa9HHVuz6gRERWMSNjWIdnFAJKseqjJam2crBiiYxRpiJY8zoXiTE6CzmhLmbF4Tb2uDesbxMhrSpEjbozIK4WVYnZCeMcCNJBSf2oPRt9XhyLG+/sRTqyJ8GO/2YXW0KxkGrIBo8IpoA6qEtdW2UU9VJ0iIdoGPyPRroZop4mSxb7S5rqqJshcW0DH3yI1YZop4mSxb7LJautMjEIOziiDJfAtZbAWkHWE32NoBWQdYv+odDzcNVlsBaQLKJZloFXlkrs8rFnOIsJPAWWMGPIQRDn2PyTpGtfw/qC5UkkjijdJJNn+PxScraq7rbWNXiW1wFUwMmKJzSiHGHnWnyWqt1cwZVRqKql55j48qxpU5DVW3FBdZvSwG1UpabPbJ5NZMK/8AyPNSOtkZusBbFBQI52S31cFWFMWjpyLY+MeK+I7KjPkZVWNwVZgwbs0uD2X5EUGMEHe6Z5Uh8tm5zGHAJbpzvBPdexYlVMZNJNLK981bFkSvFhhyC/FpRElkKyPI7cjkY8jIquViyYdlEluyQYrPj5xKiFIKfJTwp5SJm2FxZ2A/W+Ren+z6g0nWAg9vSddfR7S/yKzWN4tTz0ws5VfF7Izdg8G0n+3A6xL/AI5W6sv/ALhx6yzHCLxoaQ2NLMBbpXP/AKbWOsrx+e7HGjiuKWaqsGhyf02sdZbPMFjE6R4fDi7AXzWORvrA7kcqlvXc+P2TtYJTBWc5jy8zxaOBws1ZjykrSV/cbno5WORsNRUBEPU2/ZVI+F4MJEnsVk645XjmkTuIyWtGEbDJBVP5KUd+qAKI86VSclrBRYIpYMd/swutpn11WqL+x1W6RRIsvKW4nAwa2ibEPS1EVQF2sW+/xoEi1Swssghwt9TP2WzeeR1cbEu/aErkyAdW+5lD2Xbrg4doDePbLv2ktn74ByhSbPpxI49Y9jNfVzuLDmhhnjdFMOKMLH0x/BtLIkSKtgSkxGjdTiOnpB+1zaIdNo5UsdeGO3HMSpZaYWYkSJaTOIxh9pH9nF1iGNVJdLCWW4ZtPm8MA2flSj0PKzFIcTiq2SH2MwFfk8BFTq9/sdrrZn9dr/klmR3NkbPqDB76eCKZlpj9rU8jy8KyeF8rK2TPyOlj7mawgfrZGJuvCO5ubGXWKj9vj1azWcEdbIy01s/H6WPtfoqZIBp5lRHyyImoImwwxRNyuyfYXZb9Y1lGP0wCRrkmYU1tUzCx4Ir0yQbl2lkcZ60fWB0gx5U5RPBETh8naES9RQK+MMZgog47PR7S/wAis1iZ4kuPhcI5WHZ6yQfaPG91UI9MNPEkx4RqPmZYZ9HKPrKP+bM35z/yePdnMb344Vy4ZS4/Z1jlJNB2fAk9sRfIjaCzRNmX/wC333uQBUkMbyKW6DuBe4Gt55IK0mSPHK4E1pDyMlErxXDsGGar8fY1MSnijIIY7LSInNGhbWNV1HA1MVniiOla/LSIlGghTHf7MLraWO9YK0hMVMjLoK9zNSl4hkBiCTZRh9PX1kxcGz8wkmmkZMSREMPLPLWZNU2hCwCaGbHd5i+OyyagxuupSpmbNP0tlpzmsa5zgMrpbAqMYbW0H/kA/giy6jmMaJHq8ucdik7C0IwXG5olkiwMmaC+mEj8BmW0YZcgsyfFNbTGO/2p+sfsgpqMF7aieMjOkmj2lRuUSuk1itiFLQg8HzMsM+jkG2kf2cXWE/8AGK/V5/z9utokbn0MbkxKixyzpoZJpQtn4x7RHayouMWgsHP2aDvSGyIX/IrMjtq02fUMTppo4msY2NjWNz2zDjqJAlxWCSfIK1rNpcypFWQ62dyQNupkfb2g1WDKTMiPkeiJBEkMEUSW5Hc2h82scH7eirY9ZaR2+O2LtY6P3F7Wx7pedJZOcbCsZmHhlbYY9g9asaGY9W4swh5NTnpHVyKVutng/To3yfKL/wBz2gDRelyTHEvWDNU7Z3BM2BYcdxESle6dTQhzhZRiJ9miLIqw4/iQNK5ZU1Z4c0+6bZb7zDm21m01dSxxyxvjkM2cwrOsgVLgoVcQwmewF7wEoXWNYylF3fDdk2NR3sUGscoI6QN8KSRsljfG9+JcJeaB+KwugaxBIO2Ghh0bikU0zpIFxSDtkiQIbtRYYNH4tCRM6WFMTh7Xp6rg+yDiH1Z1w9kDMJOiZHh5UitDnUgQadbrBArEiQmCPZs9Xp1q2tFrA4xRs8M7eglYmz2r7etkNfq8wUWxKeWONgESRTd1jeOpRREMTLDOzx89+tnNXwaTYv1f4g25sIy13XBnZVZpOtndX1jpz36v8aBu42dX+ms3lrH8XCpEe9m972xsc92LiOusneXJq3qRLYNwxEWzRiTosoeFQh3TLGI8EU8WQYmbZonUXo4/iYNKrpW5HQpdiRDrS1iVVYOEh2HNLvktdEjwlQSQTE7OGdZzg6HCwaqdCZDJ1HEJnRUyPMCmc1ZXD1oMAkH+RZg6VMeNbEldZIvFOhd6Dxu9NeiR4vi0VLG6STNaGe1BieN2h0UqN1DjNtMAXYWFFUmyXNe2Q2V0IZMrY6qykkYzTGNjY1jc/wC4fTxQw4NWFJfMll1l2IGMMmOBGub2vZ28IlFkN4T1H0dKNTgtGivhrAq5sZkxcZwtBXRO+QqoicVwZO8tLuzX7o5qORUc1qNRGt321GBbthaWPBENBFBF4LSpDtR2wFAhDgCxDD+CxrxrER4pFbWB1gqDC+MiCMgeWCSpo66obK0T5rmo5Fa5rUaiI3/P8y9sDRDWIE9+OXihlhDg8cQWNNIlqsnAtbAgUX+XXNa9rmuyWtLoZShoamou8gFDjnrqwKtHSAX+XiRBS2IwhERE4J//AFe6WJvmpkCaWwj/AGWwX9u/l1302u+n1302u/l0lg/90sG/uh0K+bSYHeSKi+X8nue1qcXPOiT6XnTL5Olkd5/NRVTyaXO3SWKp9UJo03wb/JUk0cafikOev0Oc5y8V9HJEj9RGlDrw0PZwS/B/8jkG8PwxqqqvFfTTR8ybhLCUdURYZ45mI5n8iGE/FY2eplThIu4ciQeRHNhlZNG17f5CJk6cTl9XP+Yu+onVsqxL/IVgv4GJ6pyo1FVVXiqrvDXgVB/IdpJyOGT1UsvOvBN47uBQ38h5H8IxtCkJMz073tZ5ySuf4RZOewF/kPJPyh9RyOjcjmjlsmTgvo3SMb5uIVfp8/AqoicVlmV/wQD9cL/IeSflD74bCRvwfGVC9Pgjmr5fMVUTzWaNNKT/AOHSvd4nkNTyc9z1+OgP1wv8h5J+UP4EXhppD082FJppD/27h+u5XXc67lNdymu513K67l+uvJpZHr43Sxt04n/1c9zvPeB+uF/kPJPyh/Giqnkk8iaQpf3QlmuvFrqR65m64primuKa4prnZrrR6UiPSlf+FIkXSvc7z8QH64X+Q8k/KH3TzdNE4Rlf+6KipxT0rWq7ycxW+e4D9cL/ACHkbV7eF26WJJE0+J7PNr3N8mF/+zZo3eXoFY9vnuiejVXjK9FTgm6tarjxkT+Qr18TK2VZN3np4rHeTx5G7myyN8mlv/dC2fuk8S/MB5O5Zzm9PtpOfxUD4faPI7+QsueqCjM0PPw/C7wOY13m4WNfJRH/ALLDKmuVdRIqRtRflq5y+fhllSNNVEjktRHfyHlzeIw67oiFZ8Fa9rk4p6iUlG/Bqqrl4rTt42Yn8h5KnGEdNSxrG7hua5zV4owv/wB2yMd5ejVUTzeSxvlJM9/nuqIuQsXj/IWSflD6exr28FkidGvx3tIlbppaf9kniXSKi/NWRiebio08nFPXyc5zvPciKvwSAfl/E4D9cL/IeSflD7lRFTgsgv7sVqtXgvg4qmkmlTSEy67t+u8XXeJrvE13ia7zXdu0pUmlnlXSucvn4Yx3v1HEyPy0B+uF/kPJPyh/A5rXebxGr9LoJW+iax7vJojl+pkMbPLeB+uF/kPJPyh/GrGu83CxLpQ1/ZRZU0sMqa5XJ4uCrpI5F0g8q6QR/wC6CM/dsMbfLxAfrhf5DyT8ofdLKkaajKa74O+Vyt1yN1yt1wT5LI3yO5WSwyxLwfuA/XC/yHkbV6EC7p4uoicHMc1eCslezyYW1fqa9rvL0dZNEx70dZzROjaxN1c1XHjfyHedL2dKsm5Wo5OCvET/AKuiezz00iVuml/+yExLpJGL5fLjRFenGRE5V8dD0lsODv5Cy6RUDHZoeb/o7wOhjd5uET/qo0qaVj089Rcem3j8tXOXz8MkjWN4rUTuS2Ef/IeXN4jDLuiJ4fB6KipxTxcrfRSztZ8Ee9z14rUN42Yf8h5KiOhgRZGKxyoumSOZ5MKav1IqKnw9I+eNmpCXu8t1PFyGDKv8hZJ+UPqWJJE+L2OYvBdyOVvk0qRPNpUa+aPY7y+aqonm4iJNOL/9XSyO898A/wD2eB+uF/kPJPyh9zmtcnBZBXJ8W+FJHp5ITKmkLfrvNd2zXdx67uLXdx67tmu8TSmLpSpdLNKuuKr4Y4nv8ooGs+O4D9cL/IeSflD+B8TH+bxF/wCro3t8/Qoir5MGkd5sGjb57wP1wv8AIeSflD+N0MbvNwjf2UST9lglTStcnn4+C6SKRdINKukD/wDLRok0iInl4QP1wv8AIeSflD7pJWxpxWMhj/h8nlTXTj10YtdGLXRi10o9cjPkqipvA/XC/wAh5Gn+iOu4iJXonBUVF4KwiRmmExu8/P0kPDiupuHBN9cnE4b+Q7YZSAnom57Gv+p4jv8Aq5rm+bXOb5NKkTzaWz90miXSKi/MDibKQxrixIOg9U8VAMshSyr/ACHc1qwvWeLeqIvm4aNdOEd+zoZG7kVU8olVY2qvymuc1UVJTCJW8rvCMPKTK2OMQWMWBsTP5DVEciotjRubxkGVFReC+FURfPoxeiCriC3fgDChEj5Y/wCRjKwYv4uKpS4OKtVFReC+kHCKIX/SDoImcHENa1qIjf5JICFI/Nnx1i/GGaoPi05jmrwd86IIub8uDHiHfGUemBh+KoiInBP5OfHG9OD5Kmvk8348Iv0vxt3/AFdjxieS0VgmlpbHXsay17GstJR2K6bQHL5txyf/ALMxyH/vHR17POMQWL6P/wDBc//EAFIQAAIAAwQFBQwHCAECBQMFAQECAAMRBBIhMSJBUWFxEBMggZEFIzJAQlBSkqGxwdEUMDNTYnByQ1RggqKywuHSBpMkY3ODo1WAs0SUsOLx8P/aAAgBAQAJPwH8+jPqjFTRMMMI+kep/uLWZZP3ilR25QwKkVBGIPLab8wZpKF8j4RZbXd20X/lFpBemMs6LDqPJeuXwuiKmphpgmPW7fWgNMeQm5KQs1Ngjn7zuFXQ1nDb0Guy5almPCPpHqf7gtcDlDeFDUfxwZ16XMZGolRVTSPpHqf7j6R6n+45zvYBa8tM/qUvm8ERMqsYs0pRNrcaXUUIFcak/wAD5S5bMf5RWMWY+0xbLN/V8olq8r7yWagccqQ5NmnvdAPkOciPjyTCqqbs6apxJ9EbtsSxcXwpr4IItkh3p4NCPbF6TaJL9asIpzg0JoHpj5wfDms/qCn+UNdeW4ZTvEeWukvosMxBxmFEHW2PsjVOv+ppfDoNnSZP/wAV+MKbrEgHUSM/fB8F0cD9Qofdy22zo3otMUH2w63KVvVwi0yiTkA45GCqMycBFvsxbYJi15CAAKkmLTKJOQviJyS12uwUe2LTKm0zuOG93JaFN6azm41fBFNXGLQAqWegvtTFiNvCGDKciDUebrTKlXvBvuFrTZWLZImtSt1HDGnV05l1SaKAKljsAhyVDXWBFCDsPm/JQSeqM3YsevGO6EsEgGlw4R3SleoYnrNacVxC0oF//wBi0SlIzBYAw6lKVvVwi3WdnrS6Jik9nJaZQIzF8QwIORGMMFUZk4CLVJ9cRNCKxvI14KQw1isWn6ROAoGJBuA7AInS0OxmAiYjgZlTWLXIeZ6CuC3YOS2yJbbGmKp9sTUmLtUgj2ck6WhpWjMBExXFaVU1i3WcP6JmLXkdVXaTQRaJbNsDAmLVJlV9NwvviYrqcmU1ETklrtdgo9sWiVNAzuMG93LbJEs7GmKp9sTUddqmo9nJPlq2wsAYdWXaDURbrPf9HnFryTUDJKZwpIrgInPVjTwjrifLe4gFAwJoMPNRzlXP+4bvxjJrQleANTyCqtJcHsg4g1EYOsvQ/U2A9pg6c6aFqdrHOFpLlrQb953nkzmWVS3EEiPBEyWRxIPyjKXZ69bE/KBWUs7mm3EisN3ufjL3TB8xHlzy/qCn+UDCVZ2PWSBy+BKQsd+7rjTn2ibgBtbAAR+wdkZtrTBeJ7RGU2zsOtSDyTSiJVZ0xcCza1B2CLIzoD4ZIUV4tEp0E4KQreSQ1aruMZIWc/yrh7Y0nOjKl+k3yjnJzk1WUuCIOGQ4xIVpair3GvXeMTS1nnG6lfIc5U4x5Uu565u/GEv804dV2suI9sWO0PXHHMDcmdImtLmIaqymhhAZ8+xm6taC+Vpr3xLCTLoal4NgeEWe+ivcJvquOes74FHSUL4rWjHE+bqvLQ81IUY13jiYymq8s9Yr7xyMFUZk4AR3Ustf/UWCCDrEd0FE7nzznNOCyhRShplHdRGnPaLstJs0XqUGQO0mO6UqyTEJaWXZRgcDgxEWgT0mMWM4EEMcsKbKRPlyl9J2Cj2x3RszOclEwVPDk7oWaXMXNHmqpHUTFrkyq5X3Arwi0S5qjMowanZ5p/d2UcW0fjDXZfOrfOxa4x3RHqP8o7oj1H+UZGDg1omU4VwiyzTZLPKVABoqzAYkk4E1iU0uYuasKQ5drMVuscTdauHVSPKmc564vfGM0vqepjBxmd8m/pGQ6zC96stG4v5I+Mfs7Pe63P8AqPKdEH8oqffH7GTLTt0vjEqa1+a0ycJdatgAAaeSIsryUSzNRmyqSNfCJrSrKDS8uDTN53bosugwqt5gpbhWHmSJ8tqMOGojXAox0Zi7HGcH7KXLT2XvjEmaVvs89kwqWwAJ1CgiztKYiorkeBEOWlNLLywfJYZ03GDjNtC9igmJRe0tLKSKC9RmwrThFnmi+2MxiGxO2lYq8t0YGVXAtTRPbFmnuKXixpoj9OoRMKTEOBHuO6NFXlq/AEVia0qzLgWXBpnXsizBFYVW+wUnqgvIny2o66juO0QKc4mI2MMCO2NU25/2xd+EWeabNJU85dwDuxvG8T7okNKelaHZDlxKUPKJ1DIjhEn/AMKiy0V7y+7PMwl6bMNFWtN+uJASsm4mkrZmpy4eajjNtC9igmB9lLmP7Lvx5Di0oy0/U+jA+0nKDwrjHlWlAewn4R5ImN1hTBgwarJUSQf05+0wPtp5p+lMPfBwRlQfyrT3wuhammE9t0H+mCVnWebgRtXIiKVWzd8UeTMJoR7I1siDqqT7+VsqTJ3HyR8YtAl80vehcZqscK6IOUWy/OExGRebcVoaHEjZGucE9fR+MZy5LFf1Uwg6c2Yq13saQt2XLUKojw++9mjH7Oz3etz/AKg6FmRVA3sLxMWGXMeY1TMLUNBqjudKo6FTpnWKRn9KlU9YRnNtA7FBMLVZEtpu6owHv5BotOcrwJjMWdCeJFTGSuEH8gpGcxnc9tPh5uak60VRNoHlGF0JOjL3uc+wRh9Ht1DwR4YKiKWYnUBFRLZ6SZNdED0m+MW0TXlreeXcphroaxf5oSucS95JBANONYtJnNNTnWN27QsxwzMWsg3hN5q5sOGNYP2MhF7dL4wtWWzpdTbMmY09uMT8sZkw4rLByCj4RaeelM9wm7dKtnvhy8yzMFDHMo2VYW/W1MqjO9Q3RFuR7UQXaXieq9DG7Na467Qfl5p/bT0Ts0vhF2+VJ0jQUENZvXPyhrNcvi9Rzlr1R+zlO/qiseE7ADiYWiS0CqOEDSWyi8eLGPKmInqCv+UDCbZ6daH/AHD0WTPdiTqW6DAJM2ZRF3ZKIA5w6U07XOcHBCqD+VcfbA+1mzH9t34RkbQ4HBTQQvfJ6Ca7azexHsg0ae6yuo4n2CBWWCXcbQmNOvkzMqXe40jwfpZp6ojJrQ9OANBC0aZLE195fGBpmcxB3AY++MpdmbtYgR5KO5/mIA90LjLRUQ/rrX3R+0eWo9a98IWqoWmH+UVHtjwUlOx4AVjNiAOuDQzLlnU7qY+wRJE0S3vXCaAkZVjubK9cxIWUbgWgNctceDfmEcKxnMmMx/mNYW7clC9vY5ntgC+JcwngSKe6PJlonrGvwj9paB2KDA+xkO/bo/HzX5KO5/mIA90WmXKPNKiXjStTU07It6P+FKsT2Qhl2aWdBDmT6Tb4WlVu2cHfm3ygVeXSao/Rn7IFebbEbQcCOyO6MiW1L0vnWCMjjcYmDviFG1jcw3jVAJeY2JOoa2MeBKQKOrXH7Wc7+saxmLOleJFTC4rSXO4eS3w5P206Y/Zo/Dk8GWhPE6h1xV50+bkNZY4ARbLN/V8otVna4hagvVNBXZHhKwYcRGN6QHHAEN7oFeZnJMp+k1julZ7lK4uL3q51gESJa3JVdY9LrgeHPCeoK/5RrcMODAGLJZZk6XVZt6WpetczWO59lZ2OEpJSF6beEdyObmS1v3zIlrdpvEHwZbuf5jT4RqCIOupMfs5Dt2CM5jqo6zSMgKCP2s139Y1ifLelmTAEVyxw83VaWp5uSBrA19cS3SWtaDmK547IUibMa89Vu4ndBxm2WTX+cqD748JbKbvrCJwly7wFaE4ncIn84qEBjdZcT+oCMkuIOpcfbA+zkInqikYl7Vza/wApuD3R9nzjf0ig98eGbUQ3AKKQ3fHm84R+FQR8YGizYbxKFfjGJ57nD/Jp/CDitnmU40wgfZS5j+y78fNJ1zHPVQCLTKlUkXVvsFqWOqvCO6tk/wC6sd0rMzswVVExSSTqEZsgT1zSB+3VvU0vhyHBCqD+Vae+B9rMmP7bvwgfZzinU4r/AIxWtpeXjsVa3u3CF71ZcRvmHLsz5P2k939Y1gfZWMO3G7eMYsze0xlLlqvqikZJaRe6wYcIkxGl3jkCcq9kTlVAK723DbCm9OmaK54ZAR4cuS82b+ql49kYs7U6zGSKFHVhH7ORe63P+o8p0Qfyip98fspUtPZe+MD7W0MRwUAR5c5n9QU/ygYS5F3rc/6g4tLueubsfvCseCaXwjJLSL3WphJLLMklZfOgFb9QdcWGxS0XNmloB7o7i1F6gYWeVQ784lCSosr3UAC3S42DeYH2k9FPWeQ/YyUTt0vjGc20HsUAR5Mt39Y0+ETkR7iBQxphU1g4earHflLKRFbnEGWOs747n/8Ayy/+UWZJe9pi/wCNYmiewylL9n11zgUAyHIyLeNWkNgK/hPwjubM6qEewxZLktKV0gWptoIlosyfjLm6zTyD8IW9NMl+bFaVamGcWGi1FTzsvAdsZAUECqTEKt1xY+cQMQr84gvDbiYWjpJW+NjHE5b+Syl5A05jX0WrahiRlFnEsSlrKF5Wq516JOXIMDnFhqt40POS8R60SrsxZCy5iVDeCKaomy2lE4S3NGXdXXE6VKl67pvMeGqFuypJEtR+gUPXWBjMLuetsPZDrLtSCgJ8Fl2GLBNr6SEN7olCQmt5jY9gxgVZsZkw5uflFjvyVlIiNziDLE5naYlXJrzyxF4NhQAZRLvzpgVQtQMLwrnTVFjuSZc0Ozc4hpdxGAPJJ5+zlqpQgMoOog7IshlyuadSSV17vNtnmTJ07vegK3VOZizNL5paSlcZs2vq5LJMmq0hQxUV0gT8IlPLYo8shhiMdE9USZxKk3J0kFwR1fGEn3R5U4c2i76YeyMdbvrZjriyTZ8qdMLq0sXyL2ogQtoqCvNc4t0kUiwTUT6SJjsy4YG9DBZqNflMcq7DuMWa1Sy3hXZfOqadREc5KUnTmTfDpsVYkE0s5lS0XEm9h8YskyUqSGulhTSJA90SXmTJhQXVFTS9U+6LK8o80qJeFK1NTTs802S/KSQFBvouNSTmY7n/APyy/wDlHc//AOWX/wAosdyTLmXmbnENKCoyJ1xI5xjPDPpKuiAfSI1xZebRJT3TfRtI4eSTyWD7Wc7/AGsvyjX0oFGlyEDj8VMfbCXp1UZBUDEHfujuf/8ALL/5RS8BemMPKc5mFvTeae4MqtTDOLDRaip52XgO2Jd6Y8gy0WoHhYa4sV2Us9DMPOSzog45HkW9LmLQ/OJYtMquiykBqbwY7nuu9yFHth1m2gYoo8BDt3mJd+dMlXFWoFb2Bz3RYrspJ6M55xDgprqPJYr0qiKh5xBgF3nbEu5Naa7stQc8NXCLDVJk5ih5yX4OrXshbsxUN8Z6TGuqLLzkqXJzvoukTj4RESebmTZooLwbRUfhrtiRzjGepcXguiAfSI1xZebSXLehvo2kRTySdsLWXMWh+Y4RLFplamUgHrUxYJ385Cgdph1mTlNUlr4KnadpiVzkyYyCl4LgDXyqbIslyTLLMWvocbppkTr5LDVHnNcPOS8VGAzOyEuzFDFxUHFmJ1QV5+UpUqxpfXPA7Y7nP6y098CjrJQMN4HnJQVYUIORBjudIDA1BC4gj62dNV5bVmCWaEpT4RPmWgFaMk1y1R15RYUkuR4bPfpwFBAa5erOnnIV95gUSWgRRuXD83rBLLnNlqhPG7SO5yE/iZm9jGJaogyVRQDs/wDsXmrLloKsxixPNHpu1wdmMWAopzdHvU6iBDh5brVWGsdCxGcebDFucu0rqyMS+b56WHu1rSvTtaSmYVANcomB5T1usNdDSFVayxMZ2Fa1NKDsiXcmTJdWUZcev8zz3tZXOkbWYkeykSktE5ma+GxEuhoBT2xKkyTjzqkkLuIzhkLCaxW6agKf9whtE5cGCmiqdhO2O5tE1lJlSO0Q96W4wPwO+MaOJY/kAWHCy5MkAsTgAoiyNPA8tmuDqFDFlMgMac4GvKOOApyIbTOU0YKaKp2Fo7mUTWUmVI7RDX5SyXmbDoit07DEjmgsoIEvXtZNchtiw3RJkEmbzlct1NZMdxpVp+jvRXZxnuBU0giWAtXqcF24xZGngeWzXB1ZxYzJU/tFa+BxFBDAqRUNqptiwCXLJN6aZ2CquJNLsWAug8t3u16qGEMudLpflk1z1g6x+ZM0S7RLWikjRYbDEicKftJDV/txhzaJNaMG8McD84fSn3UkuPxiteyLzhac3Lu3gTtaJFy0qwKESrmGsGkeAs5SOJGPuj9tbr7cC14wxCledm78aKIlmbamJvXpd8KNQWJdxSnfBduC9XOkORPnSUko2sYZ9ghL8mTQBDkznbwiTZ7POV/CC3QVplow8qck2ZeugVWhFDWsS1RTazKRVFBgbuAEWSTKa7dvIgU04iMRaLfU8GesNQOvOzd4rRR7IkJNmTiebDi8FUYZHWYlLL56WS6qKCoOdIY1lSJ4U8K3YrzSqXmU1gaoskuVMlXLjIKE1YCh2x4IstDxLD5fmTa5jy5c2k6XdXIGhGUd0EpTKjXuykSCOfmKstKYscu0xpLZmlox4JdrC2f6QJtVM03aoQMqx3Ok2knwjJxC9dYsRsqTLPMmBDga0oDrzgfZS5j+y78YGjMkIVPDCFsSzBKXnQ7hWDAY1qY7hmfVwiMgGmTsqREu7Jkzbt0eSCuHui0S5LGbzis5ug1FM+qOYnKB3yY4JWuxaERLRJrSy7IgIAGYzJ1RMCp9JEx2OQNa++JqvLFnmsrriCVBHvjKWrufVp7zA0Xs63T+kmoi2yZTyZdx0dgp0dgOdYRmUUkyBrbHPrMEXqS5ZO1i19oHgy0QfzGvwg4zbQOxQTA8KYieqK/H8iiAIdSdx8/M0ie3hMuIbeRtjurhuk4/3QrTJ1PtZmJHDZCB5cxaMpjuiyJ6Lpfp1giJzWkriFIup1jGsTTLEwAXgK0ANYtLTWeXcxWlBWsKarijr4SndHdXR/8ARx/ugNNn0+0fV+kaolh5bijKY7osiei8u8R1giJjWmYuK3hdQHbTHktzyUJrcKX6cDURamukEc7dxxa8cItLzWaVcxWlATX4QhwNUcYMp2iO6ujvlY/3QDNn/evmP0jVFoaUqTL+ArXCnxic0znHvFiKaqUi1NKEm9gFrW9T5RMMzTLFiKYn8giANpi0o0w1oFNcuES792mFaZmkWS7KIOliaU3w1J1RTLrzi0XpdDVb9fZEy4SQb3CLVfoCLtyme+sPcqQa0rlFoZqA4EbYmXKkGtK5Rar6gHRu0z64mXJlRRqlfdE29Joa6QOPviVzj3gLtCfdFluNdJJrs3RMCLWlTE5H/Sa/mbMVSxooJpU7oS+UQtdrStIst2z3tLRphxb4QaBxnspjBmNMXIk/L64YwDdrXA0xiY5ql0BtVYl3mv6WAOHCLNzZlrUnEZ7jExVLGi1NK/mRM5x/RTH2w+Drgw36xFsZnDV0cThvPi810KVu0xGO6J/OAsLgqaAdcXsVreAqBxiYrrtB/MNDMnDVkBxMSyjMMVIp79USb7M5bSxArsEZeNSVbY2RHXFaVJqczWLMwlA0Da+NDqg1VhUH8sFFIUQohRCiFEa/qVZmat1RrpviRcF7QIyIiSpm0AvHd4/KDrvhK3E0UG7UIs5luWoKA69RH5WiDq6Z6bBUXMxZmMmhq+sbzsES1cK14V2+JzUcA0JU193iEpS6GqtTERKvtUasANpiqTQKsh94/jifLXi0T68AY5w8F+cS53YPnEud2D5xzg4rE+nEGJyHgfNWfiGnN1Sx8dkC9LmpkdhiWFX38fqwr2qmkT4MuvvMPbJiE5hridWQh5zAUvyZ9ThuJyg1lzVqPl1dC2zpSpJSqo5UVONcOMWhhaXssursTUnAsCd+UTFBmgKJamuWs+JSVRpnhUiow0n1AnVBBBFQR/GUxVG0mkBph3YCAksbhU+2J7t18ogwvQnOOuLrjePlCsh7RDqw3HzROSWN5z4Rzz7wvzpEq0eqPnEu0eqPnEuf6o+cS5/qj5xLtHqj5xKtHqj5ws9d5UfAxaFfaMiOo9CarGWaNTVC3icbh8G9t+sylSmem26KwSwZmnTztGZ7TChVUUAGAAEAc5edeK5x4MqbNI4ABoabOnm9cl3iReYEVO4ZxOmNfal8TK3WzphlExpjWdluu2JKtqPCkY85bBJHUebiYyF5xbRNMEFNXGJjPWZMerGuig38IabPnm9cQsSLzClTwzidMa+1L4mXrpzpuiYZjWdlo5xJVtvZBYafNl08N2youwRabzIt9ws1jMUaz1RMLzZIDI5zZThjw+tXSHguMxBoktcz7SYmB12j+L5grqXXCc2NpxMOzHaT0DA+qYqRrEKJi7cmiZpeicD5ixMCnIA05/s1+J3RMLudZ+H1LsjrkwNDFBaEHrjbx5JzS7x0iM6bIJaa2Bc7Ng+tz5gnqGJggM9mITfQg05GDS7MpW8NbtnSKrMNmN/UQ040p1VgfZyKDcXP+ozmWkdigxk0414Iv+41zmmt1At74/Z2e91uf9Rhesf/AOc//wBoH2ci71uf9RnMtAPUoMYP30r/AO2lR7YmBJ8uWXvE0oPBPvjugrI6lWHOZg9Uc3pSbi3Wrrr8PrlqrChEWj/wxFSDmfwn5+e+6ElXGa3qkcaRbZUxvRB0uzllc9aH0pgrdEqX6THHqH11oSUuosc+EWhJqg0N05cYk80Jo/8ADTr1VmHWu4+POFUQLi+lrMEk7T4maGO+Jt8oQ4Ye7x/ZybeQ6KtcT9K8ksBNTMaV4RLKnVsPDooWc6hEoMoFTdNSOTNGB/1GTAEdfLw+sUFWBBB1gwk2bKDVltLxmJxAx64+nsDgQEI7SB74AvKapIzx2t8os82a0yetVloXN0Y6os8yS8yaouzFKmiDPHjFjtE1UR2Jly2YVamzhFnm/SGs83vdw370wkDDPXFjnyVWzkKZksrUkjbHc61PL0ERhKYrgo102xZ5s485LQiWhbRQZ4cIs8yU8ycBdmKVNFGePGLHaJqS0diZctmFWO7hEplMyXM51GFD3wnA9USpjgVCTUW+rKdTAZRZpiSq40Qykw2sYnGbNJvTHqSK7BXUPEHrJl5oNX6toiWyXxWh87sFVQSxOQA1xNaRYJf204eEw/3qEWSXXW7C854kxLEi1Wcc5el6N4LnWmsbYPf5LXJm/Y3XH7NMBtY4AdsaVqtzc87a7p8EfWnQlrXidQ64W+zsVsyHFUUawIF1LVKUTVGAJauPaI+1UX5J1h1yg9+l97m/qXX1+Oac30dnGHLH2Do5+JMQ0aMz2HzBt5M648lLnNrd4UinOc7o8KY9GnOFFu8NcZR4HONd4Vw5M/o8uvq8u3zYMIBIUZCMDky61Pj1olS/1sF98TFdT5Smo9n1Xcx7XWt4K1LtOo1ixHnQyLIky2vPMLVrnSgFMTHcZBZy10lJ15lrtwiym1zDLV3Jbm0lBsr5OvdFgFnabS5MR7y6WXVBoFFSdwizWYLKFa2hmqwyrRRFkWzzJlObmo1ZbV45RZTaJi0pKBulqmmcdw5yTjSiGZib2VMI7nOwmjvgvU5piK0OEdxZ8mQ4J59m0cqjUK15GoZwvzf0DIdZhe+zBzk39TaurLk/dJv9pjwbsqvHGDjPtFfVw/ygUVVCgbhyWX6Vawt5xeupLH4jFjlyWtGEp5c0PU7xmOPQmhJa5n4DfHcS9ZsbvOTQsyYB6IpEmcGMu8SwwBGYMKWCUoozJJoIlNLZHuuhNew8jYU51+JwWO6VkpKlqv2qY015wwdFnKFINRSWmPJgjEzFGyjfJvG23NM+XRy6Z+syHKcNT/Px3WOTbyDQmHnE4N8uSeQvokAj2xMLttPRcq65ERaTcOYAC1405PLbHcNZjICg5c/NoBBFCDEx6NgqagPj47Kv2m7SWMMzhXHZFomSphbwah2b8RNTFoLyyUvag8tto29AnnSuhQ0xiZN/7o+cTJv/AHR84zpj0BpJKAU7Lzf6j0pX94gCs15jNvo134RsP9wgVBFCIkzbRaZhoUkgzSPwgmO5k2y05y6XYEtlqGVIzuiAPpUnGUfS/DExeasKh3Typ7g0BbcNfL4N+zy+pqfPlPfLSwUD8K4kwtHtLX/5B4PzjLnV9swctmEzn5jE3tG8paoKmFny7bJUESWYFDdyYcOg3eJU0KQNZzc9Qiioi9QAhc8BxmtePuiWHlOKMpiSJaE1OJJJ3k8i3pYmC8uq7LStOukdzZN2VLZzwUVhKJKW6n6n2cBya5WP/aU+MnCGpL1t6X+ujl4pt6BrL90Go8cz2wa8mi64y32H5RKKnUdR4H6mUzudQghrQ40jqUbByGkYn6yz2dpcqZdBYNXDPXB0JqBh8oly3ecz+HXJabCNsS5aM0xgAlaUGGuvQl2lpiPcN1QRXt+rSW8yZMpR60oBjlSJctDzzKoStKADbXxEzJ0u0NxrvG8eOAc9Mfm0Jxu4VrHd+0S+crcUFmwBptFItj2lqS25x88TliT0FBZFqAYssrsaLLK7GjWOWaiDazAe+JyJeRaXmArjE5OcLS9C8L3hA5ROTnBztVvCvhk5RORrqm9dYGmkNkTQ7iVmhrQE45boum0c7SZtC0w6oa80m+ZlPJL0oDvwibL+ip3PlTL2GDsdvCLYgmWlrk2eraMtdYB9IwwS7RGlk50FK76+VE9AzjGWWF5W2U5FqouCZ+FkOiTuMTJYmWmWZjTW0hJRc8NbbotyTkMjnZM4S7jNQ0KXRr2RKMuxL9jKPlKMhw2nXAoBkI8GXPIY9YYe7kwmTJwl36VuggnCvCJUuZOuEzA6gjPCuqtM4ULYrPUAjwS7LQhd2cSjMN4KqVpUnfEoy3RrrpWvWDyYFjOeXvv4inVD/wDiJ8ooiDOhwLbgBFPpVstN2QMDVy1wZ8ITnWQKKDRvMcOqJXNPLe66VrwPJgLRJLSt5K4+4xp2m1ML4HkoMcdlfdGJGLt6TnM8mUpGXrFE+HjLd7HhMPK/10cvFdvRPezlu8wS1ddjCoizXf0sREl/XMSX9cxJf1zEl/XMSX9cxJf1zFnY8XaJKSx+EU8QUs02ZMmUHWxhsGq8jj5S/GMpdnr1sf8AUMERbPzjk4Uv6fxiyYV0TcvzG30GUWa8PKVk5uYBuhTNeaU5uiX9Fsa0hOctDzuduha1at7KFCWmXOAQNLu6FVGR4wyHmwhS6tM61hpdyUArErWr64YfYs8wjAaFa+6DKWTi8yiZINVfZEtZtoHhlvATdhmYlFZLZFpFEPXCCXaJVL6jIg6xDSwiylvXlrpHGFF1FUPMuXr76zuFcoarJILtxY0/xg4shZUHhOzm8AI5mVZw2m/N1CDYNp8QEP3w9gOzxtws1HDyycqjChizd7qbt64yrXYawv0mYyq0+bfUC/XIAkYAU+qs4mhK3akileEdzk9ZvnFiV5jUvMWbUKDXuixKkwAgMGbyhQ647nJ6zfOLOJYmEXhUmtOMWZpTnPmnaWOwRY05hmvFcalttc674sS8y5BcVNWK5VOcdz0BU1BvNmOuLMJplg3akileEWBVmS2DK15sCOvkUMrChUioI3w9qsr/APkTLvvrAm2iUZbGa0486dgOOyJjvNnOL00KVEtBix0qY05FrMl99ljeurshqsJYSZ+tMDEpZkthpKcolTub+7557vZWJKS5YyVRQRKWZLbNTEu5ZmtIlygKkEShQkV38ki8yeA4JVh1iLMCZq3ZjTCZjMNhLVwizEMpJSrswQnWAYlrMluKMpyMJcszWvm5QxIpKFCRXfySqlDVHBKsvAiJAVm8JybztxJ5PBlSyx6tUDv1tmc5/Lq7a18YbSPhnZu8wn9B+Hjuf1uf1uaWeYRxphAwlSXbt0fjGit8TpB1Ur4PVlAIEwS1VTq0QKdsGiucaejKAw9sdx+eM1qmddbEDVhqjuRMlGUGFVRjW9TPDVFVeVY3ahwIzIED7KU7/wCPxj92dvVF6Mksl8DaQ1AO0wxwtKrX0i+LGG0502YrfoV73xhe+TJbzFB9CWDTtjvgW9PmV8ojb1mALv0dqfq1e2MhZWvesIP2lsEkHgebiWEloKBRGUpUQdlfjE4rJliXKF0YS5a4aIhAJQGjTXXXvr4iwScpAJ2j5iHvMFALZVO3zrMaXMlVuuuw6jFXmt4U1s6bBsHLKMyxWt+/SRnKf013behOeUZilb6eEK7IS7LlrQDozmlF0KiYua11iBRJa0G/eePRRpXc+Uwec3351Ku7bAAUCgA1AeL/AGjYIPjBqTmfGtX1B74ue/f48fqT9fnMZEHrV+EagiDrqTC1nyKzJe/avXH7whPBTX4Qhb6OX5wD0Wpj1UiyzH5qtx0IxBNcawiypRIqCocIvpMYBZ+aFeFRePZFm53nJdzwrtMa748uU69opF4mZRbo8rHAQBelS0ZiNbXwWMMdJ6fpXNjFFVrO0pdwu0EWc3kBlzZZwNDsMWV0lswLDwncjIUECk+aLzj0FXIcdsZmc01uoFuQVSd3Qof0X/lEsLKcCW4UUAZRh2iG77ZcBvl6uzLxKWvMN4R1naN0GqsKg7j5qm82Qt+1TxiUX0Vrr3x3RtB+mTgHE1udIukYgtWmePnQ0VRUmMslGwdHq8WyP1GrMbRBwIr5g29DYPEbPLmoDW7MUMK7cYs0qSpNSJaBQT1clgsyTBWjrKUNjvA5O5tmLE1JuDGJKS09FFCj2cncyyltvNrydzbIrqaqyylBBGsYRLV0YUZWFQeIMWGzynpS8ktVNOI5LJKm0yvqCRwixyZR9JVAPbCgqRQg5ERYLNKf0klqp7Rydz7KkwGodZShh1gRJSYhzV1DDsMWKzynpS8ktVNNmHQmXLmNqtVK3AMwu+O6NptNktLFJqz2vlSKaQOrP61arUHfhChUUYDzUypMLBpd40rLYk1G7KJgFmsdid0c4K9MCy1zz9kSxLmugZkHk11eczicX+XjuIgGKw3ROeK/LzBl5tNJrd7lfqbX1Zx9paphauu6uA+MZhZjnroB7ozp9bMa4reDXAN/uAQHUGh3+abLJmlfBLoGpwrFlkuZfgFkBu8K+c8lFTGbGvR1+OGMIaBGYNYyYeNvec+DLXwj8oZZCbFFT2mJ7zGV1peNcCOXLoTWluZqgFTQ7YnCcvouPiMY7zOGaMc+B8zei0ym0k3RH/UCoiIAq8wppTVFr+lPLmrLaZdC6KaTCg2Y/XKCK64mrzhFblcfMs1F/UaR3Tso3c6tY7pSuqre6LYzcJb/ABENPPBPnEm1n+Rf+UWS1di/OLFaf6fnFhtHasWO0/0/OLLa+xP+USrUOKL/AMomTl4yz8It9OMt/lHdOR1m7747oWZuE1T8YYEbsfNB8LSbh44IHRHRP4l+PjIV5q4PMOKqdg2mLXNeuq9h2cvlS1b1TT48q8423yYl3fxDLrg1ByPJ5U0t6o/3y2mbL/SxEEUOAn5U/V8/MngPzK9k0198eDKQtxOodcLpzi3NV3mrN1/XymYsdIDaMMeI8enJLG1mC++O6Mon8FZn9tYk2iaeAUe0x/0/NbYdJ/cBFglSBtoo/vJjuvLlcGun+hY/6hmt6z+9ottpb9N1feDCz3/VM+VI7ng8Xc/GO5ln61r747mWQf8Asr8osUgcJaxIlj+URKTsEIvZEpOwRZpXqCLDZzxlrHcuyf8AaX5R3Mk9WHuixFeEx/nDWlODj4gx3Snod6g+6kf9RTOsunuJi3ypw4qf71Edx0mj8K3j/QTHcWdK31I9jAQZ8n9SV/trHdKRXYWunsakMCNo8w5XqLwHmAdPU4rw8YNJjaCHe2vq6OUwMh6xh7eTMyzTl8ok9XIfs5OPFj0TV7OQtfwnLxVgOMT5ddl4fWzhKtVmmX5LnKuw9kWmQtmlsD9Hs96kw/iLQoVVFFUYAAeITL1ylcKZ+M90JII8kG+3YtYs0+e2ryAfeY7jc0pyZ1Pve6I7riSpzVGoeyWAI7o2ic2sii++9Fivna7M3syixyJf6EC+7xkYR3Ps7HbcFe2JMyV+hz/lWO7E6Ud4p7VIi1y7Uo1Ehv7wDHcJqDN1DIPbeEGbIP41qP6axbJM3crAns8czK3RxOHmjVGa6J6vF/3j/E9HOW6t2GDVWUEcDyMt2Ya3dY/1EwBRidpG6BQAUA5DUGYQvBcB0fu09/inW3yhiTv5HqvonKMCPCXZ46FFmauvbiKDd4ra5UrczCvZEudaG1UFxfbj7I7mCzIcnZce2ZgeyO7bEHOWpLj20AiVMnn/AMxvgtIssmV+hAvu8yWCQ5PlXaN2jGJs6ztqob6+3H2x3W59Bkjn4PUe2O4puj9ooK+3EGJ7SG2TVp7RURNSYp8pSGHs8Y1m8erDo7fMeuP1Dxf7/wDx6R0pPe26svZyHCtE/SIOkrVEZOoI64NCEov6jgOl90vv8TOk+HROjkw3eOhiC10XRrjJ1DDr8QdUUZsxoItfOsPJlC/7co7jO/42BbtC5dsd0BZZZ8hTQ9kv4mJ060trqbinsx9sWOTLPpBdLtz82WCXePlJoH+mkd1Z0h9jH/JaRZBbZQ8pRePauPaISZZX13heXtHyifLmrtRg3u8V8hAvx6OoeYhGceVUeL/f/wCPSOjPWn8y4iMxKanZy+TeXsMH/wAx/cOl90vv8T9DpfdL7vHKXjQqTtBhwxWuI34/W26ShHk1q3YMYsc60Pq8gHhmYsy2KWdZF0/1VPYI7rzZzbFqf6n+UWFHb0pmn78IAAGQHnKxy3PpUo3aMY7ozrPM1An3MtCIswtskeUBePauPaIWZZX13heXtHyifLmrtRg3u8S1zWpwr5lNIHLqYHxf7/8Ax6RoyMGB3iPLlrUbDXEcpokt3JO4CsZu1abBqHS+6X3+JveKjE6uiMTlHkoB2eOymVpd7E67pp9TPly12uwUe2Jrz22S1w7TSO4xCnKY9W9uiBHdfmUOaIa/0rQQJtob8bUHYtIs0qUPwKB55sctz6VKN2jGO6M6zzNQJ+K0MWVbbJHlKLx7Vx7RCzLK+u8Ly9oifLmrtRg3u+u2RrP1ZgwfFhGfS1qD4t9//j0zozBel/qBxHXynSmTS8z9IyHX0/ul9/iLU2DWY0JfojXx6TUdSDXZSKLPUaS7d48dmgIfIpiarTpW+WWHkppn+msdzJ899Vf+K1gpYZZ/kP8Ak0d0p89znTD2tUxYJV4eUwvt2tX+ALHLc+lSjdoxjujOs8zUCf8AJaGLKLbJHlqLxpxXHtELMsz67wvL2iJ8uau1GDe76vVKY+zzJq6foDxbIWj/ABPTzEdcao19PLm09/iFHf0vJEOWY6zyVSXs8oxKAUdsTBwaHlgcTFoPPU0TksKVdTiDDlXU1BiizlGku3ePHJJfnK66ZdHu0/0czGMuWKto1wFDQCJDT22zWr7BQRJSWvoooUez+BrHLc+lSjesMY7pTrPMGQY/5LQxZRbZK+WNI04rj2iBMsz/AIheXtET5c1PSRgw9n1H3D+7zJt6fo+LYXvBb0WGRiymaNTy8QY7nT/VjudP9WO50/1Y7nT/AFY7nT/VjudP9Qx3PtF056BiwT7o/AcY7n2j1DHc6f6sdzp/qx3On+rHc6f6sdzp/qxYXXe+iB2wQ01zWY+07BuH1z02DWY0JfojXx5EqdewcY05m3UOHSos5Rov8DCFXU0IMOVdTUERRZ6jTXbvHjc0JcY40rnBrRQK8P4PsUt2Pl0ut2jGO6c2RM1Bj/ktDFkFskjywL2HFPiID2Z/x6S9oickxD5SMGHsgm/JYTgB5V3MQ1Z0rvc3iNfXy/cv7vEBAgeM+h45J8Gune2CuXij9WuEeCV4wcIo7+l5I+cOWY6zyVRNnlGECrymCW4RLmccImAn0cjyUWeo0W+BhCrqaEGGKupqDFFnqNJdu8eNS79CBStM4W7fGVa0/hKxy3Y+XS63aMY7pzZD6gx/yWLELZJGbqK4cU+IhDKstre6ZZ8gnwew4cOXWhHs81+gPHJ96/e0btKV8T8M69kGp5ZrAbK4ciVOvYOMaczbqHDoGgGcYJqHz5SQRkRB76BgfSHz5KLPUaLfAwhV1NCIcq6moIiizlGku3ePGXu3qaVK5GsPfuV0qUzNf4TDFJdKhRU4mgiT9Dsh/ak0JH6v+ME2m0A3r7+CDtA+fQ8lyOw+ZMx0dZ8dkXeav6V6tbrXfEtQrGZPR5y42dwCuHGLPOVf0j5xKn9g+cSp/YPnEqf2D5xKn9g+cLMUA6V7/XRzU1jJgCOvkos9RoN8DCFXU0IMOVdTUGKLPUaS7d48YS9cFaVpEu5UkUrXL+E1DKcwcR0tb3vWx8ya+j6Q9njs+9zt/Ru0pea94l6J6Xp9L0/h0meU8vQvEVU3cNUTkmLtU15KLOUaDbdxhCrqaEQ5V1OBEUWeo0127x4u92+KVpWJl+hJrSmf8M+UlOseafJX3+OyKXL2nezpu8S1ikZg9FGZFzumhxhphH6sRHO+tHO+tHO+tDzFGoXsTwiWyS28G8anDo5KKxmTWJry2HlKaGLloX8eDdogPZ2/FpL2iJ0tpijQmKajgaQhV1NCIYq6moMIwm5FVGe8bosopvaLOVG1TWJgYe7xNL12mjWlamkJcv10a1yNP4ZGMtweo4eZdnQ8pvYPHZ+DV0Lu0Uz8T8Me2BQ8spiNvI5UxRJnsPJSbN2+SvziYXY7YOIiQyg69u/lUljkBEoTC/k18Hsi1PLPovpDtiymYg8qXpf7gUPJNeW21TQ+yCs0rk5FGpsqIUgA9vQahHt4xrzGw7PEplypBrSuUNeuDPLXX+GcnUjtgYqSD1dHV5i1xqXx2RXnbuneyvGmXiiAxe7YSp348lEmewwhUwYnMJWzX28kss3u4xSbO/pXhyS6HdhHOHdWJQX39CyS330o3aMYtLSz6L6Q7YspmIPKlaf+4GOyNQ6JwZbw4jxKVfvsRStMoFKqDT+GhozRXr19HX4/x5ckxPj0+4Zf4a1oa+Mos6Zt8lTxg15MFiWsltupjx+rtCKdmZ7BHc5Zrapr6JHZj0tSNXxKfc5uuF2ta/w2NNNJfM40nx6vHpV+jAUrTOBS+tSN/ia3t+qCo6oQEbsIm3Rs114RWVJ2a248kss3u4xOrP8A6OEIVPJV5ezWOETKg6tcIqjfiYKEbCsJcPpDKDUHktCKfRzPYIs5b8T4Dsi0FV9FNEfUDw9FeA8Sk1A/aXsqLXL+HBoPpL8vMnVHgjFuHj7Xb4zzpTGJhcAnE7/EjojPeegKgxq90VlSf6m4RLCr7Tx5EBHu4RV5ftHHpIJg8kN5MWgqvopojlls7bFFYuyV34nsETGmFT3yccidiiCTtB1wGu1ocMjs5VKStmtoFABQDxKcWMy9okZXjX+HBprpJx2Rn5k+0fE/LzBKVAt66dZI/wBeI6lJ6UpGcYC8KiOb9WOb7I5vsjm+yOb9WERSfRFOlLZzXJRWLskb8T2CL05vxYDsES1RdiikTNDKbNHlfhXdyVSQh75M+A3xKCylFLvziyy+oU90WdFO2mPiYBYUug6yTEsIWrgN2H8OjRc6e4/78xjvcs4b28wu4cUwGWApj4j6J6W3pbekoB5ta8acr6GU2aPK/Cu7kqkhD3yZ8BvhAstBgPFndQGvaO2MkQL2fw6KqwoRGKnFG2jzD/MdggUVR5hCl0FcdmuDpglX4jxHLNeHRmUCYDY3GFWVO2eS3CFEKIUQohdJcR0RojFzu5X0Mps0eV+Fd3JVJCHvkz4DfEsJLQYDxcKbOlcaY4Ye3+CrdIlnYXFeyLQ80/gQ/wCVI7lT5p3mn9t6P+nyo2ujn26MSJMkf+38SY7qyU66f2rH/UJH6Zkz/Uf9STvWmH4x/wBRzv6/+Uf9Rzv6/wDlH/Uc7+v/AJR/1HO/r/5R3Se1c5du3q6NK7Sfqc/JbYYWjDo5+NCrGMWPhNt8xCqsCDwMKRU1JJrXxHqOyFvDaORCYnBZh1bRsrEso41HkrNlbfKWJgdT7OPQwbWu2EI48iFE9JsIHFtZ5JmhlNmjyty7uSqyEPfJnwG+JYSWowHjCkc5SuNctn8DWyVK3FtLszizzrQ2ryFPbj7I7mrZkOTMtD/8mfZHd0gHyELOOzRENPnHXVro/pjubIw1st89rVhFUbAKeKYTF8BvnC0YdHPxhasdUYzD4R+A8yTSJV7SA2jHHjHguoI6/ElHLLrsOscI77J9IZjjyTCp17Dxikqds8luHQES1rw5ZmhlNmjyvwru5KpIQ98mfAb4lhJaDAeMTSrA6dMcW28B/Alplyh+I4ngNcWKbaphyNCB1DMxPFhknyQbh7Fq3bE6baX11NxT2Y+2LJKlfpUA9vjWjMHgvC0PsPDo5+LLUmNKYc2+XmVA61Bod0AKNQGHi9Jcz0fJb5RLKMNR5KzZW3yl+cTAy+7j0X0Mps0eV+Fd3JVJCHvkz4DfCBZaDAeMGJS86BS/TH+ArQHmj9lL0m69nXFi+jSD+2b/AJN8Itky1TTmASB1k4mLNLlD8IpXidfjy8G1jhAvS9TjLr8ZFF1scoGOttZ8z3mqQLueOzrEAiorQ5+Ly67DrHCO+yfSGY4jkmFTr2HjFnuTD2cRExjDERa3VXFK5nhWBwO2KpIU98mfAb4lhJaDAeMo1Hat7UW/1DFrqgVOZ/gCZzs4fspeJ/m2QPoFjbipI45n3Qn0mb6UwYdS+YlBBzBj/tn4QpBGYPKYpB8QFSYwHoa+uFAAyA80zRztPB+HHxmkuZrXyW+USitzFgeixVb40xmBriWFlqMB4y91agdsMGU4gjz/ADtKmjLXF24CJZsdiJoZmVR+rXwEL9Inj9o4wH6V1eZkx1MMxHfU3eF2QKHxLvab8+yF0vSOfmshZt4Xjllk0UvUxpt8Z1J7+lmZa+7xlh9HB0to2mFoqigHn2YqIoqzMaARZ2mOcDPIy3iuXExN+l2ljUgklAd9fCgAAZAeaZQJ9IYGJob8LYGJLLv1dE/USmaJgX8IxMSxX0jifN0mkls5nHZwg1By8Y2U6XkoB2DxhQ81jW7sX/cIVJUEqdW7z61+cRoSV8I8dghzZrFWqShhUbh/kYkhF17WO0nX5ukAHauj7onuvEXvlDy266RZieBB90Wab6piTN9UxZ5nqmLLN9UxZ2H6qCGRfbE5m4CkSQTtbHzjXBqhhmIwVRQeMdXGBQjoDvaHDefGQb41VwJ1Hz6nP2lsOcUXgv6dvHKG+k2tjeo2kqn4n+LZj1lG9cGvfxESyrZV9LePGBjqYZxRx2RJw23hD1/CvzgAAZAeMc5Il2duBA2cT58mBJaCrMcgIDSrGPtZxwqN+7drhb0wjvk0+E3yG7+LwbqDICsYMPCTWvnE0AzMK2hiramG3d58mhEXtJ2DfF6z9zJb4D0vm3uiUElrq+J3/wAYDCHajDRTUK+/zi7KGGYjFj4b62Pnt6AeCvlMdgi9LsCHvUoHwtw+JhAiIKKowAH8Zs01ZhoVzz8kjZshbrUxFa0Pm6URLmDFxr47AImmYVHhH/8A7Lz22A8FdbNsEArZFPeZOphsG7adcKFVRQAYAAfxrKvsMz6I2wLs1RpJ8Ru81sFVRUkxIrZwMW1j8R+Xnx6Ig6ydg3wClglkiVK9LcPiYUBQKADIAdJgqgVJJoBE9Zqo9xmGVaV802pPpEs0aWcG24Vz6vM1qR59CSi40ptp9Xapc2mYBxHEHHxaUqGYatSJlGGF4+DXZ5pbHyVGZijS5i5H2gxLCr57cJLRbzMdQEX5XcyznAbd36j7IQKiKFVRkAOkQFAqSdQEMVsyklVPgqo8tt8TWmXnvszYY0pgOrxd3rLlol1TSrvj8Ya8ZcsBjWtWzJ7elNVFeWS1VDY13was8lGPEj6qc5n1vtKOunoEa4e9PlLVHObrljvHjclFAVjUV1fUlgxoJrL4RZvIHxieWtBl3bi+Atff9XaZhlo2LeXLrt1EQAJyG5NX8W0bj4t3ub6YGfGG0JaZk6hEwOp1jzNNVml+EBqh2K3cZe2nwhQqgYAefGpYpLVnTdRpr+QhLsuWKAfE9M481d6mN0++BpGaq13AV+PJRZs1LzTCK3Vyw3xbZlSLwTnsezKLPMvqt5Jxl3K01Hf0FDT5xIl1yFMyYtcwK4vIvOBLw3KMIxm0a49KNVc1boTjLmc+q3hsIMTCFlXhOnkhS71rSu4bImM6c4FmrMxZb3lBugoZxQIDkWbDGLcyS75A0+bHUBEudPkllDm7foD5QYcjyTL515iKpJNfJrUauj4MqWWI201RPmKFxKo1xEByG+JV21SEYFvTU5NhhBokuyK7Hcq1i9KlriFQhbo/Ex1xfmy2xKOQ1V2qw1w+dlaZLb+WoMTWnT3ClWa73tR4RxidMYNjddg6OBmAdUHQmSw4rqBFYbmpS1IIwN0eUzauEWj6RJc00jfU7q5gxW5NS8K6t3Jgv0yYtNzVw6NnlkJNZQcdRpFlldjQiq18rQbugO+1Cs4FWLN5K1i3F1TF1D85dG8EUhQs6W12aoy3EbjFpmfR5c2SeZFMRdUkdcTJsqWNIojDQG9RFOfkMA5ApeDZGLY5sZnK100pzcz5QaIiFmO4Yxa3NnlqzFMKVbBR0MJjit7Ogi0tiK3ecxiU9aVWYVplqMc5zOjdpd2Y5xe56hyp15xznM6V6t3ZhlABmuaIDu1xaiobFReu16hH2ordbI1XMGJpQszVpBZUVaXqhS7DMwS1SVBbwlYajyYkTJ8zHbjyKGeoWWDlebbFvZZZYgafNg02BYkzp8ouFY3b1295QYdDwZSVpt2DricZMpDTRa4o3VzJhmmS8L4ahIU+UrDPkGi8hwesR4LSAx4qafHxdaowoRFqP0emK6zuMTFS810VNMfMcxQznRBOJidzbVGugI2GCXmkULfADz7VrROwmldSnyfnujFzpTX9Jvls+o9Bf7hH34/t5GXnpa3SjYXlzwO2LE01JYzaXfwG0pEnmrQqXsDVWG7oSRNtEwEqpyUbTHc2zKjCqg0XDgWrAAnc/aOcAyDXGr0P3lPcY9OZ/dFonI90LRKUw4joPcLUKtsZcYkc5JvVooExSd2uLFzRLBSwBUqT6St0/QX+4R+8/wCIj7lvfH/09f7Yz5yX7jHpzfhH/wBMP9kfdJ74+8f3CP3F/cYskqcxVecvkCg1Uqyx3MkhBMDi46A1Aprc7Yl3JqF6rUGlWJ1cn783RE28jlTRdYw2ws71R84vXbxXSFMuhKWZaBan5tGyJpvIjuXZgk2WyNRkyYU1vFn5vnOauaStW7er4JO2P3uye5I/dJ39pj0JXvMDwSZT8DiIbvtoVZB4r4XaBA0rTMLfyrgOgw5xARQ6xFnLqo1rewG9Yl3JtKimR5PQfk9BosUm7cF01GVP1RZwo5y85DLs4x6be6PuxH7wnw5M+/jke4xIZG1BhtiRzkkNUBQswY7NcWMSWLXS4BW6TleVugKquAUZsxyEdzLMJIalTt4swrEmXLnfRxdCUpcvHYTrjYI+6b3R+7f5Dxl2VkrdOrHdE++L1JYrUARNUTaVC1x8fmKi7TD0vLosMc9cWhmcNUBTs2nz8QZ8zRkrv2ncIBa2WnS0s1Vse06/qcpstkrsqM4UpLc3ZuFbrLk3CJqTEOTKaiJzfRbmmoRWusNZwrQx3L75T73CvZEopKo5BpQMz6hu5LcySHtLBaIhuylOeI2ckstKEnm3IxukEmp3Gsdy3mWthQBW0S23bBBmifaRMpleutXktdxOfElFuqcRgTiNsMWIFKnM74/eU9xj05n9x5bSUChEuhVa87Y6xviZzk0IOcfa2vKJhW0IwagAJZdYF6LI06arHTrzZ4EUiyGWt1ZZI0giA1vMevo2jm2MsvMwBrU0GddkTS8+Yt9qgCl7IYU1QaGZLIU78xFivBiL0pjcII1g4xI5lJiMJEv8A19dYNBNsSpXZVM4sl5XpVSaBqZMrRZbqS6gAVKrezZmg1Eqwsldt1KR90nvMfev7o8FrPdPAxZjNkuLt7IOMwQdu6LK0p644CYT2igETucnhO+PQCrdVImq0+mhJBqxO/YIGjLLm96U1/8A/ejZQWZizG82Z64sg9ZvnEu4ta0qTj19CUXlGYJlQK3W1htxiwFLQ+Aa9fodwpjE0tNmGqIVVSi77oGJj97snuSP3Sd/aY9CX7zAqzSyU/UuI9sYj6QSg/FMovwjwZUtUH8opyWifzxtN1pFTdz8G7s5Jjc1do4Cg0O2LHp09PCvZEu6mm1aUBL6hySqirXScmUxJRRdJqK6oW88qujtUxZSXlrdrepWm2Gu2bEhboFa5AYVj0290Wa+pSsp60wPyhdFXvs2quoDkTvbzTNl7CG8NfbE9SaaSV014iJhWfLa8VADFl1gVrjFjadOUmr15s9YpFl5tBdViMQiA1qx28lp5sLJBeiqasx3g6omF7RzYMwkAaRxphshSzy5izLozYCoNO2LG73Ga6VNDia0IMWfmOdk95lnMSwTSvGNgicsy0TVKNcNQinOp2wtGtNLgPoLr6/G5jJOOvMGkTTMcDSYmsTwrqxGlgDTYfG5yp7+yCbtSMc8ItTGUTorm3DHIQKKooMa+fnCoilmY6gIQ/Q7O12TLORIyHxP1alJyiizl8IbjtET1m3p5dWAphQDEdXJJl123RyIWncy3NqM7xGESDLmHvctWzpmT18stVJzoKciFiqkhRrI1RZ2RlBuXtbvmelZXlSxMect/WxOiOrllo3EVgADYOjZXWxiYovnwSksf5cqK1MqivKoI2HGFAGwYdEAjYYRVG4U5LUebmPUSkFDlraJSy5aCiqMvrJaA7QPqUF70qY8sta8Okik8OSWzUdshWEyljAiBhySg6HtB2jfFqvyebZbjDSFd+vklo3EVgADYOSyulmWeXDN5Sy8EHLLW96VMeTZE36Q4xEsCkvr2+PKZTbUy7IU0RMFGwahFlZHLU0ccTuPi8t2L1ugZYb4kGWAwu50IO+C2C0KjC9xiWEXYPHRL5ya7eGK6Kj/AHC2b1D84Sy+ofnEhJN40E1DoV3g5fVXedvIqXsRiflCyLjk37qGtFFdvirZsDaGGQ10O4ZmFoktaDftJ3n8hpSMymqkjEGHuM6EBtlYtF+Re0jevCn82MAlUGXsgurtkrL8vr2urWmVceqFcUW9VsKw1Hv6WWXXFpvmYowqWxG8xKV7pqt4Vp5g/ZyC3rn/AFFnE1VZFSpIocScosvMtTB0ZqjqJjNGKnqjwjZ1qdtMItAUnwUGLHgIsVoK7TdBiYyTvupgox4ajyWe0sZcxkJAWhummGMM4M+UJkuSBWZdO3UIstolr6WDdsTFmS3FVYZGPLnl/UFP8oGEqzntYgRMVEUVZmNAISdPp5Si6vtizz5QPlUDAcaRNWZLYaLLlFltV+VMZGoFzU02wCEmoGAOeO2AxW8FCrmSdlYsdqMya10YL2nHV9ZTnDoyhtc5dkVNptelU5hDj/Vn+RShgcwRURZ1SYtaFcM8Mom3L1MaVyNYtl+SK1W82OGyEvTaigpWLJcQg1e4y5eyEv0IF2tM4sxQkE1vVy6oQsAQKDfEl1JBxNNUS79CBStM4s1yoOlerl1RK5yYCKLQnPhFmuSaGuhdx64nc3MvCjVK+6LXfN0gihOe8wl5ag0yy4RIRN4GPmPJLiDqXH2xa7k55zORcc4UAGQOyGafOI0TdKqp2m9SBemzXp/sxjzMtZUpT5TUoPnEy/OnElnbIAa+Ai12gzaeGLoFeFIek2zzsHG1TgRAoGswmsNmjUxmxJPXFrmK8xFuy1AqFAoK13aomc5KmLelvkeB3iDVAFmLuORj9nZ73W5/1HlOiD+UVPviRWySwDTnFW+201IyhpiOThJRhgPxHGJrMkyXeutiy40gnm0eWy7i1a+6MnKzB/MMfbGa317GMN3uzDS/9Rs+yFxasuTw8pvh9ZjYbDW9sahx9Y4cIGH5IqKwoYbCKxJRTtCgQARA80n7Se7DrMTbLSZKDhSzXtIVp4OfIpZ58oFprYtj5O6kZabn2AQJ4K0V2lPcOONMxEzuh/8Auf8A+0WKa7saszOpJ4kmMHSwLKb9TAJ8YFVe0IGG6uPJ4SSmY/zn/UZBETtNfhBwQqg/lXH2xhzsyZMNdxu/CEUIppzzCpb9I2Q9tKtky96B4HCGJtAAL1e+cRXExnNtB7FED7SQU60Nf8o//TznoNpYC6OswazbRNqzccWaFuy5aBVG4fVtSfP73L2j0m6oWk+d3ybtxyXq/L79nIduwRm7BR14RkoAHVA0J3fk/mz9sNpSWvp+l8+wwCVl3kmbr2US2MmddNVxKld0LMmziNGq3VB2msTZbJWs1zLGimvL2R+1tCL1CrfCFq1nZZu4UYZ7qxY5/P08DC7X9WzqirzpzABVHUFAinOub839R1dUftJ7v6xrAN8dzsafiWre+Jd+Uk1WddoBie816YS1Rgf6gBApMmPUrs2DqjykL+ub0Zy7RTqcf6g96aaJhG0gUhdKboSf0jM9f1mlYrDlsN04esfZ+X8xkWatCy5xa5zGVMVwpAobpryTHltKrRlpiDqxi2TmN0qVNKEGJaujijKcQRFrmSAfJI5wDhlHdCbMGxECe+9EhZa66ZnidcHVMc9dAIl3pZkLKYHWHNT7o7oTESvglAxHXUQrTJ/3r5jgNUGl5SK7KxbrR2LCi7SlNVItcyQCfAK84BwxBiY9pZTUBhdTs1xbp96ZMZzgubGsHQlS1QE7FFIYc5NZOaXXUNWvCPLbSPoqMzC3URQqjYB9We+zu9S9xbM9QhaTp/fZm3HIdQ/MiwWiZLlyEQMqEj0tXGJDypkyf4LqVN0AUz+pszzTNYCZdzCDH2x3PmrvmaAHrQwmWmYNN9QHor9ZjZrFjM2YYt7aL+cH7OWSBtbIDrMYzbVMNGOd0HPrP5hWqVJv1u32pWkd1LN64jupZf8AuCJyTF9JGDD2dN5k9hnzQBHaSIlT1mBS2mopQcCYmrLlrmzRKtMwekFAHtMLMVA5XTFDUdviH2lomhmHXdX2x4EqWqDq8TtHNCZW7ok1pwrD3pcxaq2VR19K0JKStAWOfCO6K+o/y5J6Sk2saR3RX1H+UHAio+um3AxoMCfdDVRhUHkmXFJoDQnHqhryNWh4YQQABUk6ok3jWgm3bzN+hfnFedMlL9cDepj4vYZjt9I5pWvgA40rw6drBtN8pzd1vCXMVpT6qvO8y9ymd6mESruNDNu3WX9SwQVIqCNY/iT9nILeuf8AUS1ZUa6SWC4xZay18JlYNQdUTCKEX1rg42GMmAI6+i11rS9wn8AGMTebREvu9K4ZYRPaa02gqRSgGqG71ZlGG12FSYtRlKWKoAtSaa4NRLXFqUvE4k+IYybICsvZhoDtxPinpzPcId2m/RkJlyxeIBGFcomm8vhS2FGA2wWCu10XRXHOCebmCq1FDDTPpBmIlLuFXyx6+RzzY5pF3X8z7Y+kHff/ANcjaCyVuje5xMG0Hff/ANRkoA7ImzJxBoeaW8O00icRMz5txdanxityUhdqbFxiewSWwWhXEltQETJkok0BmrQdoJ6Mws4zVRWkOyMcg4pXkZnYeEEFaQ9QJpBGsYa4+7hmZxmEFaQ9aTxeBwI0TH4/7zDUNpc3v0JmPbCD6RaFvFtinIDknEzaV5tBeYcdkfSJY9Jkw/pJh1dHFVYYgjoTwl7wVzZuAj6Qgr4TJh7CYmK6OKqwxBHQaYJjqCKLUaRpDTZjIaMZa1APEkROvgYMMmU7x0J4lrWg1kncBCWrjcHzicHANGGRU7wY/ZSWYcQMIFRJF1D+N8+we/ozQktBVmMNOQE05xk0fZjBBBts4g8QYcKiirMTQACGnzB6SJh/VSJ4a74SHBl4iCwRnuC6K40r8ImTG55SyIq6VAbtTsyiaRMAqZbijUg0AzMTJs6mbS1qvaSIn6YFTLYXWHIgFosy3g2soMwYNTZnF0/gfIfxJklxB1Lj7YdQZs93xOzR+ET5bzpkpkSUDU1YUx3Qpu1BmPqVdsG6Us7BCNROiI7o2siZaEU9+bInHXyWyfLSUiLRJhUVpe1cYmzp05ueMurM7aK0AHXEy0llFVWcWqK7L0C1DUzSb3YbsG2m1TJzPMYXy4UVoDrh3aYTpFjVuusHuhLku6gXecVAHOeEC/MfCXLGbH5RPnaXgyZFR7FxMTbbZ2OIvllr25xT6TKW9eApfXKvEROeXMmWgC8jXTQAk5Ra584rJbm5bzGKlzhjwzi2TyZ05UGkQNI0wp9SaMko3P1NgPbA0rTML/yrojxT05nuEWYTps6WGZmJwGoCmVBDG4LVzY/Q+o9sfvB/tj7r4mP32ze5Yny5fMl63q43qbOETUZyyC8MtOLdZ+xonJLMtyxvV1jdE1HYqpvLlpRbrP2NDUa6kosNhwMTLKZ7TCLs4g3VG4xOl3aB+9nBXBjXYph/piXziSAl2WTo3nrieyLFM07wmS5SlgKZHDKFZZokgMGBDaOGNeVqEjA7It0ua3oNhQ7TiYZMa3whw3QdMWW9XeFgXwgBptJ2wtwOaMurDXHkya9kaYVSxHpEnXCXLz3WUZHDOPx/3mNk7/GP3KT/AGDkVjJFqml8DljdwGqJ9mkvXRaWRLfhRs4nTJiXywv0wrqw6HdlJcklQJLgLor5Ia9EyyraEWsrmzpE7Dtg6MucCu68P9dA0P0VKes0WUXrlOe8u96VYsloSU8p1Zmlsq4YjPoV5rmSF2Xq4/CFsyEoAecBVx/MdcW2ZNWYhXwlKHHdEtJiNmrC8D1GJEuUla3UUKK9XROgzTHYbStAPfFlE2ZOkK7uSa1cVwplSGLCVaZssE5kKCBDUWdNJffc1e2LMJs2dLDsxJ15AUhzc+krLx9CbTA8Kx+9j+1os4nTJt/widFVYrQdkEhEtcoL+mbSq9jUg056estv00LfCJlja0zC14TiCVFaAUMTVMm/LfQOiKmjLw5P3Kd/YY2Sf8v4kP2k92HWYlyrsxAwq+NGFYs9EY0Dg3lJ2YRZZMktXm3lLdDEam374P205E7NL4RlLDuepcPbyZNaHpwBoI1yQ/8A3NL4xlLCIOpa+8wPtp7v2aPwjKXLZ/VFYxZ29pjJECjqFIaqS3MqWPwph7c4stpa0PjOmKiY7hVshFmtPOkqZbOqgAg7mOqMjLmXuF2PJR3P8xAHuhA8uz3bqHIu23hAw+p8O0T60/TgB2mPBlS1QfyininpzPcInJWVKuzATipG2DfQ20EEawmZ9kDBbRjuqpicgaSrLMBPg0OuDfU2yXQjWJYFT7OT72z/AA5fupXv5BW6yMeF6LOsy0JMIbTYGmrAGJSrNw0AZz5/prjGQsc3+2P/ACP8uUOzTCQiLmaZ5xeFGuurYMpjwgmB2VwrA5xw3gk6tuEIqvpFwDXDVGZsZA9WHALqLtddIcFwxYgaozMgiGCl5dFrtrlDgvzl6mwUj8f95jwVd0PFqEe6D9nKWUw2GWLvIqzLQKgVVpbYar2HZE6ZLdSLqM1Q1TSg1wxYSZ1xCfRoDTqhrsuWhZjuGMTXdwpY6DCgHHkc3GnTFu1p4FbqDZFlly5t2ko3mre3VMfep7oNABUmJztMetBcYZCuvk/dpf8Ac3QtDNNaZzYARs60z5KG8oa60ssMddYvyVK1DpMqvHSrhE0vIdXr6Ohk/RtDc6howCMcerkGj30V36MWiXSXZ0WZVgLpRaGsGqPbJzKdoN6kDRWa4J3sP9RaJdZUoJMBYAqVwxg31Nsl0IyIlgVPsj97H9rR/wCb/wDkaP3uye5IGCWpGbhdI+MWVZloUss3TYGtcMAdkS1+kX1UKDObSOQqKjkPhyWlKNpmC7A0XeWi8VqT7/4j/ZyHbsEZuwUdeEZKAB1RMUz5zJRBmoU3qnZFdGcHPBMTGRaYx6qD4wwDtZmEuuvEEw4FFNxdbNqAjFmPaTGSIFHUKR5domEcKx+7qx4tpfGPKl3PXN34x+8KTwXS+HJ4V414xIZg6KwbnGxqOMd6L+CDMck04Qwd0W6xDs1A3HhH7KVLT2XvjGc20MeoAD6rGXY0BPFRf958VtRk80WPgXq3usRbebmLKVHJSoe6KXqVwiaZ08il8i6FG4Ql6XMFCI7pUSuTS6kdYMO06eRTnGFKD8I5LaUo0s83zdfA315baZdFUXObveDvqORQyMCGU5EGLe0lT5DLepwNRE82iahqlRdUHbTGph7vPSmS9StLwpWLUZ3PXPIu0uV3nbyzzKmSS11qXhRswR1ROM13e870p2CFqrChG4xbWQb1xHWDFoYPevPMK1vQ164gWuVaRP5sMalSKjqi0G/fvM93PdSsNeuLSuVYnc1eNStKiu6LQecLhjMu6gMgK74e/crpUpmawNFxnrB1EQt+zscTQmU+zgYFDMlI9Nl4ViebPMc1cXbyk7aYUjurVd0vH2mFoi7cydpg6U+YsscPCPugadoai7kX5nktJkTXNXF28pO3VQx3QedNaWyS2K6MuuFaVxi089zrA+DdpTrMHSaXza/+5owM+9Svex5LaZV2WqXbl7Ik7Rt5TjLksV/Vq9sLoyBdT9bZ9g5C0uangTVzpsO0R3WF3/0j/wAodps5xRpjYYbANXQNFUEk7hC1RJjWh67a6I7eQGlaqwzVtojukWlVyWXRj11MWuio5KybmABFKVrEu/LcY7t43x3TITY0upHYRDmdPIpzjClB+EaotHM3Jt+9dvaiKZjbE3nObvadLtbzFsuuLaVPOyn5vm6/ZgCla66QgeW63WU6xHdJpaHyWWpHWCImm0Tx4LEXVXeBjjAqZcp3A23RWFuyFOdLspPmYGjLGetjrJ4/xGjO73UAUVOLCuW6LHaP+20SrZ2PFgnYnw3W4va0MJlqcUZxko9FYW9Os5JC+krZgb8Is85ZgOV0hoSfSXJPMy2qZjMcBhmAIsk5U+kIWLIQKKawCWSU7ADWQIsc/SYCvNtrjJQAOqJTuXtC1CqTgoOyLNNRZUp2qyECp0dfHkktNlTWLOiirIxzw2Rap8pR+z2cAcolzjWl6fOqBTic+qNI1vTHObNtixzyGtD3TcbwQaCFKtzV4g4Grm98fqvLmXVO5zeI93nUAg6jAAAFAB0FdhLJKgMVz4Qt1JaBVG4dEMUD3qBruIw1Ql2XLGiM9/RDGU9LwBpWhrCXZYYnE1NT9RW5MQq1DQ0bCJZXnCC1TXL64AgihBgAAZAfkBaHVLM1ZsoHAg6yNYg0P0dlK60mEXadphlRZkx5jMxoAAbvwhJhEpL3OkaLY0/N4AqRQg6xDN9BtlGA1aJrd4iJhs/c2SihQML9NYGsnaYkhF1nWx2k6/zfkS5qhqgOoYVGvH/7sXENWFMS/bCrF2KdkXYCwgiWe2KiJgg/mgaQC0UEOT9cSIevGJdeEPjsOB/MswKCDXxTOGqBqMaDb8vzIz2wanxfPk0k2fKDUfmKeJ8cPEbYyP5h55Dx7JsuP5h7fHvTH5h+UWHjWXQ1zV9/5h+kY8IZ+MZdHLnV9/5h+kYOMYNs8UMYdLKPvV9/5h+keXSG3XBg/WmDCweljB5PvV9/5h+kejjDEQ1YpCwsLCwsLAEGGPTaB2weh96vv/MP0j9QYWAYaGEMOgYYQ0VhYoIJ6f3q+/8AMP0jyZmB1wfGvvV9/wCYep6do5M4HXBpA7IbxFSOn94D2Y/mHuu8ehhArw5GMAGARDfWZfGNmHHp+FzZu8fzDyMwnsEZauioMVEEGFMCM6fWMT0s9Qg4maB24fmHqc8mIg+M4nk1TVPt/MP0mjq5DSB1wfFcYOGzlzM1ff8AmH6R5MtvQNeMLDfXMIqYFIJPQzj71ff+YfpHl7IHScwRCiEhISEhIURSGgnpYCO3k+9X3/mH6R6ArBpC9niSmDSB0PvV9/5h+kemoMVENABhDCnpCEMLBEMYUdP71ff+YfpHkzjD6sCFEKIH1KkmFI5fvV9/5h6nPtHJmIEGBSD4oaE5GCC16uGrl+8Hs/MM0u0I48ogwvIa8YXsg0hh4odISyVH5h+VNqeoR1dFYaBWFPJnT6w9M5zAvrYfmHqc8nbB6ajxLEwY1TVPt/MP0m5TGEHxU1jAcuZmr7/zD9I9ExjFRDD64w3ZC9sN0OyPvV9/5h+keQRiOkxgwohPbCmAYrFYBhDCRSGPSHXGJ28n3q+/8w/SPQEHthfEhGEY9D71ff8AmH6R6awxEUMIYB+pQwKQ0CsDpfer7/zD9I8uB+pAhB2QghBCCEEKPrPvV9/5h+meTMQIxEYeLZ8v3i/mGNJdIdXKINYFINIxgEQ4g/WZQgUqKgjpjRlj2n8xB3tjiPRPQECkMDCnlz+rNCIfDpDE+yNWZ2n8xBUGBUa02cOmIQeJCia3OUDHW2s/mOtH9MZwOcXaufZA8VlEjbqhr59EZQKAavzKlKd+uJxG5sYlXhtXGFIO/wCvkOd9MImKm4YmEvna0Cg/M9A3ERIA/ThEyYvYYtA6xDyz1mFU/wA0Sf6hFn/qESP6hEsesIMsdcT0HAExPc8BSEZuJ+USUHV//Au//8QALhABAAEDAwIFBAMBAQEBAQAAAREAITFBUWFxgRAgkaGxMEDB8FBw0WDx4YCw/9oACAEBAAE/EP76QSbAUuUM3LVyejSRpoPXFw7tFeUkAcImTx3ZfQbKQHhZpUQ5d7lDIWkFEeocknhM0xNylS1tqIzCEsEgZbweAbjcJYZYNXap15skFYep8mvXMGNAargNWuT0aIE2IIhSJdE/7hT9wKQKGbkma5PRpyejSZOvIsNCLu30VcqSbOoLeABWioQZklEzBDJH/D+z6Ei+KVyzI8qUREj3qdi6CxywXClOpFCXQ1I2JGBbDGvg7R0IHlzAwtW2KDkSGLdpBV4BaWFiZjU0IN+oU8NpsbQmfhKISGRICGU4CPE1BmTk8K1FYCfoslQLAcDOA/R9S9Qch2iEehqw0wLtfJAXAoGxdOuXagqm+WEQO5CetTnqUzIx6fFmZsXS6IagBZEWus4il0dCFV0AfAEsSsA5WiikxNS2gfBLJEIALqrgKavAAqrgCa/9ztAigkVsX1k0oFUAJV0p0jBWEYmWtZgEW1miWYVT14hkhiyfx2uTbLJukxN6OMWx4MKiWL58+c2YQswP/KaqYiPBgeHJb+PYyGrYEte4JY5fNLw2NlJMN9K/UvzT+Q5USwXWaKlKBR1Fq76EAYms4ihSJBPO0GZ8GrwiCiZEmihNKAJwlZWsMDqtAEFYAVV70GDKLDdEpMPDU/3cJguCuFdKduCRCm5KU5UIBI8pWQUaHXbi28F5Jn0wRV00RfrqnwLLMCFMTC4p2KyAI5iSb1er0QU+izQBBEkS4jTMyiTBPLTFtMPEXsDTwYEhN9JFYV1A3RJK/wDc7QIrKjAadZPj/wCOtwRXF8v60vB0fRJxPC0ZcJg1jNyhYr6NV6TPgHv4JTJA5mKPUBC5FF71PmAQgkoF/isAmPzB8aTCTB+L7B4HYHDpffqZKhKGTZGRqFODleHOvElNiSdzAV0mWokcbiy7iXefAbA5nDvoB2pLTlK0I/CkHVGjaW9hUVN1MiBeGY61bnyzYOO16hURsWrcrJqse7CT0XxUOACYUWByrHNGehmoboBg4o+BBY1ldVjip4WUbkfYfBW3qIRgC5gYy8U8JAoOoEBd4pxhfCENCRERhiagaTxNI/BQ4C7iFtOBlaDSXdQAlAYV3anvACQ3BeDVLFRpNzncDorJuzUTsInmNHpSTi6YBeIE8UUMhmAyYmgNAKlVAAD20dTWnsEcE2QKsG5pWIoOyLtNKCa4mwgiCmwqGryFIpSWYXT+OEXbcrcjOYdoqYWO4CPY8AezKwG6uKFAVsaU9ZigrhIkicJRw1WaCRpbnDqUSDocsQTBwDdKbTFUQgvAwXKIllld8mgWIG1f52kCUUtJAkI6CZe3hGCi8USSBJGaHgGZiNwt+1OXyABbMmH+JvdDKbDB9aFCCy4pAkhKwbeM+e5UgI4s1E0ln1z2UoheQdTwVKDQpF+ZwTh5HR1qaXH1DglzJRxarUwGHeJe6q42U9MvZKyZZxLHaJ7VATMyWX4I9BUEMkjhInoakAybaT4NXqnsEGsHEpCF0IQSzZW9WPxvIxwtKabMIIxtSyLTZmoXJHOHUIYdFiaWwLFZV1WHDahymQYtQcOThrMoN973qoGc2cEITKS1HtkxQMqEY1hp5FKTNEbAVTesTBJux9woZn9OWLcSUc5pKUKXXBNQXmpHIkrxY3IS5iSrsWxllsWS6AUfeChBNQMrU1pAxc1sFc8TTQCWpJZYXHoGTNQsoBm6iuTzFCg2S4LwjD+jkoCF8esRcAYq4MkfiD50FeIEOKKBibS5p7GqHlYRJEtkpoFESu3LoUQ0vQABgTQgWLqtKn8RCSQVdAWKiKMhMhyWMP4rEwSbsfcKzKHfa9/COUJNUYR0mehU3Tc0Xl2JadJDnwfLpG2QA6F6TNQ8B1YqXgejNRwnRvNPZioqSx7gH5VFUgLaJHoanzWfuYTkglRxEWSNPCbJU4A1xE+itThKgYZvtH4DxxbWt1F3oXHJQNRZYJVgIb6tZJMI2AYQlzQJKCjwX009hb5D3xSBUarqaTvdoNIIbGry5aGxkwqZTK/RbVJBJA4Cj6OpO9i0TqmQelCYeqgoDA2GXvWde2LMrRzRJXn1VRS5M3ae8UeuIEmUO9GR08DvBEYEoHanRIDOF7zUVM8LQv3GpjIu9uz7D+OTFKWSWegwO7V8GecsO7verTvSBBjATuEVjvAEOVeAKzuygFdhygStDFRSlhlEZSYzcvU91hhgFJwXI4prKx9gllzE0ecDjS89dA4qwLFTZl64NSQBbUiuJlwGmEwb2iypmLCo5JIlgiwyEG+lIACKQJmcpCTtFTvkZsEbHIFOm2IFiYygQsARpQ7izNjuTlc/ibg3gtxNeUHNBGWUHweoUKsw34GbFClhzu/hV3OStVg+aMEcGwj1ctF66iSQ7fmnbGDXqKlqgCd2j7Co8sWZ2rwQtNOHmSk4JvEHLVr4RrwTLYiDpUzJcTQA91YLLvaF9KwSyl7yL0KOeQi2b0IQUj4NRhJO2oPWgiptgVzhQPFAAAQGCnEglHpX7RRElLuyeohZk/N9goPKYi48+gh2prHdcDB3RSuF0ngh6TUAODb/AJBoDi6NFJHMA70QAsj3D8FQCzSkl9PZQqiNuJan0ojJKt1QUqbACyNe5jvQyfa8SSGw3jWv1L8VP8XuDfcoXvQVoTzoWPuNe76Ei+aAzYUXFLcqaRKCeqYHgVFOsWC5mXpV31598pPulaApLZh/F8AODb/kGnY64Qt2EJp2pFhU2IQd4psUl0qtYtZYNKhl2Aull/AllqTUnX6wykHMmKkk55YjM7SUg0ohyActMKmjEyYp9C7izQWUuqQwxvjMnYy70bcTTlBdcuWrhzdOr+VScQudje80GjATKYTo3PTwtVHcJHhrFhPYDlWodJMZIYW14ClhRYuS4o6zP5xQJyYtSCwo7LJUC0R694+ygcZWGWOPeKgaK0AcMuxE01jSLEFVGitNoqY4XrcrBwZ5wE+aHQRS0qQFREh7UEJgzFlCEDdzUDkpMTAI6jLaouw10ivroEgu/q+EVFLCe8ukczXvSlEPmi1gQbBYpUsqd38qKxLtkhvFyFvt/GqAqwGWrMbuWXgGVy9KnXmgKVJVSqutJmYUlurYRNIkWmcR901EjIjqKlWy0WlwAKvYp/kUWAkMjtVjM9NRfI1glNHIr4pgJBszBBSQ0CRpJ+wqcw5QFfk0eBDyUnDtLZ0aZENZWlUnEo7VdJJfkMnvSJoLPrnurMod9r3/AInBnAfQr3aCry5gK3CUPdX7B+aWBoMaABurgqKmBfML9lrNQGm5f7R4AADBWkSPdWJS77T6VgiSs7flqQ6JU4lB1sdJq59BKW/AuxjwuTMU8KPmnSAC4/8AorSAVZeU/LRAWD0D8KPVemAwve3epvATiBZHAsKievMjqA6nQKuCUG4sPugBTFA2yEgk7O1TECCdVj5r2BLDD4qCmRVbCT4NSAZNtJ8GrlyG95feqxIuNyPuNXD0msd+QZ7BT2dQpAB5iR6LVr5ITdJHpQk16WCC97UUY+spC1BQQe1AiqS0crTAQJWEYAIb6WqHWJqoBgHIGtZpB7gxnt4Q6kgtBDXNJg3cp7zUVuZOkPnULCYWtGTFhCaBAoERkR1P4rKU8jc7GkK08OiQZ18PU6Rl4gQJug9MBvR9gABABoeDKlEL7LiJ3WNGnSKav1yFM0kDCJiSqBrNIpKxhhk2c8qi0ghSXCUBLq1O7inJG7Z4oL4AGwWKhv8AbgRJyaNAeDoQsEBSS8NRmqSjChmQwm54Yy4qYoXQL7M8VcJMcWaAG99YjwMsggdR0qHDBHQNmGV6PsuANCqRkL1JHEnM0QQGi3pDFpfG2EA6rbagV5HG2y6oKu9Tth3ihegq5WHeqI5RFslNAwYBDOotpYTMlMNYdT1g5qVRwMBNXYaGlJkvAMFgNITJWFB2rOGmjWbHZdZLGqjkp1ywa3DB4TNyS/BMC6JM0DXSHLCACumf43Lu1IJf2tY5axzuQiRJsPd8LNMJYS/oqBDnglojsROlGi+JgtcCg6goxEsEeuRGT0K0zMxXEZZGmIDQKWEZFClkURdoSrbFiNFICCttaNRIOFzeqRQk0aAiWLwN9s1HGk47Iy3kvUoS2ChqLnEgFMUxFCvvKyV70S+uPMIPVR6HtkA3SIU7DXCFuwhP8Tm/9sxA3UPHrrURVGaw5kBYqO1ktNkDcUEXPEDEBGFv4IJtwcK/JV2yiDFwyWcqJMyOQNSUBlnw6kKaRB+locFBjMXsuMJQEu9qndxTkjds8VHZyZIJksCB1awWc0jbFWx4WEbYwmoHREkd6vXk7EA4Z6SVPDm5NyqPaoHzgrskwjo4KcM0CKRcYEJy1jr86IrKsxFvCWF3HhDY0y0rBV8rYbtGQa0/lmCUsOEpYWoWqQUglkpGJiSpYNDbHwhGAvUdN8qbBlDKtWCVibZA4VKvRfEKQjCvSmmjLJqJuiTmrogxz5Aj0kqBQDB7IVulFglOJsIxBpaB3pe64YR2yhsrGjsqMF2jwmN0hpUsCkgs1iiOYYkpGJi1IgwBKMBLAZiYL5omDViUfUwq44Jhgokmb/ySCEnSBCI5EoK6oYhIiYT6qpMuiyFIuqhtpNOHKMSMyKZDhqPbCZe1gZ2mSkcgZKzpVdXQy1qJXqChPp/byudliG6aXrQYA2/1BQkJgg2wQD/8LzqiHAH5XQy0B5sEy5AJOsUvPgknK8HegnyxifuNPJaCHBM0s2CZ5qypNijITBNuPPc7D8somw61kmoQSFExhIpZ2IrmAGwGTmjgnEJKUANwBJ1/s9uIQWCFeizrRarl3hodwud6feAqrEEAOZiCpO7vQFiUNzSHvRhmpGzUBimE6uAW4APqUX+ewIlkNA2SphYdN1A7jUZjXQcVXQCl80jO41mE6xRaWCbFgioN29CARESRNaeFYIZlA3NQGiTZXALcAHpJQBY4m4yyXCK4XlJolqcK3AN4mS245FZy62BBWRhtZ0pDOvBAEyUWN6Y5EMz5EJOsUxmI92AjknpRVfkRSJA7JV9duwCmCbGJpXfISsdQwHVmkrTxwwhGxgT+yX0OmyWSO5CyJiW1PTiw5wa3wOoVZgM4HhbaptKeKWwLpAtfapzQoloG/MhqGg5oAAuac4RCSLhvSUYc1sQ/YKCWkLk+GTQqRCMRkjgRU6UraxXWiRJi65vFN2iztVgGqZii0QCwKEu5ad6Ha2aZHqAXNZo4D03nhQbsxDFIpzIREASZjEUEqwZ2dgXiaycwTbGEBS1bODWzHYKS5GBpdglKdKQ6AKugliQmdoihm4zW9AWFG8U+w9m8MC+1gqxeOSMMuMSoLtSXeuiMwahc0VJlbUufL+yYbBYKwFAuUyy1z2zNNRXQAEQKhaUlqW0BuQLiSO9FPJJwkDQMIyZoPyKwjRA2FdhtrRz0EFTXDsRxWZQ77XvUoy0K0TRO4nvQuwwghEDdw4akBITygtZE2JzRFIqNaA7SyiCCEDFkrCaHeobK5HLCTY1cbVd7MZUEMmyb5qOJYyEK8UdqomAB6IqayRboh6BTto6C0g6hI96u1PBMrwGC9ppXFiTVYaKW4oyMgVyWDhRjipuy11mHpq0IGk5Ye8UTAtr1mf0TkrmBCwe9cEYBfalDL/O48OMVu4nkJzUIu9IvVRWNcpCUQhAA+vNJBJjEfhMjpSfMyFQ2uPpSCuAsxeyroWN6eidCQcQYLxFYcElaFELmCj7UVgdmSJDFxzRKnJ2GQNsCidsBGsyGACXd5rTVfBPwmR0aWPGwPWD6UrxABAuQsnqpSCIkjkpvqoczZjAmkzU4giAhryL4zTFREIgJstJ2AiMkRJfuNmkJQniUG0gGrF8iyyWQLS9eaKgGZzCAilEFok2QBAXFNupgp8jKYoRLR0TCYJwH9BIyrKQHdrVjaTCW8iwVdyLx0CUw700p9STgpMAi0UFcA0k2TbioGqbq5LMCLNRfZoLEpbEUYlLZEI1MdKTKFjJdOJKS8lCmETI0mb+36YiSldEtycI3VN83sQGW8s0QueuMIM0QWAoCFuuVihcGCtA3IH3q3kV1EuC1TI/hR1D+zSO0AJrAHLUPcjACW8OlY9ZbAu06kZoxcAgSpAfUpAqLDgpDADfWgIAmzf6umLImLxRJUEyIAg2661OGSCbgrIG1IkGUbCNpXZdr0NMQYsqAZm8N5ptWAKQvBOX+yJ8CYcDrhbaZqWmLmwgbIdbUkoQzZFIs+vH28c5SAwpVRON6crABBmQwVbhtS0Fn3BYIF7xpQBotCQdnZ4/sMxkk3zySTh0q6b7EEtJuZOKMIMFzUxgjrNAAAEAWAPupKQI9hC9Wo1kCiypF4tQEpDEcWcBThNKiM/CSR4Yf6vBEwBK1JcBOa/Va/Va/Va/Vakko4krEkJ+jYzGkbkqwX60ncgmR5gm6kZxQomIEoKRBsN85+/WZ0AXHcS49KAkZLEkNvQgqMjr2ioE3nk9P6sGu7a03Ada1WFbznRAuxQMB9qsgw7PlDSEvpppUCgkCtpFaxEUEEQmQBExrmgAAIAgD7HFQ1ABI7LK/2EmHzuMZ/FOfIok5TDeIt1pyWRlbEmpfr/3HskBWh+ufisi/U1FPgOPJhH7mi1pDoH4r2l1/ihEGXtSqqsviz7OPKpjvQQAeORX0d/GaUgKbg6rRVo9WGJPCUCZZjK3WV+nATROoCSQiUZDBrU8rCPZNs2uKbB8kj11swlqQODPk0VyrPPkbA+ak7QiWBQ8jY8zIGKutQ0gzwczYm8EfYoIjSkAJWDGxgOlFyUWHZERci6mKNS5ARHCJk/7LhCaHvTo61+S/5SioY+Qo8slouPQtUrmgmrpabtqHneC1Y0PW9CbWvhilR4kUemKjgdIPrCpcFlfkL+1c/qB/hRc0KRFl8JmTi0w0GXtTkD2YPrXtUAa3c8gxYsGRZ3VpgB25HuNIUYSLC3YEPAUZqIdcNQk26mX56lLDSZQ1M1nZtQAQfTEsZc3AO8RSu2EwkwW3A70Ymp4AgAMBVgi76wEHgcdaZDPDYee6015s5EICxK5WtehhmE6CII0MRagpFqhLCN1Su3pK65heYhHpU9BUjw2Frag4TpUEgdEqpDDLhSAWInla16CKwnhREBNFotQHKnwlQTdRV3SjV5uRyTQbSXd4oYaQ4F0YB1MNXRCZNSHqqLt2fq2ngsifh1NypwQS3dD603esbDsjceH/AK+WghYu+xUKGHM9NCk73ql9/EIAV2KRDBwZrE476+Mi0yt/NoW0iPtVwZcA6lmiUVktp7a9v4JD0Jp1oWEgd58CUwRcWzxPenzzdMGwwHB9FsIS0D1Kz5DJYGyDQangB9ADKh6B1ouIOAgZSBp+fqiioRG6ewNSmDzKUHME9vCdG6JGDMZCA6jSOEUOoRzZ7USFJ50W5zCKENusck+6VYXkk6Zn1VEjKm2Zn0VBDJI4SJ6Gu69+oKAQQ7BZ9HRCR6sZ90ogTAsOc9TSKO3PyECjdqryAmBwjyGoWYQzblTYj6wUj6tRpkhaIw4Dc0/mz9MgA7YTTvTgnFYsDWUMc+KzYgd6QLu4/WDv7ARLYZXpUlmTcToG53pJB0kHiSxGti8/fagUHXgNWkGsM/a2+aRqGVJVqTrUR4Rjaba1ExiitbPkOA9/P7V8BSAZEYSkCoW/2a96Ba8xZWyaP38e5LOtKSrKsr4wl5uHQSCOrfv4SuGbFh3L1xU6bJWQ3RZ8uJuvyLoG9RcJJkMqf54OKnXpquEtSKS1bgkr4ngj1KXPT6hnHukBCPCVd7t/UBkDZZpPH1+42ghh1lRjIjwQYUktkHej58kAVqFgkL0KeKlzQBGJd6IK6xIAUpIe6sbVtAARLgFFAFBjoEksDij5BRoEUEIuvV5uJMayCwSKJdjS54AjEu9HNSYzEKUkMaQhEQjkA3GUUhS7HoZG7UdcUE5ihwqZzYzE9qcDNEhtqgMb5+wc2CCWllGpvpWwgXCdNx0dT+Xd+dUASpcAU3brOFW4Qj0LtFZAAVO912LbVYBC2tYFgkytUaDMQjGYDEM8jQliIv8A/YkTSJ3Bll0diLxzH1YSUoGWsPKYKF9dTnhVbNh4XWgMFpgAIFpgZ60KcQLu8HScd6e4uz5QIfQi8z94DF2TbmvxTTTgwGwGPJBiXfakIEjXxQE0ouzfbwaQOM/QSRKSFOfFNau7JsmtWs4gn0X8ffe1PnyQCWNd038LtraYsWoKckhrBejHlLegSzFbO8UgAAVXAG9FCTSO9fDwBHF30Jr4nz4ZOv4P4wEChESRHRoPtoGVWwcHNPxBds7B3NnX75wOJIS3SRWCBwW6Mj6TMl33IEUElxQma4mvwAMksFAk8CRhIh7RzSA/SAGQJv23p0YGc5QmQyss2clAmVVoErQZcxJrYhHSa17hE6DcFtOjmrQavwBQhiBntS7bJwijci2EouO4TAA8pVUm2KMHGAgJAYCsJ4KnnEYZI6IM9KBoDaLoyLojwJ7YHukHrSgk/PI+01DnUjeAZ4mnFYIggPCYOIZtd3m98FOd1EMsBGAtjd5B/Pcuq4AurQKSoMnkSRQcXZ0pY9ygNN1NsTiajQ8sxwS4zd2qF2oUVJEIkTg8IXggzAokuLQvermnUKQh5Fu1OxodTkJZFF8OjQ8EgH62+6UBVgKRDTcHx/ukCqqyrr5H5xqf8o8MFfF5bES9fpKU3fCEHcfG+/g2TjhzQARESRNfvOzB1p0EIwnjFtpq6KSndJ4OBasBLqAY7U+WkbBsBYODys0yXQjS8AREzkBengOTIiNG/YKDWBBsBBXxKusUmWLvV/jXGuAkRsibUixnEKvDwcTg+9n4V7EKZYWM32plvYYOGxI0jNDstEJLCXgF4d/IMo0QMlosR4njwJYj3RfyHRUIXFyKAXQYQ4t0bsnBdIV7EqwlnP0oC0ggkRsjRZqR4mZCInIK70PxUatvMljXekUVOrqpUa4HFRlbzps02ylWVAzkYhqt80AABAYPAbkUDiT8qx4O4IwzMdNg70xeeRyBEjm/Q1rC+qF+PG02oTII62R2dqIKvEXcBKpxbePI7KbyLE3kENopWMYeED6cAUAQutWERdIetAvUgkwyIkIiSJil7w3yrShXwGUKTIaXCu60ZHaFyFrxRAkSCw8vYR38E46Xq+R9yiAAlWwFPMBgrPA/U+VFgPvQAIDB4Yun1rIZfEt8w9PIkZGzl/8AmjxISJcR+8vwTYzTKDCmmPBY4pgy7TutSpACbEma4E+jhEKc93Y5aGsgHkf7uvhLDEJpM0GuDV06fUuA3QUFyEzOlSKt4ScrkbPNLk8AUByTMkUUIHQnuZKZnyBJIj1xYUusY+mkWcdSiiV0pUemmhXxndKn2MohAhI6AYwoafeEIBjQSkxsoFh1oY+3dgJYOSYCrP2QSPQAjfyKgTIQs6xX7J+a/ZPzSqlxXueJd+mBLGcjFN5WjicxLehNsjcOcnF+lIFKiyeenDPSg87VAlLyYxURS0NiDGURNoM2WjFqScmXloskk3F6xYQ2MxSKElSCDBnF8CiuxCKcAw4AHjNTfeWzpiyCRyvQypQjEXlI4308FGtQE3SBoWncpsk1yAhZl1gwpgeJZl2qNww0maXthqXSI6s9pR9gABABoVLBGyCPlFZpXxmRcgCRKwlqZ+gCClCIWOqi4hhMt4lIiwRQQAe6vgwALipUD1CKSQCR8Fi77bW+sufSpatxUnKjUL70+KbEQIokWG3oVCU64mUMJviihpWZJIMFn8eEfK+dCs5kqESMrmZl3CXYM1CUGN+xwceBXBOOaL3fctdghmWxw9/KkzY554oAAQHi6gOv1pl7Hj+7x5VZKXOt/FCIIyOH7wmWEpmWTwSv8k9JprOnQb0mK/Z/zX7P+a/Z/wA1+z/mv2f81+z/AJoAuKw9kqUM5Bl1jPfwBUDLUBq16/UUCqAEq6VnItxSYU5gJpNbhOBcOpZ3qBWRvhcnoKL661hJLREq4IiGiYHF6GtOLrFptD1L70tNNNYTQ4OzQo5WS0oHJxtSZUW5AsU5X4pC1HC1iUZwUKnOL5ILoTHUoRlBTIECiPJTgulLdSXM1FUeUyt5SHcBIpByC7PuAwmeGrvGmXET3jRHFPzFAu7k8JQpY1mgAhkTBmKEMnCwiTFIk6uXSB0SXQpS5O8pZGXDg7tAgCrbLr6fXUCEkgxcmn+RxiGEiXV0+7nzZfbKQFhF70DKm8yCVwhbw+lRCf44O+sEEEbfSZ5KMkjORmKXEzVrY14FitALAKdCqBAhQouMeHJD3BCQgzd61eCMTklAHiKVbnCgNc/VTRAs/VCVLKHF6FGUVlJGhaYHDIzmTMa0R7JSqkbw8H38FIWQNkaPkVDZzmEIHYqUhYPVbFlw2ovMro0GCYELRz4JkjAus8g1VIUNy6K4FzrE9Go1RhyjPqaNAJNocPjYrGAUupbK6tRGWgyWuJqJolAxV5IOkqKb+BbNc3I5s4xxilvYWDIUFI0xQaiAmIVUFNc1GrIchM+zcaNvAJRJpKim/glGfWessSdsU+5j7UXaxxjwcuOZoWHK2KTVdJzeq7l0R9xjoLbg6eXXymhgy7FGggDy8BTCAH6jl6+KGct3v5l7Gv67fembWGGkIEP0wVgJa/SI+qg6iScvyoUpL7SWFZAbZsFJ6FMNqzBbUYj3KXnHGwRBcSHtTarEhbIKEgj3oQRpMUoThC3Wioi+SAhHDgqbpGPnJGtoMfonFSUGWdO7oTvUi24r3yF2U9a3QnCRS5JQdJpiyGiLoe6XkisPwl86TlJLvSRYHDgBf1IRT5XpaGE9aaykoviEelBF6LBbV3XVbtRGzY6MF+6q8WiCCcmoE8tAo+pTambqyX7FWWAyEubdirDiCsiGGk/ypEmQg4ZByWttRuHxFnsD0NdfESxFt3aJbvQY8lkWkocmU1GcTOeVdVbr5YfV4zCLmpTaR5rqy8iu+V6cvQRuIZjqdelHXUJACADY+3aqJvI1XBSalKjKrq+QEEqwUaGdXd87j6awU5fB0tExz5xUKRGRNKHCGDs0+9FwJr/Oado9a4D1pNSW3Fcz6VzPpXM+lDAEJJejaPWl0OhWEX31+sMvHd4P2VAkF39XwihhowS4D2mDcKlcUQuo+1BMJASk63ZXbTVn+MgSiIRC5NKEnqwZlYdYOhRhlYF0tAbSaXkAESWpYkWqw02zr/lRukd1IYNbhHNKojlYbk3Zjioum9zfSHBLQMWc7NotCp1/SmjdQyCOGpIS4yQQsDeCVajIXLmGvqp9FCTNxsMz6ngLpoL3V2ONGp25BDAwBHap2TFM3TP9LR9lJaacsNthAyb0D0k2EJH+KWZGSDk2CDkNklF+oHGJmwRQLW/lBtoI0CpwScvRwdd/LERXfZv9AAjPx9OAjlz4nsiHihkk86WN3UMlTejB6/wHv3k/fbfYg2yQsCACkw5qxckzEShJfBzfobIhQCSN6QREkclWUYBS3YL0aBsegACs01UWVNLukRNYoTK2NkiEhNGoRkCG2kCVcxi7tkhGHwJMHRijuSTtT15EVkdLJinrKGFBCI5GjpiIHY5IBv4LNUoxsoBGnacKhRkkEs03Wm1tMsiMWx5EpXOAnIE2ZWnfpQljFvBZEMoNvqsXQWGA7HTbpUF8B4Dv/FJTUCyNIkBLatYi4IIQhLBLOFSHRkuMim8hnn+T0FBzbT8vK2i5elAAAWC3mUCWprY7/UKeSMjsNJwul6H2dqfgE828uFyTu+v5ffKCVpdHrSPJNnxjhjV2pYiQA9KEkf4g0YS5ctw5A9lQkVA2U7N3l3o+4EIfyFEDgE63+qvuYZolxThI0AwKEJCYeT+Jz3dP13FioRLTXDEwx2/k2Ah/Y070pMvXE4O3lucv8fMTL6UrfG31THJhrJHfz6gGzii7p84o6YPBeltkN29F4IQS1ykDyY2cJ2fu4JpwsU52ctGjTAo+Rb9Iqch1JBVicFvBAEjkqcF1hqOmNXaggW8H5W0AZVzpUNVyNfY91SuASNHK1PTNCJJj+Fk+YQNC+F9aDL5TEam7G+tIvi5s8SwH1goLBACSXG+pSFwgQWl5jP8AChSDuPyaTRMyvbTNT86NvxWp2UNPxipv9N3FY6+0/KKgXLyP51BuHmH5V+8fmv8Ay6nRHteG/Chv0xsqd7oj8qisuxfe2hCJ+7EqKF3T4qnMHkD2/iFjlcPDB3ags48i7236UAAGPCTepN6k3KtlzSKVl+wUyPSltFLxas+W38RiZU5AnkQsh9fA/P3K0iegEaGuhWraCR2iA7FYvXwGZwhQyWF9aUCXFLmYlMB669qVET33sNyhQikGRHUqS7GlHM3iuIfDkoxDHAncGGmwVBBI2Ilo4Y1oRBERLP8ABpA5fZkD0FO+WIsQFnlQFS1DkIUYZysO0/XIS5LYupMAWL0XC0cfe8EFR6opkCtPmEVJGnEd7ye1WoS5YnmDHrTlE3E6jvas4RyOHQI96LxpyRN3L4oTKrloGK9CPjSLhBrOdmNQE6Nv81RvViW3NNmKLD4KjbdiCj2r9q/FDIo2RX7V+KHhJsr+KRnLZWepU5PnUN9Sk3Fna/MVLQ3c3soqa4edFZ/B1lH3V45wHPUDUCA2kl7s96h2Vldekb2oM0m4Z+lrUcQcsY9b9qVCVgbdJFNCeEEeifwCgK1B7LXoZ6+DZjxz3Q8EVoPuVbOlYM8ECEkq1aaePz0QrJ6UABkSTo/b2h41xahyJSlVVVVlXwdxx4A0x6lHsHhKbMg1S8HWI8ZrJDHRNvWJ8AmAJ4OX2Dwdhz4vll1dSmfSE7fajwHdB80NGmxJ6T9UQwTpEhYNFDO5TzJNkdYyHBQf7kgCAAwH1wRMAStXaWHIZQkxa33CgKsBlqDZahnWRU8cYkCtIX4KmweuJ2ZPSo85cGB0UHrUoIwVXlmqGQnuzufhUZZcS3Ww+5RAUQiSNX8bLO/gDUyvuvxoaeadiL9zSrjdSycvpTTbEtdSMhPWpwvZy/Di6hRgsJinrKTufeOshnurtnxwdfHpJfq+Hu/vRc58QVaJ9akC/wDgPb7chGzJ7eIoPhiGr1JqXMT3CR8B4zhO7lgoMTY5gmQfnSjEDAwBYPC6Aq/akPBTHbxFMssnIv8AftGWklssO3+qQuWVS17I+Kn7ku8vtp2rS0hcr8mz97FRGTelsE5WvH2qGDGAfTJ7FMlthSjoTrULHTtgOtrsUGF4XQoC7QagCOqxPY+s1BixDIPVAv8ACSrIUPsXuppnSRCPSpNkbS4psR/agmVaET8t0SpmvrBPpHVKxtSWOik+4gNylwIfPjg6+HKF3j7r72w2X8YrQIq8XIB0s/b+5/LyRD4DMDpcX+8UoEuKdSZy2sHrl5qHsLkjR4da9oaoTRX4/wCqZfBYFpZV8f1u77OyYkHUNXx9kfHgCldynn0yUIgjIkn3h96ACyFMpGK1U+MgJh5PsCllIBdVtUzHXKXSz31fJ8As7A7qRZy4OB01Digy8siQbpKg4hREKXVyu7/FoIiSOSoAOQr+63HrNaEQqJ1hlR2aBRFZiG5COtEuKxYbtDPqKOWZtAnRkw8faxqyd6uvnxGEaEalf6HxzTPz96Xwkod50qCeRgMFQFbSe5b3+39z+XkgXd4WTIycE3qElKsiQbLA93xWaypO5HtU7j7Z3F93wgD1eT9bu+zd05I6q/54+yPjxYa7L6PvG4OIgAbxPSrVT0sQmF9p+rG8pGP6/sqanMNJHAE9Cmwt3Gi596FTc5K8O8SUgBW613iYehQNWgEAbAfyR43IxPSIetPDJVpDiAOs1hWdxriE9Wo5LsWW7Qz6igSDFoX0VMP2V7pJDgg9vIg0TlIenk5B81j7tSgHu1ut3b0AFjwX/wCPzRc+29z+XkGGaIGmXiFokjS5kRDZnYbeIY2W0AqDOFiUwW7ARSgK6UiXyfrd32SgKtT1HC5YHWPH2R8eC1lABqtf+YWj70r0ScuBAE7z9HOE9IOUVH/tUy7b0mpOOwAvhnK6zUvcNIcMv6tRCBlyfGBwrVkxwkr1gv3/AJk8bkYnpEPWkRUykhwRB1msWNTEOyOrUAnVAwO0M+oUCQYtC+iph+txYn0KdXKPqz5SA1WaOY8ic4eK5FciobqjT9plEKQoMrigBA6uPN/7cBP23ufy8ucw+GNlz4DPYHt4yWkOaRHcE9vCVhpny/rd32MTssN02CmFu6X6mvTFaKVH3s+3h7I+PCK0qbyUldh4P8N9vvZ68rI3BLaL38qgKsBlq9lF5nNEsPWKWCsincFp3KOy7gDiIX0rJUxzOyzHpUwPgjDuSDtWP588bkYnpEPWkxky0hwQB1msKzOANbI61OSmiy3aGfUKBIMWhfRUw/TQ5uF2b5vn/NToqdHnw7/sli7SLFpvSrmhRLYdXz/rhBH2zjmAu0weaQlnSnahJHZKEWcDZKbeAT14rLOp6cVC5fMoIwBeVR8fXUBVgKsdFl36G77Uz4LpPpseFyyuYD+DrUWKxFg7zmaOlxoEPqU7VYvI42ir55KAkNHLfem5gMyfzO9QcFPI/k3Ksbdtj4/j7wBxyhBbOjvQiSeQkF443JEQHDRpZi8E+kdRoWb49AAf8MZL5GL6Q+6kE4FhJ2IA6jULRpGw1jB1qbwyczsX/UKOIHwBKfIoZY8n6Xf5vY+DbNy/nUU0+y0vfxJN5znp/tkbQBAluA6a7lBdroJvGTuV/wCzr/2df+zr/wBnQLJ6uiEuep8UfXAH3O1c1PyN62vSKWV9XX/s6/8AZ1/7Ov8A2dSVNvELdfwqAigxABB7B9aJyWG/QKUW75cctemPAUrWYDdaVa6d5F3g/Pm7H2T8p8VsUFM/5s0HAC2P/m5Vh4tkY6fx92ghZK+CIiTapwtiESiJjn/jzFkgfB/dTQGyXoQh2aws4ykNcx1qfJ7MLuxf7oVih4gd01LC4TYUsZsqclbzgcp2fTfrPiZLf5/m9v4RLU/QXyPSuFSiIVMbPrTLd8eiWfOYHD7w7MUMw3WHbP2gVgdl/QUJgQ3gPzS4mO2D1JoSAWTM2irXhZz6G72rNeBJ7HHhcs7mA9HBQ5Boau66vigAASrYKTBptk9WKahxFgs96KwiVWez4dj6N16fxUFADXP/AI6VAxE9H/KD64PD4/j7oH0IjqIzDRqiR2hSJgnH/JCPRh8H91FD+WO1lDhGkKSzdENYrHNRCdmRnzcRZoO7xFHHrSPMve+fDD1fp2AW1+skKc+M2YbPR8/CHw/eDYFi8s6yzH2aGWxLs/7TpSMqsr4sIbMELh4okIRhKFK1mA3WlWkneRd4Pz5DMCVOgUzCb1eeXh7I+KVi0ohHhKgSusEH4a+Fz6Ldn8fxSUBK4+TZoOAlMf8Azcr0Hm3x/H3LnBtisR4STipzLlEuEuJj/kwSVcAkBguutqQNbCzsGXoLatGI6AgbOTedU+KCI4SKVEhSOoeVSjZ8MPV+rFIOlESYfpTHN/JBC6D+PKp+QDvRCaAen3gCS6UWEETM5+yxMMugTTJype/lt2JghOi4ijSTQuu65PlXLly4DIZEJ1Ak9/H2R8eD/wAHHbTvXselCfDsfEp8fxWxQU3/AM2agYCeRqxtXG98+PuAXh30uGYd6MFCe2ZRmD/kweRAhDZHNAAACALAHlSIgYfpz5bx4Hwwdfr/AJfpX0yX8kcaWPlfcmelz8fesADpRZSzERj7KdjP4vN1OUenmhzZ+jx9kfHiBjRy1kGaTGpQ1v05v08LnzbP4b7VJUEtP/mzUnAGUf8AyrHxbP4fx9uwsu2lxxJtSqixt2U4l/5mBi055X8Pl6gt4OtxyUbI/W/L9OfNNPFIJkZoZB38iplnZ5sPvZwHuHotev2WARF0bUXN0P8AvlE7uhDOozMUR1eLU2SLVwfv0rg/fpXB+/SmfPpXYReoEUtn3dgJNDx9kfHg90JXOx3rKUl1WaxtCWXcipbByCxx+YaGe+YXeL/qFAbchsZzrPtUlAS0f8qBiJZH/KHtcsEajaXOKkoeidX0KM7GX2ofNbpCiytkbn2bCvzsHlDiZoxGMqxJlBt/zLBMQvcfJ5UoTRoRBNfBCRhq2tn6qJHX6djseRym4+PJIJeI9D5+9EQk/wBQb3x9nCQBRGAbdaVqDcSHxMa9BjmMxSIqVZWgaHUwmyalXXKw6/C4eGpImbVYDLM5blMuCtdTSsGwYDgpawgiaJVqHkiIcMg8+Hsj4priQCVqPpSyBDEKL7tZigh39gQh60XrQcY3gs7lPlAwiQngXU4eXeFWgJj8pBJ1lolgkBwjbg8j4FXNBsNSrZEI1jyvsieZ9v0xElKyUokuVYX3/wCZy4l4hE9qUwFToqHywp0eRi1xvQiSMn0rSXaRKt/pi/hPJ0Xb08TYlQButEvSHrr96K4FpAPpMwm/2kG2lcnRL0lkjwf6KSBE1fwxUERpV6yuhn5NHkowh3wm46lROBpu9Kc8vLjZyjjwZrsxgbrAVZQIQS5wcvLSCQlqZSLK/hiniyRKIW6A06leUJXVZXyO1LrgdIh61kT0Hf2BCHrWSzMSN0LO5SM6JRIhmiysY8ur3fKhsMcse4/ZIifSGCVmHelRbYV4kmO3/NTsb0Hb/XltmnlKJo/RgnutT9QyHHkzXR4u6T68Y9/vgKhQi7YLyR9zekI96BdTYpixPhHze89KtuRZ3Srz1+mW2BN/yjV7eWAgwmbunmQjDOiI/P2UxUbNjZnUjFAAAQH/ADUQmw2WMnc8ooiZKEzU8nu/OoErTyLD5+skiUiKOni5ujfpQAGRLeFtK740H318dDDLJmHWgg6gDIBhOyfZIEACVcFJswa7dm9IZOAf6pQN7XPzT0o2nnsNTVxRtFtcz4PBmOzGBusBQYmeIs4a9/ajCHfCbjqeFlzsJt8nThoNO0Dr2TSlRoh/+AoVERYRc4hqepWkmfJk96NECRLiPgWwA1fKNSGeBu9CVPSpQl/gSXe7SqqsrnwB03LPbyxUnJ3rvd+PsjlrREMhMGb2z/zijza6Et+x8sCeHHXye786u0fYR7T5IbttX4p3zUuGnegAALH30KoARuIDFpuUp6QAMpQDSfsoQyxHQ/B5Il67juc1k2VndYauiEIpY4ODloo+zF03TdfBw5YdVutGrRXdQt8DJyURdcuxQcoDw9kfHgRCEoY3RGTipYt/jKXe7SqVVXK+AVcwhe1R2vryP9MtSkqFEC0LQ1bzpUNlbMWH7ipHRlKCGZOJ8AWxRQheVuINDmjUjAsAYD7KFDrCTBIjxGP+cEyznDPdQIIGEdE8goiZKAdWvXx939vhc9KRFHxJkjM2oRbBvgll01/gI10yVVkb2hux9jvWR1ClVVZV8oKBWxWoxiSv1f8A1X6v/uv1f/dfq/8Auv1f/VIzIGwdVjx9kfHgkiNEn7BDgeKkk3f+5y1Dsm67xB7rQI00B9CkcZe7DoUPU6+FqhLeNb+V7ZqIFJCZ3ZZXVq/k/ThQ4UwD7m/2aRkKRABeI60u4YIpCuviY/51GwYDV16fLy5XDnx975gCrYqR3fY4zPz4qdmEOCuHQz/AvUlCMTc2KyW+xcLL7R5i3in0PMzeEvU8fZHx4qdSRAlCV58FAVbUj1O70KHqdfC1QlvHzr2qCmgMu6uq6v2xBABQWCEyMl6v2mHeET3/AOdD2wjUak/lfoLmvln9j/PAURNKiN3kAlaVcaH2Z7j5osYMqWLK/irDEA/Ly/wIEQQKl0KyYL0cJiAi9mDcR+wSbOKjleybr/PLOkDeIzDCNSyWwgk5uHhr/wAMr/wyv/DK/wDDKFwTxBCmp4+yPjwkAmNIDTq4KAAAsUsUzg5reiyh6nXp4WaEt41517VBQAGu6uq6v28uaJgESjOq9/8Aimg4wn+9NPAJk9uwvrSLRYN+go3DLA71Iq/XWGLezavLjx+fW6/P+IprxLf/AGGv/bo/9uj/ANuj/wBuiN3COXRrJ02+iB0ZQX3j81JIPZNEdR8gwyUMDh7+EarXHkbE2PtEZtgD5eKBiCGK6/w/goawvcISj2RKUi0s2O32KcblwyqXKtE5O5pUUUR8HzWuc7jgMLTIpuHuOpyeFjNgEyXC5OGtWzRlbDI8PkGEJdLC3NmlSvhHpvQUg2+KZjWCRHA3aJTFu2Xd/BSxXNy30LHqdengFAZbwe+/aoKAg1dVdV1ftwQcJDU89QKASgleL/8ADTRiJDSODK7FSFNhxM0hDR0czAOsqOyhd3KbgZJIdhodaCGvQAnrUwnwgARqSpogI4EPQ+0m6CPC7cGkbthH5OPIiEYSttDJSQO3k+I+zew2AVYAfo/g/hHorSMS0BRMARMUwHVohMPJ9kpK3dBoCABseDQRi3Z91pT4UbxWeJjrjws9zDI7DCVckbCbnJw8PkAgE2b1CY3AHwWKZ6pbiWFPc6+FihLePnXtUFAAa7q6rq/cH60IAYFgyIE0Yz/wdr+qRkHcXBSp8QyTgRHpQVjLMqD9ARSw7s3g6NoxsUK4Ocnv91C4htFzh3Ke+eHQ3Wp5EBGEogG2yjHj8R9kw/TGA3dip4wDF7cP4VYuoKSVJUKCQYFtAPtkEhqRD5XFu2XtWbVQZ5HU5PCwGwEpLhcOGli7UythkfERwlKAq2rknc7k9zr08LNCW8dfK9qgpoDXdXVdX7iAQJQJYu4KXv8AAEIJF0z3/wCCMtD2pdoW7hUuJRqRvBHYqVLDEul2U+1RiLYY1yyLl++cTtqB91T9kG0eg2PkFETSlYkSfFCuLfYweBds6bvFZpWb3H+HhL7yYEhJoaRzWJYQIEkwm/26QRvHZ91pT4UdKzxfJbwHu8MhsMJWJwlWWbGb7NJHhJgOxal0BFxRxQYlBpNZLw63qGq5DA3Ks0NbxrfyvaoKAA13V1XV+5HyIoIywTwu1rvp1gIlX/gA8LpgXljvvxQFS1So+jHtCoPUdMl7gd5eaAAAEAWAP4EHzQCRORqc8mVL9/4aR80AhE3nxLi1s3KE2I4KsI/P2CVkQASrTk7MHLq06UZxoBAfxEFqth2mF4gmTwvH3CCIkjkpOW5cLcbvanrMRGTSHUdygAAIDB4eyPjwYviQlThPFQdFBrurqur9yuIMyFVWALu9tKCT8tI6W/n25RyhfgHLBSDyJVFZnJdnRaTyyhS73DqZef4aKGJou9+KxvL7Bzq7UqQDCJCPiJSMNaQ7lCyh+oiAKrAGtQBk1znH+qythe8++n8WJyAzAzTpEJWe2G1ZeJ0+5mg5H1R+PH2R8eKDSkvMPuQ+wAGHW6ObWKHEeLAFv51bTggDVWpqQYSxDAH/AI1MX1CyFy624oFLACADABp/Emtu2sPcqHc0D0Es06xxqJ9RbxQlI0HGea2s7P0FgvGQt6tqikP1HBQw/qhLjt/HQjQLMqWSDdnWjbAFFxHU+4UOWU3ZGT58fZHx4AqASralUy/1g+4Ir+lOSNLzgUpxwJWkyjU/nZvdJJwPyHtRFfBVaC+VPwFAJ8SLk1V11/jQEAjkb1PLzkUm3ZQh7UnIPhL3KvYX7IlrC6jDl+m1apP22qyr6f4ViB5fK1Hx3VXsVGO6BH3moBGcn3oAAAYC38ga4ijTeBZyWaF2HNVgLBL9wlULd7DDSK1Qj4eyPjwjXypGPEcGv3Lv99UigIOp/OYqbZ65i1BhGVWc1D7JGk7yr6zY0/60wSceAl4RsSUCS3MgJpc/P3BMiJsH+lIpaSGXo04QqLhMdaPjG96HqvxR32gEAG33EDoNhkuyHOkfzjqItwDVpxoxPb2VmFob6qsgsDJT9Af9e1TNZTYAP/KzpkMymm0jo/yJ1gKjABlWjf4SSQsPcbTmoL/zY1Cy30Q5VoFTdqgbo2+bFC/LYZVyjdWq/wDYAgUIiSI6NFnMDYHIdm04qSUkkJTr/HoEACVbAFZMau5Fydzc1oiNgoQD4DQ/mxzmQIdGeq+2tFWpHAA3w2tvuDg/9SYDQD/swwYsGEoCeoYovSFO4FydY3/jpXFMDePuN6iCTfgOGn83EXOASdg9V9s06YAagH9JKoANBwBAAWA/7WV2rlzVZlj/AO0MQQszbEmvw/i9O+RgqYNQa2wmAcGX85cpYxErBuVoUWNJqAG7WtJz4ODrKGgCAAwHmeH4cA1VsFLqPI2RAUhsly38TchSV6MEML5fwyA1aJjOUgScLP0gRNglo4wJgieEO59qgiNFnIgiY0DQ4KbRnsBa57n8Tk1TlPsH5xQYoBAbNgcYaGESqEqrqrdf5tDolIKB5RHGvljVXRaj1cJAEAGx5lrqUgBKrsVI05iQYx5WhpMFOF3EJMWGCMFftxuhCZHa5QFIyKGkmU7pjzBNHpYQMGKneIYiRqwcv0mVCzJRMAQRIOaSMO1Zsr8skup93I4oEr41fom0k5TCKYLnLFSKuQAEVFZURmx9InMIj3oL7pIJEFpLw2NkqAEpYAT0C56fbZFDFsw2Np4clLBhhcoN1WsBykxwmR4f4ZKLAybucPao3kE1lYX03BQPBAoANAP5tQFWAy0gUgmrh5hjWb0JfXUuqmqt188ApTPC9ikFk7hcVA7+BB6wgpEBbSRu4oHgFIL7hucTRr6UUCBthlInkDDX3mRFrEkG7RzozG1xgAdJiaiHNnDYQQSAs8X8jk86GZBLjtQl8UfsjK6GHNGqzQaUKZCRyiY8mUkXSELIsZalqAgOmQtwnLSU2qsPHsxlF4z4Lv33XYIAA3mcnlORTZmCw5W1IgcBZwLEmNZWodMJEPGa9qMbVwy2oq9inBm5JrAxlWw9CmXCEFiZazaepTsYP7N2aaiF8KE+6AFUJfmk5mi5awTK+kJUPx+4AeTWktzgDJE4mWg6UJBOCvMzhGufmrI4BlKyuRs+BM2kMBy6CbeVCtsJowWHiv2T80XNXzEAZuu/kiwRUEhAsIG7vtFDr45wGzDVJigT+mb0mVLBo4aVQRDBy9lyfWk7lA47aQ2NZl3qT7E0CWMsLCMWtWD8C3NeJibHSuOcWHJ9Coml1hfBJgJTp5HhEmwhMWGRXmj0YyoQSQjHaoYA0LlXsA8NLR2LgEx5M0UWtZhiehQmW6kZ3ZZipE1YA1LcJovgzZhogQDpNDVcMAmBFpIzQB8nC4BGaMxVAkZGFva1qOtjByBqMRfXwNIiW7aeyyeDk7SoSQMNAljWKSVhxRYwMGJpfTLbEIHuEyjNvIfisYysBykKt0iie3NoZp/aZnlmIbMzis1IwBuFKKDYToXy+3yNqSSdSGpYklmG0KITWaKZAKQUSAutqEST+CjquMFL2KfErN2CUBY1tS4zO7AN3YW1v/OzduZws9Ml1pSCmPDu5C3wMD6BUA1vSomdcdOEf54Ny3sQmhoAVzZnNAqCQY7jFg1mhuxAgJhZ3EnF+vkRftsFtvsuAzDejkykSWMN3pIKWJJhkLYfK9AUMu8symSdbHZbjPkxtE8jIKbOHirpzlmLKLGYxai0YwfRkMXujbb6DIkkEsV6VAki+arf2MaBGJEvBB80TAuAPCf5p/sa6JPF8vdQJIvnoSMLJA9Kg1Z5xPIGZzV2h5EAvYQq0TwajbtMO/gzObXAz6eW13riSyjZbwkOAAsBSB0XfyPo4aBFMwLF8lXVcHJyiW8Nq/Y3QARDNAQSRsVASSfAqOYl2F7rvAj61Bc0Mb3hu0n1qZgcxxfqL38giM44GZidEoF2whjuLL1aNeSkSZmJuJt4fsdzwbH+slIUk7ikQ32UlakgBKLAmv3uyiBC03du0CHa/wCp4EWWgB3FY9vCB1SSUZIGjhpBKjRuSC0drUg+dl2VyQdWbbeRT0SCkIGd3XQpphhZOFxGsFFOIrSsVybta/fbUhKgCq9f3X1vSzuNU4OOtMmEBgJkW5O2lG3wtghYInLbGfv2hRqxPAavBTkXxZQhYTZ3otKbFVUjlOh/PEQJXedZd13xU9oJXao2z8LfRcyHnQgcjei30vLpGZUOmRmgOvY27lIKwE21WVANcFQ0jliHNmxxQUnKDe4uQLfTwi6MJgFCl4zfXwLVwWy2DGoxJQwuY4ogAw1j3plBRkJs4nwaOpo5A5RiCt8UAkKikCJRBLx5Xua1SvcWCzNhHFODHwBauABE4tSGoQuxBBJvPaKljmRwrOHExJFqDCZVQFDCbvYPK45nDxE2wiVXpeCpuhOEJ1miZrhgOTiQmntImh0ECxOEdKzrcFRRvQmWUXisdkjMiCHDerKRnp1ghIu6UA2YeypoDTbpS1h5Zky7x4JP1OygllY7yDUzJjce2OgNaJu18l9oRxZV9aM4ZEBLsBEGC1S2/hkcQO4vakDM1lgsx0EuzHljNGAlZW2p8Az8yti4WWU7eRWDBBICLi7DzFIxdPBbXPbTQM4QqS0dwI4I8nJlVIWBj9uwqQJOy+6HyaBCLQxYAvLHgioSZRtdKBxz4aehGdmUiwnxUVyyJBbtUUzoW4SIu5CfAgTEBVmyJrSWLPZWc0vhUxmLMbpGKC3zYWCCMO9MlNYNek3A3mv3uyjwmtZbsNmZMaVO4NiJ7qh9jwfWvWNUdG44EaXoiqBXTORvh0ogmIOYgDK4TViKZkGhrLMW4mLUoMU4clBBuYxOPBUQHRQQ2gMb0uNJxyoAMo7URF7eBANWJRrFX0TGZoZouagjguomU4ulcYr99tScVAAsILSLBnWkwsJISZO6z0B+7i3pKWMgkbmNPSrmg4SVmBbwYKm4k5BQyWaEST7qAk0FldBK9qcCdogKi5pv0qYhUVAbsrAcRpSnBzUgOW/88/5xIAStAgCutwhwxPKoY+myWgKBmBtwPagqDJ3oiTD1PgpI05yJ6x4Rrc5JhDotAL8Es2pbKA6PhmsmCBp6x4ZGzaEkHLinCdEktY84JO/mH7Ig0A757eJhIYTXvQsqwEB2PKuOoOpAvhDHWgAAIDB4IrMgI6T4sdtgHo0RNsAD0PKjaMhI9mnCgyhD28IeizIAEJjFwO9Q3gHAP9dXX6jhbyEfU+iCgLIYJG058WYLKZRPmMmGqF8BVtCNCxmKHLJeMm40CAAgAgPBcfSDbCFLg3KWpY0NmRZYWzB4GEhhNe9CyrAQHY8LL3CCAC+sCm0+IRk4RhHOfBisqDvQjnkAE5X74NygAAABAGn3rFrZYBdVb0ikhujFlRsBltYo9kC6xAMCe/28czWEVsysZqbOJBAYkApF4ogdJkEFSWdYtRGTZgy7q3Xl+9TMGZDAmATUeD0FGTiuqoJJBYJiOZeaz9EJmCCynMgk2NAouoAa4VRj7WU4zQUNBo9yDNQnmmyswNS7z/Qw8hhUTIjkoCaCE2IW0UiqFaAbxFicWo+wFGVUATutIZKGJUJzIpQ+sHSpKJKFCA7UqaUECCEAK60ppIEizG84w7Xo3RBmBJHgFsUgpKgJHUnWgAAIAgD7+K2SF2VPg0MsTAgyRfFPKVE6dGQPRKesWwwrhilGUFMwQXlCaJB8genLxy2qCy7JA6C/NC3oUBEJZi9AZ8J8Nh4iZFhi1HYpIgyIGDlY2pgIYjEcgRjpNSqyHIY9myVEbFq3Ky8ImMYIe00kJwQBqrin2ySCkbLH2pSGR3kkn0GpVxlSj/TU0q7RhMlKNslQmINAaIKSVGg2o6bIFgVl0oo0ZYybsDsLvH1ECoJ+hcNsngrG8++nF6q7iP6KwpaZOo1nZwAISsYw7VcBc9KEIkzFPJDFCSgl2gmc0hDCyyb2eKmzpRkiQFdVHgZsmUZhol2jskJxCmdVEBujWkOWCwsnSmeBo6iMw0KGHy0kxEPmgeA1mihsxtTAWnSgC2U0kplgkDcWbEUBNGWQcjc2rd34bsLoazbREMXVy/wdjM9NRfI0amZPlxJsSs0tKZNpiEmNgvTsYhO7dTYLrRlmPSKGx0lwNOlKvs0qjAWA6FG3qjoTVuJnmgzPhsZHVZKNkFGJQu1MZLVuqWkqsQTgsIMCwsVl3FEgMIfBkpZ4J6M2+tvSoIZJHCRPQ1IBk20nwaEMSFC3Q4gHlpi0mKlpGCuxjeoc06iBXIEjFqYkAHAzDqGkIEc4xvyVfzMv6L2ir0dgGyE+hBwzWOACmA2OqQ7/AFHdoSDhD0kOE0CAAABABof0iRM9wE0vTWYQtw0KBcICeQp5swklDwAbBH8TmkPuHSO1EZA9wArDKMxNIARGEbIlOrFkspbLBWQ1L1KpIn0X4V/Wj8HBsWkyIxMV/wCwpPN4dt0VamAKkkiwk5oe5WLjGi+54LQPD4ATV5lnu6y9KTMlxNAD3VC6VFgFy8RWdrGGlpSxsWZq6xOAJ1CMclWv+ZERJGWHepdLAMZOHutIZASd/wAMKgJZTv5mMUqlGHMTWdCVoHISaBF911dfppMpYGwljosOilDbUKliLnTaN5/r6KWE95dI5mvcEscPmiMgq2BBTjjj2L2PYttqj0s1brWHGTrSEyUExQt4UTrFT0uDJcDJJEb60NOEczdUxmAvRYCDILKQXcDVqLG7Bwo+opFyAwokGGpB3q7Hqk+unquoWUJjmytsBSkpRy8GZcAKuTMU8KPmikBJDI+wSpDh9gxikNno5rP2SU7KAb3pMLdwRLXb2AVJxCreZlHs1BhInw2fcVEhH2rGeCatsEgmG98QcHP1LmwN/phy8iP6/htAwQSLE2vEVO93lCAwYt4HNSJUwZUG0klCnJ+R8MA2QepTvilyGiNJnhY8rS5x1WiwFvIeJVMxQ5F3aVdakxgPqV7NCKxykgnM24xSvPIMmwOxajooQUQdqDqzzTHNgHMESdK3/wBDis2mfJUIhHJFKAcwOHKB1Wi+sGSFxTL0LHFWblGCQtOaxxGAtgumCoWrBSYnDYDLzFTPkcJuu2Y5ofA/4HAeh9N1kmUYQPuicxQYGJCyN/sW3n+yDKOH9lUIjMGk1FbAskhaVj6KNruLdBEyyAtpNaGeShFpmFjijs8AIFe5eJy6/ULLiMLKWYMTI/uCEWGJiT3QFSvLAXKnuWeh/YQj0gmNMTmJJr9W/NCoF51H5aKu+EDuk8ygKsBlpNywzaaRj2mk75YNkLO8oofSyDobroF2iozVzoG+pTs4IcQLEIS+R+wvmCDUsHhSvSjviwMSGJeXX7MnyA2WjOMInWgvEGGRhgD5hSpYCWwyvBSKmDw5FqxGC7G7wUsjY2c9qzlDJuJI/WGQgrIS+hrFCpJJ0YfAL8nJCFix2oBuE0mSrIOSkUuQgBdVcBSR2TGzeH0QztQhhCK4NxaGdPtxhrRUJjpbV087kQdCblxgh1+lYxEimB2GrOKnwiPbeMxyBG1HXUpIhIiZH/pIrZIXZU+DQ/7XUCYJzahiDnm6RTBqxareSTArc9RPTJU2tyNhJ5UOqiYbgnWw8NDAZugCAFpVfSg2NF3PYQuVl6VPYWG2CZyCBtSE7zsSpUgmwVYZ9cFSSWJXGn2DnWaE5Sh49T9rViCtDLSagkZiZillhzoWWXk5JKUzOVcDKKVdllgFLnagCgIbGHoWeBuwnLxigbr7KGFYAUZeWB4OFDcgJsbtvSlIQAoiu9qTWxSdhF6F8nJCnIHtNDlIq0WoXB0WKTQNolilBrYqRbEsOUyltfarNXmOuCAO8Hl1HVN6lgHiZpjBxeDYRSfBcNwAGaKoT0qeRFELoFeyfLWPumd1UJ4puEOKWwyc7+Fj1CbMoD3ETxT8UvkqpdoJC7vhYTBPAkjgS0Fp2FMQ0dZPtQQytiGonknxBCFhmC8GrgpU1Qix5ZkdqP8AFbkNRPIDsneBDL1KZOk0ZZLhHE07MqSOwNc40dPIYVYKOzSF7YpNSidv11+1WY7A7JASdN6U4Lm1Qju2pi6jiyVw75PK0UXBNgi6ugXagWwQutkg5SkgAIZESI96dRslcCq4CnBEptfUvakdsIjO3LxyWo380VzWBpFLpMBZ1AoCVEt64OViaQlE3htR1gKjABlXapGQgMHiU6klEzU5Qt4cnJJ4RGg0hSXagSmzUPcjN7j2EY4/6SxmemovkaWb6AGIHNR0gzdEgTAmVawaUWXdO+xq06/MIEspGopFOUgmiSXR4Xe6LUUwgnBos1x2gT6uLil5IRAtUYjGm1XVqDTzJ8Wnx7q0FZYIlmr4BDIlrrpKnmFsCqLAGZmlRIVoAXV0GrSSVTDONj3Bax5iSjxaK0FMATygWEQYte1SqMQs8KHMUNmR/wDDFWQL2UZr3A6MDAM4Kx9CJ4AX7dxRndWXMkHSynX7WrdoLGFpYhASXq+7RLKjBuQDuTX7zdXuXhQpZAY1oog4pDMB7jEb3tN6/ePxSbpwoSCC6oSxsQCQze0V+8fipOrbC6R9STvQc/RIQEW5WWaLCDid9IbCBbFWVi1bS2pwFEBYQRMEYbU1dJZyCIG6UdKhTh8MELpQ18ZFGkMySzFpiosvtA0ujIrzUgjHOCIlGky4q+JJrWZL1SmYhjWEt4XYipdYhVaJAOG7TGEqg7mj6UUUsko6zUO6KDJJIOEv4Wfvt/FULqwqCpNuOLBpS5eVAdAXbJUaodUrciARJPV8kjPYiRLg3ZVCb0TApoRJPIN6ROhCzqg2Jl5EACqLQ2mhyzeSZo3MzeMUtBjRWJICZLdfJEifbBbHmKX04nSLzD3DSi+ohYIySUi1CRIDxDN5BvTROV3bLBCbeVNptgSOw6NmbOAxaISgiiyiMw8xrBT8oSMQAi4mXUorKg8F4ERA9WlDTDWTXJD1k+DZBCgYgQIgapzeizBiqhORugkmlK5WGGSDva8Ul1QzSBKEhM5vQb4AnSAxqC5s+NT99v8A9IzSH3DpHareiOkAJNGGj7SqhLyVZdmJoM/qAtKG4xqxWLzDTCia5Ok94g9w8IhZk/N9gqwUSHc1IQr2aF7lagpLcRXleNrZPwoy2AOV4oWAjbaJ8UrFLFYRkdU91MuhQBzZAYMG96PADjfVlBMjGtEEoHuG/cKgBwbf8g1G5AWZxkYQGHVoMABEAWI+jfRNBlII6j6V6yRAEu8fa1QgwipKli2HJxQzbk4HIbkJGnDsdmyC8WoEABRSoywIzNBLVLECAmSGjt4fpdvH+13eDs9jdABe00Wn9QnC4RGk1bcqVBgDMC2b0Y8ABsDPIJnVnGzVKACSetL0BgwEmGFERslJukYsyEHSZqKGwNIRM5Cy2vSPUJiLLpWNYoa5EN1YUl5sKLrITremoIpMEgnaaJCRByiVdjgECA3bxVyBIsoIl2mbeFgoMr6A/I0VFdUhEPUB6PhPZDzTMiTGkqh3Ku8LouhnNLBy9KQk3SVti1WNxesHJgutsUEYqSqCVAF2PBAMM3bcRhaLXetQgVcyaABJd+K/U7qMosjQCVrDXZyESoAAPN6tSqtPERHOPCLC2KRIAFm2RtTbMIjETdH6qsNn+TcRosR38o6Iy6IGBCLelAwkkw5qRIhPoFIO8UFRZ4MCeITXS9cf/rSXco6LYIAT1lQsTSyAC2mJNyimu1SCEmSGjt5G3XJZSsbKX6ilCRsYGpCAo0og0xGVLjJLiba+A+R1gUAbxM9Cl4DBoj6CP/RxSwnvLpHM17gljh80RkFWwIKncMQQKLRaCczQkSWmma4giik+qxL5UTISslGHME9Jq6KoOHZaq+manaLDdH5r29/iHxUCslpRc49qtdDCbDI9aX3uJN4n7UtXIjTF2Xt4CAIJd6/vQe6hEAZtqpSkKgRkwlDlrVEFIWExWly5De8vvWayz3hJ6j9IyvJYLp6Y/ax3DEwgcERSepKlEQApC92acm0hUyTN3VWig31w5kRMI3Gkpuoj7aCPoUh0sYWyCsTqqvg2GQoFtIs5jbxQSx6Bks7qdvAWu0yBCI6NLixRTnoKRw35qKtyhe5cQaS9qFiFfUSxJMTit7Jz8tJ8YjrYrBcDZDNqk7CkKxASMAc5o4T7sIQlM0o2JC2gTU98ZBSQESQHehF0I4ETF4pIDEFl4JBxULKBM4AgIICd6AyLF9yL1MeMu/ZYJHSgrXEJINIMlmgJi5RPjLvToGODDvyhoWIYpfCUh749SgYtgZEMDpNPTvePzcSdYYpUYG48uBhPRppJ1lSrLarVnWFM3ehEHrQwbfJdaGeR5A8JTG/J8gFJlzLSInQLGwkoMXCnm3O41I1JmoRhypVKOQV7Vnfdw0IB1YJ4fBwJGb14nW4eMHwROiD3RUkzJ0sjcO/yeEAZoAQrwOpeNNGmXW+x0soYRSjJMLBc3XyFKRbQJWoDS8SSn6oY2PCd+i2GEOa/cogIkxJtIDrDT2BfikJ2xzFCogA2Vomg0aeiJYh7SUD6FSULySsgLdqytJxAxX4tXqKYCc7rAMRZmkKVjzan6NqW2LCJ0+auCZjx0vB1KFTLFpdz3FoqbYWEsHrFK4W4oLlJl9d6FOwtVZN+Ur8f9GEe2VjES3UIDRkQETtS/wC97UBGXlBOVgHter3WeXs3IYklXNXvi/CAvIMCUuNuI48ETNRUArvvzlBm+Y2o7ADMI5UtIURsJFU0CLyu1GQWZQEolkojIKtgQUVf40jV4MXii/JoyIEgv4UwEWuhAutvbFT6wwphZYL1RQawZZeF2G0qZFWBQoh4GgaFQUuBhkAhsFWyAMghCOH6JAgASrYApC7mW57QP5UFUIQkTkaCyQCACwAYDyFDNETEV1YtQkhP0GA8pB/FUgRLkXxUtRBFV1SrlVnyqqBpuECTkmmUxCiLdVzt9DOoWIKUJizRGpi7YoXdCX6yWSASI2RHI0FUABABoB/QDbIFQ4QaxYRwM1MmpVNxMbBDqXoaKvIgquCKuswIpAUakzaS/wDbz11DSIQiORq/XdShMp3cOpQ5uMw4XZF8BpR+vGpvFdfp/b5lyFBgAG9AAACALAH/AOsMJ+JJrX3QNEy+sFaJ7/8AxS2C9adv0eFfuKDy3ZrVPop/tKwOkv8AK+eRPxXyBt80NIJwz/aEWI3Wrah6HvUja8EvvXpdKx9Z+WNxisShtdWkbVd/RpAGfuJ/suZGbGr0KdQt5u0gWt1n7Q6S2/8A2r4+RnbWnS8brujQiCNv7HBrDq0nTenykyv24ThbjnjwSJ1W46qLumTUdk/sVWABYtePuhKYmTv4Ww3YGzTl2MajqP8AYamt3qNTP3THiA8VctqNh/p/YfWTfQ/+/dYSAp3MrPiijb9WP7DJZt3WBPuVAVYCm0D7+QiajPR/YaVDCOPYo/KBQfyfbjSr7a0pGNn++RQFWAy1YmBnov8A2H+n2KgpCjiEd1r0+0xDOxdq3CG7mlUqy7+R8gBUxY+dfs9n9h/p9jwFERhNaJD9g/2pVDWPXv8AVEkDrW+el6/2mskw2LeVQutWu97VPJtjQ8P2ez+w/wBPseREIo71bYHmzW7fOKQSI7NB5F2o1x60b/fXM9a5nrSdPfTpH1p0A9aX0HQrJepSrnzZQTsXrR7v+Kz+8aeT9ns/sP8AT7HnQlI7lb3Ob0XA9GKVkPehNnUaGx60UPhOiVyFchXIUnkHek/9ykdPa9CxLof7QflWsZ2D/azS7+f9ns/sP9PseCRg4JxapWAOFGgI6n2yUCouFnXx/Z7P7DUMsq/TjwNiwMNO6WzFNy6pSCfn/FYsnZs/YkCQ4USfEIsHWjyTeZ8TQx2H/wAP7DwfyYZm2oRBGR8EBCCbNTS58XKlmxvdSI3ErAY2yUD/ADKZ/qVHwTrb6mjrmJxZatARqZ2R5xTb323E94n+wyo3Z6B80EW5NuPKF6wVlKepRf8AMazvav8AFIsKnaKxevqDwIMSrHmnrdUS/SZ4cvn+w0O1vaA8IqX3TpUSSfcLFS0O5oU8VVy0jdEuw/sMECRB9ClKw5bnhKEuKaxLw/yiZN41+0AlAbtSxN8WPWrPBsY8AVgqTar4st/Yf6fYp0fR1KignRofEURGGtotrqXkOS9Ykjs2oCRE4+rj13r4YEfNW4h6tLT1x8UAJXAUEYHSbf8A2v2ez+w/0+x4IgEcjWVO78U0UOz5REijxWA9Sfmh5TqUa6+pRqD1rketcr1rletOz3U6RdVaXgPatWnSCs+ur5oJTmfwUJbLqs+H7PZ/Yf6fY8gkGOakF1s3KnJSb3UiMJ9jlZzFXoRsXahGV3bvk/Z7P7D/AE+x5/eoKkE7D/taT7lYLoH/AGsh6E05wdvMYCehWE9GtidUp+F70bM6WrUlu3+ax5v2ez+w/wBPseBtiVgpKCe+lCJI/RQclKZ9Kv8AxSv/ADCgMD0+iUQtChUtxOHv4/s9n9hsh2A9ZPx4LORgnDU2Y1t/s3KgBluXKCk3o/aAuKSWLaTUNdLkwB28SEyP2Uvx/YYEdJvXAd58Wgk2aZLHw4qamjcuUKMijxVgtd1f/Vf7WeXUf5WbXf6hBhS5gsWfPF9TOZB9n+wwywJyTf7RoJcy348uPB3LVlIcNYodDWBHUfDX/J9PFyhIRPMiTob1m4c6YPf+w2C/xoeDxmTTUdaFAR1POuiybwfZDvQTTrSGc/FNzG7D+w8ZyD6FaLWHc8E5Y3NGo4Mty5U+JNz7WQGbYvUidln18WDeykP7D/T7FQWxMO1OxjZ0fFqWHiraQ+jWrDkkrPTv9a7AdWKkcvVT471M7RsWPGFbFIIV8n+q/Z7P7D/T7Hg6ElSK8GpSIoiO3lxa71oV6lCynqUDX0f/ABRrezR/8WuD01w+mnR9unRTvWhB1ZpWIdv9rO9q3xSiVXr5V8BuxUP3L8eH7PZ/Yf6fY8mC131oF5+Mqzcc6fZIwi7FXYB5zUIhfOPSgAgx4/s9n9h/p9jz4Jnct8Uv0hvRMu5FZBOl/isIupH0BMC1gvRrTnU02n0Csily0PABwR5v2ez+w/0+x4EZWcBrSXoHX6KuW7Utn0VKf4eOQD/jQGB6BQBg84KwEtIQiPPj+z2f2GzoAPU/+eDdrLbzSJAmjUQTwNQgp849aEEiJufaMA50pwt1unigze9Gf7DmPIHu5B2fEaBdnUokpDZs0pD9RSkuuGsZPa0n/YKxodWPmsAHp9TJHlTeCYpLCIEY0fPcCCHtB6f2JlcgjJ+HyAQCbNXsS4ofvFqyXav8UiZIpCUjxWfUev00bIkTSrh2sAJ6x5pSrZ0Gq8VeQy1Eyv8AYh1gQiSI0o9l1fyHFIARGEcj5sMPUpRm50otj7EFZHYOm7R6as2Tnjj+xynZVnu3p6D9D3ZelIECZGyfamjUjIPVbUiIN8B6uWgaggBAH9lCsrxgdy9T3CaHqRTqrLVB6Z9qbAWQI+/1oWoyBcWPUwVCjNQ/yKhUnqyemKFAAsBAf2fAhbA/NTiu6p+NT6xsofE1cdtD8NfCefJWM6Yfmg6Xp/rXI/Xmhtv671kD6/gr3YG/BTv3A3ihR2S+U1CSPP8A4qMn9wz6/wD8F3//xABKEQACAQMABgQJCgMECgMAAAABAgMABBEFEiExQVEQE2FxBhQiMDJSgZGxIDM0QEJQYHKh0SOSwRVTYnMWJDVDVFWAgpDho7Lx/9oACAECAQE/AP8AxdBWIyAcc/xWqsxwASeQq20dPcwSzK0SpHnJdwuTjOB21bx6ONtK080olGRGirkHZsJJ4ZqC5tI7WWN7ISStnVlLkaoI2bN2yob+SG1kt1hhIfOXZMuMjGw1DpK8htZLWOUCKTOsuqDnWGDtIzUWkb2G2kto5isT51lwNusMGodJXsNrJaxygRSZ1l1Qc6wwdpGahv5IrWS3EMLK+fKZMsMjGw8KiubRbSSKSyDyHOrLrkFSewb8VHHo9rR2eaVbgZ1V1co3IZpdHzvZNdK0RRfSXXGsu3GSKKsACQcHcef4jtbS5u5RFBEXfGcDgOZ5CraOxhmmW+EpMZwEjI8pgcEE8qttI3VokyW76gk3nAJwOGT5z+0bvxM2ZkBhzkKQNm3Ow76lOjjZxmMTLcAgODgow5jlVzYXdtHFJLEQkigo28HIzjZx/DGqa1RyrVHKtUcqKnpVWZgqgkk4AG0kmjaeI3UK38LapXWZFYBsHcDyqe5DTyyQJ1CsMaisdg5Z+odY+qqFiUU5CknG3fU/i17cQLZ23Uu+FZS2V1jyzuFXFvPbStFNGUdd4P34WA4itdPWFKwZgqnJJwAOJqS1uY/TgkXvUj6sBilikf0UJrxef+7NeLzf3Zrxef8AuzTRSoMshA50RmgjlWYKSFxrEDYM7NtXDWCw24tutMoGtJI2wZPADs507vI7O7FmJySTkk/U7Wa2kuda/wCtdGXVLBvKXgDt345U8e2RowzRK2A5GN+7PIn74sLC4v5THDq5UZYk4AFWvgtapg3ErSHkPJX968JtDLbrHc20erEBquo4HgfbWqa1RXg1o4Sym6ceTGcIObc/Z0TWVpP85AjduNvvq78HrXUd4pGjwCSD5Q2frSurbj9SCgVawiWTb6I2miVQbSAKBBGQcjoJA2mgyuDggiruERuCo8luHKlu7lbV7ZZCsTHLKABk9p3n6tb39zbxTxIwMcq4ZGGR34PGprF47SC6EiPHISDqnajD7JH3qSAMk08pO7YKsr24sp1mgfVYbDyI5GtFact9IRHA1ZVHlR/1B5VIetUq4BUjBU7iK05ojxSQSwI3Utv46h/arCykvblYUIGQSWO4AVYWaWVqkCnOMktuyTx6biMy280YO1o2X3jFEEEg0kjDYdooEEbPPjeOiwYBnXiQP0qeIyKMHaKiQxoFJz0SJroy5xmoIWj1iSMnlV+w/hrx2mhR3n6tEyCRDIpZAwLKDjI47avlsxcv4o7NEcFdYYIzw9n1FFDOqlgMkDJ3DPGv7Mi/5hbfzUfuBmCjJpmLHJ6AK8Gtmkx/lt0pHGhJSNVzvwAM/IvLpLS2lnfci7BzPAUxLMSd5OaUbKBIOylYEefBNKxVgynBFJfrjy1OeyvHoeTe6vHoeTe6vHoeTe6nv0x5Kkntp3Z2LMck0SfrFlerbCdXhWWOWMqynYeYIPDBqSCaIRmSNl11DLkYyp4j6ghCupK6wBBI5jlXj1h/yxP5z+1H6+zBRk0zFjk9AHRY3j2Vyk6KDjIIPEGoPCi3klRJIGQE41s5x8rwslcRWsYPkszMe8Yx8egbugEg5FAgjPnwcVkVnozWRRbP1qA3ukRb2SsrdWHMYbAO7JAPwFEEEgjBG8feEj6x7OgDPyLW1mup0iiUkk7eQHM/K8J72Oe5jgQ56nIY/wCI8PZihv8AkKdU/UVGOhtuPrkcjxOroxVlOQRsINXNnIlrb3ZlEizlsnirA7Qc8fu+UMIwdU4JxnGzI4dKjZ06N0PcXzBsakQO1zx7udWdlb2cQjhTA4niT2n5WmtGXFtdTSahaJ3LBxtAztwejJrWNAisio2yMcvOxRPK2qgyai0aNYa75HED96u4IktX1EUEY4bd9A5rxiINq6239KzszVlDG9sC6A5J3j2VLo5dYmN8DkdtSwyRNhh3HgfrWj7aK6leKSfq/wCG7ITgKWAzgk7h932eibf+yY7WeMNrLrPzDHbnvFaY0W+jbrqi2sjDWRuY7e2hvrRuj5L+46pWCgLrMx24Ff6KL/xh/k/91beDFtHKHlmaUD7ONUHv2mlVVUKoAAGABuHmGtbZ/SgjPeoNXvg7Y3AJiXqX5qNntFJ4K3plw0sQTPpDJOO6pfBOLqz1Vy2vjZrAYPuqaGSCV4pFwynBFIcMD52wUCHW4kn9KG8VKmvG681IojYR7KMbh9XG3NKNVVXkKt01II15KM+2m31eoGt2J3rgjzVvby3D6kY7zwFQaBWQ4acg4zsWr/RNxZjXJDx+sOHePP6RhtYbgC2l14mjVgSQSMjaDjj926Kt/GNIW0ZGRrgt3LtPR4ZfSrX/ACj8aUV4LfTZ/wDJ/qPP6fkSTStwV4YU94GDQ30pyo85Y/R17z0A5FXsfVTvyPlD21k5zxq0j66WMcDtPcKJwOi8+jSdw+PmtGRKlohA2vkmrb5w/lqSNJY3jcZVgQR31ImpI6+qxHu88Uszo5XD4uBMQyk70xnI+7fBWLWvZpD9iLA72PRp7Q39owq0ZxNGDqZ3MDwNNHJE7RyKVZTgg7watbqa1nWaJsMPcRyNaO0jDfwh02MPTTiD+3ntJoq6Qugrhh1rEHvOaAFRnYfOWP0de89CnBrSUPWW7OBtQE+zo0VDqwCQjaw2d1Mei8+jSdw+PmYLaSY7Ni8zVmFSFYwfR51bfOH8tTzLDEznGwbBzPKpA4kbX9LOT56zWyaO7FwcMISYTt9Mbhs5/dvgknkXj8yg92enTWh0vg0keFmXcfWxwNSRvG7I6lWU4IPCoLie3kEkMhRuYr+3NK/8U3uX9q0Lpm+lvo4ZpNdXyNoAIIGeHmSQASTgCr7woiiZktYxIR9s7F9nOrjTGkboEPOQp+yvkj9OmPefOWM0Yi1CwBBO+utj9dffXWx+uvvoSxEYLr7xT6PTx0KHXqj5WcjYOVdZCqhVdQAMAZGyutj9dffXWx+uvvq8nj6lkDAlsbB8tVLEAAknhUFiBhpdv+H96muIoBjjwUVJdTO4bWK4OzGzFRaYvY9zqTjGSKXSM8kmZ3LA8eVTQrMvbwNOjIxVhgjzujvE/HYvHPmNuvv5bN23fRwCcHIzv+7PBP6Pdf5g+HS3pHvrwgmjl0lJqD0AEJ5kb/26bS5e1uIp0AJQ5wePZQ8K4cDNq+fzCtG6Xt9IF1RWR1GSp5cx8vwnu3hs0hQ4MzEE/wCFd46F3dMe893n78WQeDxX0eoTXO35z7W/zMUbSuFUbTSaPhA8olj7qk0cpxqORzB21FDFApIx2sanvt6xfzftRJJJJyatLOS5cgHCje1W+hrNiVbXOzfnFaS0K1shlhYtGPSB3jt7RVtc6nkt6PwqaFZl7eBp0ZGKsMEectOo8ag6/wCa6xes3+jnbu21c9SLmfqTmLrG6vf6Odm/s+7PBJ/pifkPx6X9Nu+tJ/7RvP8AOf4/J0ffSWNyJkUNsIZTxBr/AEsH/Bf/ACf+q0bp6K9n6kwmNiCV26wONvZ8nwrgZre3mA2I5U/93/50KemPj5/SHiXXr4p831a53+ljb6XmdGqNWRuOQOmeFZD5ROOWdleJwcj768Tg5H31ZxJFAqqNhyTVt84fy0yhlKkZBGCKnheKR1KkAMQDVtcmMhW9H4VNCsy9vA06MjFWGCPN2/VeMQ9d831i6+/0c7d1Xni/jU/i/wAz1jdXv9HOzft+7PBebU0iyE/ORke0bemUYfvrTmj7iC7mmKkxSOWDDhngfl6B/wBrW3/f/wDU/Ju7ZLq2lhfc647jwPsqaJ4ZZInGGRip7xQ6Yxs8/f8AiWvB4r6PUJr79kn2t/mbKcROVY+S3Hka30WVd5A76niZxlJCrfoake5jbVZmB76hjuXwWkZV79pq2mRVEbNg/Zyd9W3zh/LV/fw2cRLHyz6Kjee3upLmGT7YyeB2U9pA/wBnB5jZUUMkXk62svbvFXjoSFx5Q4/083adR41B15/hdYvWb/Rzt3bauep8Zn6n5rrG1N/o52b+z7ssbjxa7gm9RwT3caBBAIOQd3RMNgNMiupVlBUjBB2g1pTwdK60tmMjeYuI/L+1EEEgggjeD8nwe0ZOZ0vHGqig6ud7EjHu+V4SRCPSjkD00Vv6f06B0KMADz914l4vZmD5zqz1w2+lnYdvPs80k0qDCuwHLNM7ucsxPeatLmbWCYLD9RTYbGQDjdUzOkZZU1v6U8ju2WOTSXt3GMLO42Y307u7FnYsTvJOT0JPLH6Lnu4VDczPviJ7Rs+NEkkk8fN6OFmbyLxw4g26+/ls9Hbvo4JOBgZ3fdugLzxnR6KT5cXkN3Dcfd0MMgiiMdHhPGi3sbKoBaLLdpBI6QCSAASTuArRPg+F1Z7tcnesfL837VuGPleFkJE9tNjYyFf5Tn+vQppBlh9QzZHRoGMXQn7dsePdv8zBC0z6o2DieVJaW6DGoD2nbUljC+0DVPZX8KBOCgVJeyFhqbAP1qC8STCt5LfoaGjop21zlRnbjjVro+y1ipgQjV4jPxrSOg0CGW1GCN6Z2Y7KSxP229gpIIY9oUd5pZUZtVTk8cbhVzbtGxYDySfd5uzNkI7s3Ay3UkQjb6Z3HZy7fu7QekPEr1dY4jk8l+zkfZ0zLt1ujwp+lwf5X9T0+DMaPpElgCViJXsOQPMaZsTe2Mkaj+IvlJ3jh7aIIJBGCKBxSDC9/wBQsmswt0tyu1oW6phk4fh5nRoGpIeOR0vFE5yyAntrxeD+6X3V4vB/dL7qgAESgbsVbfOH8vRcXjCR1jAADEA76QTXD41ieZO4UqxwR8gN551cXDTNyUbh5svZjRyoFzcmYlm27ExuHt+7/B3SoniFrK38SMeQT9pR/UdBAIINMpU4rwqgfXt58eTqlD2Hf0IjOyqqksTgAbya0Jog2KGWU5mdcEcFG/Hf5nTmgmlZrq1XyzteMce0dtRxnWOsMYO7t+owOkc8TugdVcFlO4gHaKvGt3up2t1IiZyUBGMA8PMWtx1L7fRO+kdHGVYEdlSTxR+k4B5VLCkwyd/AipYZIjt3c6yedaNvliHVSnC5yrcuw1aMGckEEau8VpPSsVvE0cThpSMDG3V7TUUTyvqr7TypVjgj5Abzzq4uGmbko3DzmkJbSW4BtY9SJY1UZGCSBtJ7fu+KWSKRJI2KspyCOBrRGlo7+HbhZlHlr/UdnQ6Bh21pGzF1azQMNpHknkRuPR4NqDpIEjOI2I+HmtJaSjsYs7DIw8hf6nsqSR5ZHkc5ZjkntP1Ka5glsbaEQBZYmbLgAaynbt5keZyR0Q3EkR2bRyqOWOZdntU1NZ72j/l/aiCDgjbQLAHBNRRPK+qvtPKlWOCPkBvPOri4aZuSjcPOaPuYLaZ5ZYes/huEBAK6xGASDvH3jBPLBKssTlXU5BFaJ05DeqscmEn9Xg3d+3Q6Bh20ylWZSMEEgivBlSdIsQNgibPvHmdJaXhswUXDzcF4DvqaeWeRpJGLMd5+p6PvTZXBk6sSKyMjodzKw3VJHJGV142XWXWXIxkHiOzzYJBBBwahvM4WT+b96is4Z8SOoIG7tq0RFYgKANXcBV1YxFHeJArDadUel/7q4uGmbko3DziI8jqiKWZjgADJJNXN4z2ttadUIxDra3NmJ2k/eQJBBBwRWjfCWWELHdAyJwcekO/nVtd210mvBKrjjjeO8cKm0Zo+Z2eS0iZjvYqMmo7GC3BEESIDvCjFbvlT3MFumtNIqjt491X/AIQSSZjtgUXi59I93KiSSSTknefqqNfaSSC1VVcwRsU3Bio24yd+OA87o4g2cOOR9+atvnD+XomKmWQruLHHdnzlv47o4QXqoo6wOIy2D2Egf1oksSSSSTkk/ekUssTh43ZGG4qcGrXwnvosCZVlHM+S3vFQeE+jpAOsEkZ45GR+lJpLRk266hPewB/WswMMrMh/7gaZo12mRMfmFSaRsI8611H3BgT+lTeENgmdTXkPYMD9aufCK7kyIlWIc/SPvNSSySsWkdmY8Scn6vFLJDIkkblXU5DDeKksy1it6J1cmQrIv2lJ2gnO/PnNH3/i5KOCUJz3GrW9s9Yt4xGBq8WA+NaT01EY2htm1iwwX4AdnnLKy8aE7NMsaRRlmZtvcAO01LPNMIxJIzBF1Vyc4A4D8LIUDqXUlcjWAOCR31fLZi4Y2jMYiAQGGCufs9uPrEao0iB2KoWAZsZwOJxV8bM3L+KKwiGAusck44+38MWF61nKzdWkiOpV0YbGU8K8RuWtGu1QGIOVbVOdXvG8D6tb2NzcRTyxp/DiUs7E4AxwyeNTX7SWcFqsSIkZ1iQNrt6xJ/DSySKrqrsFbGsAdhxt21crYNDbtbNJ1pGrJGwztHEHt5UysjFWUqwOCCMEH6naRWy3OL4yRoF1iAvlNxA7M86eX5xI2dYmfIQnO7dnmR99WtnPdMyxAEqMnJxVzo26to+skVQucbCDv8xbwSXEqxJjWPPdUujykbulxFJqekFO0VZ6Oie2mZ5IiWjBU63oE+typ7NxcJDHIkjMMgocipNHOqSMk0chj9NVO0VFo95IUmMsaIxIyxxjFXVrJbSajkHIyCNxH1NWZWDKSCDkEbCCKa68fu4WvpiqhdVpFUE4G4kDfU9uEnljhkEyrt10BwRz+oajaqsQQpOAxBxsqcW9jcQNa3ImdMMzavkawO4Z3irm5nupmlmkLu28n77tTZhm8ZWQjGzUxv8AbVy2jTH/AKukwfO9sYx7PMWHW+NR9VIiPtwW3Hsqa31ra4e5tY4WUZRlONZuWK0WOsivYQRrvGNUE4zjNWcbWWkYVnwuw7c7NoIFSC7gjuWMFtEpUjW25YHlgnbQt5bjRVskYBbrGOM4ztPOtLYV7aLILRwqrY5/VbS8ubOUSwSFGxjI4jkRVs1jPNM188ilySrxgYDE5ORy7qttH3V0kz28ZdY8a20A4PZ5z+z7vxM3fVYhzjWJG3bjYN9SLo5bOPq3la4JBbIARRy5mrnSF3cxxRyyZSNQEUDAGBjOzj+BySd56cnnT3Ra1ig1cajFtbPP6wrMpyrEHmDirbSEtvBNCI4nSTOQ6BsHGMg8xVu+jvFpVnjmM20xuhGN2wEHhmoLa1ktZZHvVSVc4iKnygBkYO7bUOj5ZrWS4WSIKmcqXAbYM5AqLRt7NayXUcOYUzrNkDGqMnYTmotH3k1s9xHCWiTOs2RgYGTUOjb2e2kuY4cxR51myBjVGTsJzUOj5ZbWS5EkSomchnAY4GcAVFbWr2kk0l6qSDOrFqkliO0bs1G+jhaOHjma4OdUggIOR50ukJUsmtVjiCt6T6g1ztzgmizEBSxIG4Z2D8VAkbjQdwpUMQDvGdlZOMZ2f9DqozsFVSxO4AZNEEEgjBG8V1bhA+o2qTgNjZnv/FtnFbOXMxc4HkogJLVeWUaRwSxB1Eh1dR94NQ29lb38MKmQyrtLHGqcjdUVtDJLfTTFtSJzsXeSSauup/smLqtbUM+wNvGw7PxbY3EK2s8LTGF2YESAE7Bw2VdXcLWtuiTNI8chJLA5Pbto3Oj2vY7szsCcZTVOw4xtNW9zbE30UrlUmbKuBnG3lVzNaiwS3ilLlZcklSMjB2/9GIjdtyk+yhbzH7FeKy8h768Ul7PfRtZuQ99GCYfYPxoqw3gj8URwySbhs5mktEHpEn9KWONdygeYaGJt6D4U1gHBMT7fVb96kikjbDqQfxJBbAgM47h5xSVIIpkSVMMoIIq7tDA2RtQ7jy7D+IoVDSoDz88owoHIVcIHgkU+qfePxFYIHu41PHPwNOjIxVhtHmwCTgVHFq7Tv6CmsknIKfh+ItG/Toe8/A1NbpKNuw8DUltLGdq5HMVgj5Yjc/ZpYPWPupUVdw6EhZt+wVIoWCQD1D8PxFo36dD3n4HpaGNuFNaLwA92KNr/AIP1o26j7B/WupT1aEaD7IoLyFBHP2TQhc8MUIObe6ljRdw6JvmZPyH4fiLRpxewd5+FR6uuNbdxpoEcZQ4+FNFIu9fb5lWVxlWBHMHNaTnurexnltYuslVfJXGc7eQ34rQ1ze3VhHLdw9XKSdmCuQNxwd1TkCGUn1D8PxFo2Lrb+3TOPLB922pEKNg+w0rspypxS3R+0ue6te3feB7dldRC3ot7jRGCR2/Ju7fxm1ng1ynWRsmsN41hjIrwd0I2h7SSFrgyl5NbdgDZjYNvTPbmW0uNpH8Nsd4H4i0U2rpC3PIn4UQki8wae2YbV2j9aIIOCPNKjMdgJqO2A2vt7KvHCW0o4lGA934i0b9Oh7z8DUUzJ2jlSSI42H2UVVt4BpraM7sijangwo20nYa6iX1f1rqJfVrqJfV/WhbScwKFrzb3UsEY4Z76AAqSdE2DaauXZ45ST9g/D8RaN+nQ95+B6MkUtxIu8576W5Q7wRQmjP2hQZTuI+QXQb2HvozxD7We6muvVX3000jbzs5Dom+Zk/Ifh+ItG/TYe8/Ck1dca27jT26nahpo3Xep+Rk1k8/k6Wu57LR1xcQQGWRFyqc9uM7OW+tBX91pDRsVxcW/VSMSNXBAIHEA8DU+yGX8h+H4i0dGZb63QHGXBz3badCjEGkkdNxpbr1l91f6u/IfpRtkPosfjRGCRyPybqFp7aeJZCjPGyhxvUkYzWgdFXGjLWSKa46ws+sMZwvdnpngaW0uMHH8NsHmcfiLRTaukLc8mPwNMqSLt2jgae3dd20dOT5gKzHAGajtuL+6rtglrKBxRgB7PxFo36dD3n4Gopimw7RSurjKnNMiNvUGmtkO4kUbV+DA0beX1f1rqZfVNdVJ6hrqZfVNC3lPAD20LU8WFLbxjfk99AADAGKkmROOTyq5dnjlJ9Q/D8RaN+nQ95+B6ASDkHFLcuN+DS3MZ35FCSM7mFZHyCQN5FGaMfaFNdL9lSaaeRuOB2dE3zMn5D8PxFo36dD3n4UgUuAx2U9txQ+ymVl3gj5Gs3rH31rv6x99azcz8jSd41lYz3KxGQxrkKO/HuFaG0g+kbCO5eHqyxIxwOOI7Km+Zl/Ifh+IopGikR13qQRUE8c8SyIdh/Q8qSV03HZypblTsZa1bd9xA/SjajgxojBI5H5N5FLNaXEUUnVyPGyo/qkjANeDejdI6Os5Ir25ErNJrLhiwUY5nn06Vu1ihMQPluMdw/EdtdTWz6yHYd4O41baTt5wATqPyP8AQ9IZhuJ8wzqilmYADidlXWmEUFYBrH1juHdTu7sWZiSd5P4lhvLmH0JSBy3j3Go9NyD5yJT2g4pNM2rekHXvGfhS6Ssm3TD2giheWh/38f8AMK8atf7+P+YUb20G+dPfmm0pZL/vc9wNPpqAehG7d+BUumbltiKqD3n9akmllOZHZj2n/wAN3//EAEcRAAIBAwAGBgYHBQYHAAMAAAECAwAEEQUSITFBURATMDJhcQYUIoGRoSBAQlBSYLEjMzRy0UNTYpLB4QcVVHOAgpBjsvD/2gAIAQMBAT8A/wDl1g8vzWATuFRW7yI7gqFXeSce6o1t+rcu7B9uqoH60kkKxMrQhnOcNk7PdSXDJE0YRDrZ9ojbt8aS5mSJolbCtnIwONJcTJE0avhGzkYHGkuZkiaJW9hs5GBxpLhkiaPUQg52kZIzyNJJCImRoQWOcPkjFKtuYWLOwkG4Y2GhbuYTKCpA3jO0e6sHZs3/AJjiiklfVjUsajWBHcThjq7AF4nzqK4lhDiNsBt+zb2nrEvU9Trexyxu403q5hXVDiQb87j41JBLEqM64DDIPD8sawrWPOtY861jzoMOkAkgAZJ3CjF1EqCdDjGSoO2nkzIzIuoDswDw+oaxwASSAc44U/VzSRiGPULbCM7M+FSRvG5R1II4ffkt7ZxbJLmJDyZwKOm9Eg7b2L3HP6UumtFMcC9i+OKju7WXZHcRt5MD9WJzRZRvNay861151rLzoMp3EUDigCQSAcDeeVSGAJGI9bX3sx2beQ8qLFiSSSTvJ+pxPG0mZ9ZgRjIO0eNMveK5Kg4zj4ffF9pmwssiWXLj7C7W/wBvfV36WXT5FvEsY/E3tN/Srq/v7k/tbmRs8MnHwFR2kjbT7I8d9JaRLvGsfGpNVRqqAM8uiC+vIMdVcSKOWdnwq29KLqPAuI1kHEj2W/pVhpvR99hY5dVz/Zvsb3c/d9S1iTUjao2b6lmjiXWkcKM7ycUrq6hlYEHcRtB6GYKCSQABtJqKaKYFo5FYA7wc1G2Rt3ihcTLGYg2EJyRzofVY55I0dFPssMEHaPOngZYUlDAq2w44HkfvW6ure0haWeQIg4nj4Dma0p6UXVyWjtswxc/tt7+HurWOc520iswzjZzpVC7vjUb6wwd9MwUZpm1jnpIyCK2g1ob0hvIWEU5MsQG895fI8ffVvcw3EYkicMp+Xge3O40N9TDYDWlLB7yOMI4DKScHcc1YWptbZIi2sQSSeG3l0Xlubi2kiDapYbD5ba0Xo6Sz60yOpLYGF3bPOoRvNGhuH1ZSoZdYEjO0VOIRIeqJKHaM8PD6ixwpOCcDdXrb/wDSy/D7h0npO30dB1kpyx7iDex/pWkNI3N/MZJm/lUd1RyHRb22v7T93gOdSABMAbB07ef0GYKCT0WqBYgeLbatLye0lEkTY5jgR41YX8N7FrJsYd5eIP8ATtyBRGRg0YjwNdU3hXVN4V1TeFCI8TQAAwKAH1iCYR9YCgZXXBB+VMjrq6ykZGRniPqDAlSAcEjfyr1a5/6tv8v3BpC+hsLZ55TsGxV4seAFX19PfXDzTNkncOCjkOi2g1zrMPZHz6GUMMUYiBv+lcHYo6IQViQHfjotrmW2mWWNsEfAjkasruK7gWVPJhxB5duRmsHoz0YPKgPrSdfcCOAEHVyVz+lEEHB+7yQASTgAZJrTulW0hdkqT1MeRGOf+L39EUZkcKPf5UqhQABsHSxAGT9KZgSByqEqJU1t2foaLv2s7gMT+zbY48OfuoEMAQcgjIP1BjnoU4+uKzKwZSQRuIqSFlijl1tYPnPgRwP3f6VaRNvaC2Q+3NnPgg3/AB6bWLUjyd7bel5AvnTMWOSfpSIQxPA9CXEqDAbZ40LyUbwpqO6jfedU8jTzxJvYeQ216N6TjuYWty3txjIB36v+3aswUZNPcHB1RUTs0q6zE5oil0BpVrfrxbNq78faI5431gg4xgipnZZPZYjAFJcHHtDPjSurDI+tW8aSuUZ9X2SVzuyOf3fpi89c0hPJnKA6qfyrs+e+iMGoU15FXhx8qZgozXXf4aMpI2DHY6oPAU0KndsNdQ2d4xRgGNhoggkGtE3hs9IW8wOzWw3irbD2s5y+OQo7jSnVZTyNQyGKWOQDJRgw9xzUekrV7IXeviPV1jzGN486u5/WLqebGOskZscsmpG1nY+NLuqEkOPHsri5it015D5DifKhpks5CwjHidtW17HP7ONVuR/07e4SJJAIn1lKgjbkjPA/dul7n1bRtzIDg6hC+bbB0PwqyXvt7qm7o8+3lILmoMdcmedaLn6+wgcnaF1T5rs7Sb94egjBq0Bm6pBvLBfjspIY0hWEKNQLq48MYq/T1aa4j/A7KPccUBk9EX7xey0pKz3bgnYmABUPePlSsUZWU4IORStrKp5gHtisPqwYH9pr4I8Mb/u30tm1bGGMfblyfJR0MM1ariFfEk0wDDBplKntvVZGYnYBneaitUQgk6xFejcmbaaP8L5/zD/btJv3h6GGRWiXC6QtQdxmT/8Abo084OlLpRuEhz50o6Iv3i9jPcxwjbtbkKvdZ5mlI73Koe8fKoo2kcKPf4ClxqjG7HbQiErL1hwdQlD/AIuX3b6YP7dmnJXPxx0xPqgDhigc0QCNorq0/DUkahcgbuyecDYozVspZdduO4dPo037W5Xmqn4H/ftJkbWyBkVqtyNarcjRRwQQCKh9JgNDmR9t0vsBcbzwby50RJI7O+sSxJJO8k1qtyNarcjUSNrgkYA+mzBQSTgDjU98TlYtn+L+lQ28sxzw4sajtYUQrqhsjbnbmv8AldprawUjwB2UtvHGuI1A/wBaVipoEEZHa23U9cnXdzbnfy8KO/7s9L/4m1/7bfr0ruHlUYIQdLDIIrqTzp0K4+nO2Fxz6Lcgwpjl0+jf8TP/ANv/AF7e46nWTqt2oNbf3uO/sdI6QttHWklzcNhF4DexO4DxNXnp5pWSQ+rxxQpnYCNdveTWivTyXrBHpCFCp2CRNmP5hy8qeeS4I25B7oG6oLHc0v8Al/rQAAAAwKvL2O1QEjLHurS6Vunc90DkBVrfiVgkgAY7iNxp0ztG+lYqaBBGR2kWp1qdZ3NYa3lUmp1j6nd1jq+XD7s9ME/gn/nB+R6U7o8qTur5fRZQwxXU/wCL5U8ZUZzn6M49kHkeizk2lD5jp9Gl9u5bkFHxz29x1OuOq7uqM79/Hf2P/EKeQz2MGTqBGfHMk4+WOn0RlZ9CWzsPaGsmtxwpwK6xq6xq0jIz3cmeGAPKoe8fKgSCCDtFI2siniQDTpnaN9KxU0CCMjs49TrE1+7rDW8qm6vrX6vuax1fL3/dnpVDr6NWQb45AfcdnTGfZqNgVA4j6cncP0WAYEHjRBBINIxV1YcD0+jsWrZu5+3IfgNnb3HU6ydVu1Brb+9x39j6YaEl0lZxzW6600GSFG9lO8Dx2bKZWVirAgg4IOwirSzubyZYYImdjyG4czyFaIVdHWcFtgMqLtPHJ2k/Go2ikXWXBFMUG4AmtJWrlzMi5BHtY4Y41D3j5VbW7zuAB7I3mtUjhQYimw23G2vR70XN3Et1dsyxN3EGwsOZPAU3oxoRk1Ra42bw7Z/WtO6Ak0YyyRsXgY4DHep5H+vYxdX1qdZ3NYa3lx3VLqdY+p3dY6vlw+7L+39Zs7iHi6EDz4fOiCCQRgg7eiM7SOhJeDfH6UrjBUb/AKUww/mOiM5RTzArfVlB6vaQxcVQZ8ztPby9R1cPV97VOvv3+/srrROjLt9e4soZG/EyjPxq2s7S0TUt7eOJTvCKFz54q4tI3BZcK3yNQQCLbn2jSyxGTULgGgABgUbS2La3UpnnilVVGFAA5DoIB4UEXWUFsZNRokcaIgwqqAo5AbOjTsaSaIvQ+4RFh5rtHY2/U9cnXdzbnfy8KO/7t9IrL1XSMjAexL7a+Z3j49AOCDQOeiE+yfP6Dy8F+P05xtU9FpJrR6vFf0rQ9r6xex5Hsp7be7cPqH7H1b/8uv47Vx2OmtMQaJsmuJBrMTqxpnBZv6c6vPSrTl1IW9ceIZ2JF7AHw2/GtE+mmkrWVVu3NxCTt1u+viDx99RSrcRpLG2srqGUjcQdtdUpUhuIqezePLL7S/MUdIywJqDDHGzPCkvrt3JMzbuGwfKrXSDFgkpznc39aMvIUWY8a1TXo5p2C+tYoJZAtyihSpPfA+0Ofj0elOm4TA1jbuHZiOtYHIAG3Vzz59jD1IWXrNp1DqDb3vd93ae0d69YsEGZY/aTx5j39MbbMdEO4+fTKfZ9/YSLrKRx4dEUjRuGHw51oWz9Ws1ZlxJIAzA7xyH1CEwgSiQb0OqeTdj/AMQnk9asEPcETEeZO39On0Yubj/k1uOsYAFwu3hrGvWZ/wC9b416zP8A3rfGrgkzOTvzUPePl0Rx5RS2/Ar2VG6iSxpRq7ePOmvLxk1GuZSv4S5I+HZEw+rAAftNfJPIY3fd/pJok28xuol/ZSH2wPssf9D0A4OaUgjNQnYR0yPrbBu7GWLPtLv4ivRrRBupxcyr+xibYD9phw8h9RjYK6lhkAgkcxUxjMrmMEKTkA9h6T6D/wCb2SiMgTxEtGTuOd6nzq6s7q0lMVxC8bjgwx8OdaJ0FpDSkqrDEwjz7UpGFUefE+FWVtHZW0NvEPYjUKM8ccT4mlZWrA5VpOweU9dEMtjDLz8RUasrkEEHG41aWbyuGdSEHPjRIAoksaVcdpcPE0g6pcKFA8T4n7vlijmjeORQyMMEHiK0xoiXR02zLQsfYf8A0Pj0KxU0jYII6Je57+y0VouW/mxtWJT7b/6DxqGGOGJI41CqowAPqTyI0EaamHUnLDiDz7FlVhhlB8xmgABgUyhqKlTSycD8eggZ2gUSAKJLGlXHaW8iROWdNb2SFB3ZPP7xnghuInilQMjDBBrS+gZ7Fmkjy8H4uK+Df16FYqaG6pe77+x0XoWe+YO+Uh4txbwX+tQQRW8SxRIFRRsA+p28xhk1tUMCCCDxBplZcZUjIyM8u0aPlV/fSQ/sozhiNp5VG7tISzEnG8mra7dGCuxKnZt4Uq47RVLEAAkncBUkxaKOLU1Qmc+JP3kQCCCMg8K0n6LwzFpLQiN95Q90+XKrqzubR9SeJkPDO4+R40JJFGAxoS63eP07e1uLl9SGJnPhuHma0d6NxRFZLsh24IO6PPnQAAAAwBuH1UGe5EcQAJRTjnjl2ukgwvZs8x8MVD3j5dCZCLnfgZ7SPrrfq5woGtkKT+tEknJ+9JYYpkKSRq6neGGRV36K2EuWhZoW5D2l+Bqf0W0lGT1ZjlHDBwfnT6L0pD3rSbzCkj5VqXCnDQuP/U0scrHAifP8pqPRmkJcalpLt4lSB86g9GtISY6zUjHicn5Va+jNlFgzM0p5d1fgKiiiiQJGioo4KMD6ujsjBlJBG400JMAm1wcsQw4g/wC/aaQsPWQHQgSAY8xSWd0jkNC+7lkfKrSwfXDyjAG0Lz8+0hg63rCXCqi5JNNI76usxOqMDPAflZcAjIyM7RU4h6w9SSUIzt4eH1hQpZdY4Gdp34qcw9YeqBCbhnj4/liCcwsTqhgRhlPEV1EhiMoX2M4OOHn9WjgkkV3UeyoySdgp5y0KRBVVV2nG8nmfy0GYAgEgHeOdSCApGYy2sdjKefMHxoggkEEEbwfqcSRCTE5ZVAzgDafD30W7wUkKTnGfhn76mnjhALk7d2zNRXcMraqE5xnd2ABJwKKbCQQaVBqnaN3wortABBoocHaDjfQQkA5AFMpU4+pgkEEHBG40ZevlQzvgYwWA208erIyo2uB9oDh9Q1TgEjAJ38KcRwSRmKQOV2k42Z8KkkeVy7sSTx++5hOQOqKg5261RC7D/tWjK44Zz2CZ1hg0R7JLKBSbQw4kUo1XGaOsAdiisExrjnUm8DkPqsU0kL60bYNRmB3czlhrbQVG4+VR28sodo11gu/n2nq83U9dq+xz+VMLcQrqlzId/IeFSXEsqorNlVGANw/Jet7IHL6wCQcg4qK4aNHQKhDfiGfeKjNv1biRX19uqQdnvpIomiZjMFYZwhB2++kt3eJpAyYXOQTt2eFJbTPE0qplFzk5HClt5njaRUJUZyfKktpniaVUyi5ycjhSW7vE0gZABnYTg7OVJFEYmdpgrDOEwSTSm3ELayuZDuOdgoXDCExBUwd5xtPvrJIAzsG7816xAxk4/wDB7f0YO/8ANqhTnOfIUyjAIzt50AocDbmgoJYncDTY6sY5/m1SNUjODzpmGqBnODWsmsGz7qDL7QO40SuoADx/8MS6jewozRj7VdfH416xH4118fM/ChLGftCgQdxB/NDyIm87eVNcMe6MUXdt7HsBLINzGhdlTiRdnMUkiOMqwP5klm2lV957QgEEGlZ43ypwRVvcCUYOxhvH5ikbVRj4dsxyxPjULFZUI5/mK7Yrbuw4Y/WlYMoYHYezJA31JJrbBu6A2HTmWH5ivv4SXyH61FM0Z2bRxFJPG+5sHkewMiDjTTch8aZmbeehpAN200hJlQn8Q/X8xX38JL5D9elZHXjQuW4k0Ln/ABUJ2/EK61/xV1jH7RotzNa6/iFGVOeaM3IUXY7z0RfvU/mH6/mK+GbWXyH61MHMbanexspLuSM6sqk/I1HcRSbmGeR2diQQcEEHxrRcFpcaQt4rqbq4Wb2nzjGzZtO7NabtbG10hJFZzdbEAMHIbBO8ZG+ohmWP+Yfr+YtIy9VY3D4yQmB79lQyrKgI38Ryp40cYZQaewX7D48DXVXkXdJI8Dn5V63cJ3l+IxSnKg4xkbvowS9VNFJqhtRw2DuODurSmkBfzJIItTVXG/JPSt2sV1bgAE9YufAE/mLSSa9jOvNR+tBpIXOMhhvqK9Rtj+yefCgQwyCCPDsnkRBlmAqa9JyIxjxNWMbSXURO4OCT7/zFffwkvkP1qe2WUZ3NzqSGSM+0PfwpXdDlWIpb2Yb8N5ilv1+1GfcaF7AeY91C7t/x/I161b/j+Ro3lv8Ai+Ro30I3Bj7qa/8Awx/E093O32seVEknJOahtZJME+yvM1bRrG0aqNmsPzFffwkvkP16CARgins4W3DVPhTWMg7rA/Kmtp13xn3baKON6ke76AjkO5GPupbSdvsY86SwP239wqO2hj3Lk8zt6Iv3qfzD9fzFffwsvkP1qbrOrbU72NlR3jKdWVT58aSaOTusD4fQwDwrVXkKx9CygjuLqKKSTUVjtb/+51pG2htbt4opddQBt34zwOKi/ex/zD9fzFpCXqrK4fGcIdnidlRSrIgYe8cqkhjk7y58aewO9H9xrF7F+Ij40L6VdjIP0pTrKDjGRn6NpMkF1BM8YkVJFYodzAHOK9INLW+lLuOaG36oLHqnOMsfHHLpS6SG6txjJMi5HIE/mLSaa9jOvNR+tI8kLnBwRvFRXkb7G9k/Kgc9BAPDsGdUGWYAeNTX3CMf+xqyRpbuInbhwSff+Yr7+El8h+tXFssu0bG58/OpI3jOGXFJJIndYilvpB3lB+VLfxnerD50Ly3P2se416zB/eCvWIP7wUbqAf2go3sA4k+6mv1+yh99PeTNuIXypmZjkkk+NQ20kuDjC8zVtEkTRqo+0Mnn+Yr7+El8h+vQyqwwQCKeyibukr8xTWUw3YamhmXfG3wogjePoBWO4E0tvO26M+/ZSWDnvOB5bajtYU26uTzPRF+9T+Yfr+Yr7+Fl8h+tTFxGxQZbhUV9jZIPeKSRHGVYHpwDXVofsD4V1Uf4F+FBEG5R8PoaLslv9IW9s0ojEjYLHwGfieFaa0amjdISWyTdYFAOdxGRuPjUX72P+Yfr+YpEEiMh3EYqWJ4pCjDaPnUkEUneXbzG+msXU5jfPnsNdZeRbwSPEZ+dLft9pB7tlKwZQRxGfowOiTRO6ayq4LLzAO6tK3drdTo9vDqKFwdgGT5Dp0fbmSUSEeyhz5n8xz28c64ceR4ip7CeLJA115j+nSUU71B8x2CqzEBQSeQq30azYabYPwjfSqqKFUAAbh+ZZbaCXvxgnnuNPopD3JCPA7abRlwNxVvfRsrof2R92DRtrgf2L/A16vcf3L/5TQtbk/2L/ClsLo/2ePMil0XMe86j51HoyBe8Wb5CkijjGEQKPD/43f/Z;" parent="1" vertex="1">
          <mxGeometry x="160" y="310" width="1796" height="1121" as="geometry" />
        </mxCell>
        <mxCell id="2qZhVFvIX3RN9ZFZE2jm-2" value="" style="rounded=0;whiteSpace=wrap;html=1;strokeColor=none;" parent="1" vertex="1">
          <mxGeometry x="320" y="320" width="370" height="90" as="geometry" />
        </mxCell>
        <mxCell id="2qZhVFvIX3RN9ZFZE2jm-4" value="" style="rounded=0;whiteSpace=wrap;html=1;strokeColor=none;" parent="1" vertex="1">
          <mxGeometry x="850" y="440" width="510" height="120" as="geometry" />
        </mxCell>
        <mxCell id="2qZhVFvIX3RN9ZFZE2jm-5" value="" style="rounded=0;whiteSpace=wrap;html=1;strokeColor=none;" parent="1" vertex="1">
          <mxGeometry x="370" y="460" width="250" height="130" as="geometry" />
        </mxCell>
        <mxCell id="2qZhVFvIX3RN9ZFZE2jm-7" value="&lt;font style=&quot;font-size: 33px;&quot;&gt;&lt;b&gt;&lt;svg xmlns:xlink=&quot;http://www.w3.org/1999/xlink&quot; viewBox=&quot;0 -750 4094.2 1000&quot; role=&quot;img&quot; height=&quot;2.262ex&quot; width=&quot;9.263ex&quot; xmlns=&quot;http://www.w3.org/2000/svg&quot; style=&quot;vertical-align: -0.566ex;&quot;&gt;&lt;defs&gt;&lt;path d=&quot;M33 157Q33 258 109 349T280 441Q331 441 370 392Q386 422 416 422Q429 422 439 414T449 394Q449 381 412 234T374 68Q374 43 381 35T402 26Q411 27 422 35Q443 55 463 131Q469 151 473 152Q475 153 483 153H487Q506 153 506 144Q506 138 501 117T481 63T449 13Q436 0 417 -8Q409 -10 393 -10Q359 -10 336 5T306 36L300 51Q299 52 296 50Q294 48 292 46Q233 -10 172 -10Q117 -10 75 30T33 157ZM351 328Q351 334 346 350T323 385T277 405Q242 405 210 374T160 293Q131 214 119 129Q119 126 119 118T118 106Q118 61 136 44T179 26Q217 26 254 59T298 110Q300 114 325 217T351 328Z&quot; id=&quot;MJX-2-TEX-I-1D44E&quot;&gt;&lt;/path&gt;&lt;path d=&quot;M56 347Q56 360 70 367H707Q722 359 722 347Q722 336 708 328L390 327H72Q56 332 56 347ZM56 153Q56 168 72 173H708Q722 163 722 153Q722 140 707 133H70Q56 140 56 153Z&quot; id=&quot;MJX-2-TEX-N-3D&quot;&gt;&lt;/path&gt;&lt;path d=&quot;M132 -11Q98 -11 98 22V33L111 61Q186 219 220 334L228 358H196Q158 358 142 355T103 336Q92 329 81 318T62 297T53 285Q51 284 38 284Q19 284 19 294Q19 300 38 329T93 391T164 429Q171 431 389 431Q549 431 553 430Q573 423 573 402Q573 371 541 360Q535 358 472 358H408L405 341Q393 269 393 222Q393 170 402 129T421 65T431 37Q431 20 417 5T381 -10Q370 -10 363 -7T347 17T331 77Q330 86 330 121Q330 170 339 226T357 318T367 358H269L268 354Q268 351 249 275T206 114T175 17Q164 -11 132 -11Z&quot; id=&quot;MJX-2-TEX-I-1D70B&quot;&gt;&lt;/path&gt;&lt;path d=&quot;M35 200Q35 302 74 415T180 610T319 704Q320 704 327 704T339 705Q393 701 423 656Q462 596 462 495Q462 380 417 261T302 66T168 -10H161Q125 -10 99 10T60 63T41 130T35 200ZM383 566Q383 668 330 668Q294 668 260 623T204 521T170 421T157 371Q206 370 254 370L351 371Q352 372 359 404T375 484T383 566ZM113 132Q113 26 166 26Q181 26 198 36T239 74T287 161T335 307L340 324H145Q145 321 136 286T120 208T113 132Z&quot; id=&quot;MJX-2-TEX-I-1D703&quot;&gt;&lt;/path&gt;&lt;path d=&quot;M94 250Q94 319 104 381T127 488T164 576T202 643T244 695T277 729T302 750H315H319Q333 750 333 741Q333 738 316 720T275 667T226 581T184 443T167 250T184 58T225 -81T274 -167T316 -220T333 -241Q333 -250 318 -250H315H302L274 -226Q180 -141 137 -14T94 250Z&quot; id=&quot;MJX-2-TEX-N-28&quot;&gt;&lt;/path&gt;&lt;path d=&quot;M131 289Q131 321 147 354T203 415T300 442Q362 442 390 415T419 355Q419 323 402 308T364 292Q351 292 340 300T328 326Q328 342 337 354T354 372T367 378Q368 378 368 379Q368 382 361 388T336 399T297 405Q249 405 227 379T204 326Q204 301 223 291T278 274T330 259Q396 230 396 163Q396 135 385 107T352 51T289 7T195 -10Q118 -10 86 19T53 87Q53 126 74 143T118 160Q133 160 146 151T160 120Q160 94 142 76T111 58Q109 57 108 57T107 55Q108 52 115 47T146 34T201 27Q237 27 263 38T301 66T318 97T323 122Q323 150 302 164T254 181T195 196T148 231Q131 256 131 289Z&quot; id=&quot;MJX-2-TEX-I-1D460&quot;&gt;&lt;/path&gt;&lt;path d=&quot;M60 749L64 750Q69 750 74 750H86L114 726Q208 641 251 514T294 250Q294 182 284 119T261 12T224 -76T186 -143T145 -194T113 -227T90 -246Q87 -249 86 -250H74Q66 -250 63 -250T58 -247T55 -238Q56 -237 66 -225Q221 -64 221 250T66 725Q56 737 55 738Q55 746 60 749Z&quot; id=&quot;MJX-2-TEX-N-29&quot;&gt;&lt;/path&gt;&lt;/defs&gt;&lt;g transform=&quot;scale(1,-1)&quot; stroke-width=&quot;0&quot; fill=&quot;currentColor&quot; stroke=&quot;currentColor&quot;&gt;&lt;g data-mml-node=&quot;math&quot;&gt;&lt;g data-mml-node=&quot;mi&quot;&gt;&lt;use xlink:href=&quot;#MJX-2-TEX-I-1D44E&quot; data-c=&quot;1D44E&quot;&gt;&lt;/use&gt;&lt;/g&gt;&lt;g transform=&quot;translate(806.8,0)&quot; data-mml-node=&quot;mo&quot;&gt;&lt;use xlink:href=&quot;#MJX-2-TEX-N-3D&quot; data-c=&quot;3D&quot;&gt;&lt;/use&gt;&lt;/g&gt;&lt;g transform=&quot;translate(1862.6,0)&quot; data-mml-node=&quot;msub&quot;&gt;&lt;g data-mml-node=&quot;mi&quot;&gt;&lt;use xlink:href=&quot;#MJX-2-TEX-I-1D70B&quot; data-c=&quot;1D70B&quot;&gt;&lt;/use&gt;&lt;/g&gt;&lt;g data-mjx-texclass=&quot;ORD&quot; transform=&quot;translate(603,-150) scale(0.707)&quot; data-mml-node=&quot;TeXAtom&quot;&gt;&lt;g data-mml-node=&quot;mi&quot;&gt;&lt;use xlink:href=&quot;#MJX-2-TEX-I-1D703&quot; data-c=&quot;1D703&quot;&gt;&lt;/use&gt;&lt;/g&gt;&lt;/g&gt;&lt;/g&gt;&lt;g transform=&quot;translate(2847.2,0)&quot; data-mml-node=&quot;mo&quot;&gt;&lt;use xlink:href=&quot;#MJX-2-TEX-N-28&quot; data-c=&quot;28&quot;&gt;&lt;/use&gt;&lt;/g&gt;&lt;g transform=&quot;translate(3236.2,0)&quot; data-mml-node=&quot;mi&quot;&gt;&lt;use xlink:href=&quot;#MJX-2-TEX-I-1D460&quot; data-c=&quot;1D460&quot;&gt;&lt;/use&gt;&lt;/g&gt;&lt;g transform=&quot;translate(3705.2,0)&quot; data-mml-node=&quot;mo&quot;&gt;&lt;use xlink:href=&quot;#MJX-2-TEX-N-29&quot; data-c=&quot;29&quot;&gt;&lt;/use&gt;&lt;/g&gt;&lt;/g&gt;&lt;/g&gt;&lt;/svg&gt;&lt;/b&gt;&lt;/font&gt;" style="text;strokeColor=none;align=center;fillColor=none;html=1;verticalAlign=middle;whiteSpace=wrap;rounded=0;" parent="1" vertex="1">
          <mxGeometry x="980" y="460" width="230" height="100" as="geometry" />
        </mxCell>
        <mxCell id="2qZhVFvIX3RN9ZFZE2jm-8" value="&lt;font style=&quot;font-size: 34px;&quot;&gt;&lt;b&gt;Control Policy&lt;/b&gt;&lt;/font&gt;" style="text;strokeColor=none;align=center;fillColor=none;html=1;verticalAlign=middle;whiteSpace=wrap;rounded=0;" parent="1" vertex="1">
          <mxGeometry x="420" y="480" width="60" height="40" as="geometry" />
        </mxCell>
        <mxCell id="2qZhVFvIX3RN9ZFZE2jm-11" value="&lt;font style=&quot;font-size: 35px;&quot;&gt;&lt;b&gt;$$\pi_{\theta}$$&lt;/b&gt;&lt;/font&gt;" style="text;strokeColor=none;align=center;fillColor=none;html=1;verticalAlign=middle;whiteSpace=wrap;rounded=0;" parent="1" vertex="1">
          <mxGeometry x="540" y="495" width="60" height="30" as="geometry" />
        </mxCell>
        <mxCell id="TXYGmL835QT59yN_TUyz-2" value="" style="curved=1;endArrow=open;html=1;rounded=0;exitX=0.39;exitY=0.803;exitDx=0;exitDy=0;exitPerimeter=0;endFill=0;endSize=26;strokeWidth=4;" edge="1" parent="1">
          <mxGeometry width="50" height="50" relative="1" as="geometry">
            <mxPoint x="841.44" y="1197.163" as="sourcePoint" />
            <mxPoint x="451" y="937" as="targetPoint" />
            <Array as="points">
              <mxPoint x="651" y="1187" />
              <mxPoint x="481" y="1007" />
            </Array>
          </mxGeometry>
        </mxCell>
        <mxCell id="TXYGmL835QT59yN_TUyz-3" value="&lt;font style=&quot;font-size: 48px;&quot;&gt;&lt;b&gt;Policy Update&lt;/b&gt;&lt;/font&gt;" style="text;strokeColor=none;align=center;fillColor=none;html=1;verticalAlign=middle;whiteSpace=wrap;rounded=0;" vertex="1" parent="1">
          <mxGeometry x="510" y="1190" width="60" height="30" as="geometry" />
        </mxCell>
      </root>
    </mxGraphModel>
  </diagram>
</mxfile>
